<svg width="42" height="42" viewBox="0 0 42 42" fill="none" xmlns="http://www.w3.org/2000/svg">
<g id="&#208;&#188;&#208;&#176;&#209;&#129;&#208;&#186;&#208;&#176;">
<path id="Vector" d="M5.57948 25C3.26119 22.0022 2.00025 18.2952 2 14.4769V5.10379C5.8634 3.06437 10.15 2 14.5 2C18.85 2 23.1366 3.06437 27 5.10379" stroke="#54829A" stroke-width="4" stroke-linecap="round" stroke-linejoin="round"/>
<path id="Vector_2" d="M23.7485 39.8277C22.7525 40.0528 21.7173 40.0387 20.7279 39.7863C19.7384 39.534 18.8228 39.0508 18.0562 38.3762C15.393 36.0803 13.4208 33.0889 12.3603 29.7363C11.2997 26.3838 11.1926 22.8024 12.0509 19.3924L14.1286 11.0817C18.6411 9.93724 23.3671 9.93104 27.8826 11.0636C32.3981 12.1962 36.5618 14.4322 40 17.5709L37.9223 25.8532C37.0848 29.2662 35.3163 32.3797 32.8138 34.847C30.3113 37.3143 27.1731 39.0386 23.7485 39.8277Z" stroke="#FF3B3C" stroke-width="4" stroke-linecap="round" stroke-linejoin="round"/>
<path id="Vector_3" d="M17.5446 20.104C17.9036 19.7282 18.3587 19.458 18.8604 19.3225C19.3621 19.187 19.8913 19.1915 20.3907 19.3355C20.8795 19.4505 21.3291 19.6927 21.694 20.0376C22.0589 20.3825 22.3261 20.8178 22.4684 21.2993M28.8153 22.9216C29.1628 22.5482 29.6044 22.275 30.0937 22.1306C30.5831 21.9863 31.1022 21.9762 31.5968 22.1013C32.0914 22.2264 32.5433 22.4821 32.9051 22.8418C33.267 23.2014 33.5256 23.6517 33.6537 24.1455" stroke="#FF3B3C" stroke-width="4" stroke-linecap="round" stroke-linejoin="round"/>
</g>
</svg>
