<svg width="40" height="38" viewBox="0 0 40 38" fill="none" xmlns="http://www.w3.org/2000/svg">
<path id="&#208;&#186;&#209;&#128;&#208;&#181;&#208;&#191;&#208;&#190;&#209;&#129;&#209;&#130;&#209;&#140;" d="M20 16V34H32V16H20ZM36 38H0V24C0 22.9391 0.421428 21.9217 1.17157 21.1716C1.92172 20.4214 2.93913 20 4 20H8C9.06087 20 10.0783 20.4214 10.8284 21.1716C11.5786 21.9217 12 22.9391 12 24H16V16C14.9391 16 13.9217 15.5786 13.1716 14.8284C12.4214 14.0783 12 13.0609 12 12V4C12 2.93913 12.4214 1.92172 13.1716 1.17157C13.9217 0.421427 14.9391 0 16 0L20 0C21.0609 0 22.0783 0.421427 22.8284 1.17157C23.5786 1.92172 24 2.93913 24 4H28C28 2.93913 28.4214 1.92172 29.1716 1.17157C29.9217 0.421427 30.9391 0 32 0L36 0C37.0609 0 38.0783 0.421427 38.8284 1.17157C39.5786 1.92172 40 2.93913 40 4V12C40 13.0609 39.5786 14.0783 38.8284 14.8284C38.0783 15.5786 37.0609 16 36 16V38ZM16 34V28H8V24H4V34H16ZM16 4V12H36V4H32V8H20V4H16ZM26 26C27.0609 26 28.0783 26.4214 28.8284 27.1716C29.5786 27.9217 30 28.9391 30 30V36H22V30C22 28.9391 22.4214 27.9217 23.1716 27.1716C23.9217 26.4214 24.9391 26 26 26ZM24 18H28C28.5304 18 29.0391 18.2107 29.4142 18.5858C29.7893 18.9609 30 19.4696 30 20C30 20.5304 29.7893 21.0391 29.4142 21.4142C29.0391 21.7893 28.5304 22 28 22H24C23.4696 22 22.9609 21.7893 22.5858 21.4142C22.2107 21.0391 22 20.5304 22 20C22 19.4696 22.2107 18.9609 22.5858 18.5858C22.9609 18.2107 23.4696 18 24 18Z" fill="#ED4700"/>
</svg>
