<svg width="56" height="55" viewBox="0 0 56 55" fill="none" xmlns="http://www.w3.org/2000/svg">
<g id="ri:tree-line">
<path id="Vector" d="M13.7675 16.0414C13.7667 17.1115 13.8864 18.1777 14.1238 19.2202C11.5825 20.4927 9.52 22.5591 8.25311 25.1115C6.925 27.7872 6.55095 30.8364 7.19293 33.7538C7.83491 36.6712 9.45438 39.2817 11.783 41.1528C14.1116 43.0238 17.0095 44.0431 19.9966 44.0418C19.9967 44.0418 19.9968 44.0418 19.9969 44.0418H25.2258V50.4168V50.9168H25.7258H30.3091H30.8091V50.4168V44.0418H34.8924C38.0413 44.042 41.1015 42.9993 43.5952 41.0765C46.0888 39.1538 47.8753 36.4592 48.6757 33.4138C49.476 30.3683 49.2451 27.1435 48.0191 24.2432C46.8364 21.4456 44.7921 19.1019 42.1879 17.5502C42.3815 15.7254 42.221 13.8793 41.714 12.1136C41.1762 10.2406 40.26 8.4979 39.022 6.99308C37.784 5.48827 36.2505 4.25335 34.5164 3.36465C32.7822 2.47595 30.8842 1.95237 28.9397 1.82626C26.9952 1.70015 25.0454 1.9742 23.211 2.63146C21.3766 3.28871 19.6964 4.31522 18.2745 5.64753C16.8525 6.97984 15.7188 8.58963 14.9436 10.3774C14.1684 12.1651 13.7681 14.0929 13.7675 16.0414ZM13.7675 16.0414L14.2675 16.0418L13.7675 16.0416C13.7675 16.0415 13.7675 16.0415 13.7675 16.0414ZM34.893 38.4584H34.8925H19.9976C18.2894 38.4551 16.6332 37.8707 15.3011 36.8014C13.969 35.732 13.0404 34.2412 12.6679 32.5741C12.2954 30.9071 12.5011 29.1628 13.2513 27.6282C13.9395 26.2203 15.0483 25.0657 16.4191 24.3208C17.2693 25.5099 18.297 26.5625 19.4672 27.4415L19.8672 27.7421L20.1675 27.3418L22.9175 23.6751L23.2175 23.2751L22.8175 22.9751C21.6356 22.0887 20.7 20.915 20.0994 19.5653C19.4988 18.2156 19.2531 16.7348 19.3858 15.2634C19.5185 13.7921 20.025 12.3791 20.8574 11.1587C21.6898 9.93817 22.8203 8.95072 24.1416 8.29005C25.4629 7.62939 26.9312 7.31745 28.407 7.38385C29.8828 7.45025 31.3171 7.89279 32.5738 8.66945C33.8305 9.44611 34.8677 10.5311 35.5871 11.8214C36.3065 13.1117 36.6841 14.5645 36.6841 16.0418C36.6841 17.2949 36.3477 18.4811 35.9885 19.7478C35.9309 19.9508 35.8728 20.1558 35.8153 20.3635L35.695 20.7986L36.1156 20.9626L38.0429 21.7142L38.0433 21.7144C39.9279 22.4473 41.4969 23.8162 42.4786 25.5839C43.4604 27.3516 43.7931 29.407 43.4193 31.3943C43.0454 33.3815 41.9884 35.1754 40.4313 36.4655C38.8742 37.7555 36.9151 38.4605 34.893 38.4584Z" fill="#66752B" stroke="#66752B"/>
</g>
</svg>
