<svg width="40" height="40" viewBox="0 0 40 40" fill="none" xmlns="http://www.w3.org/2000/svg">
<g id="bxs:church">
<path id="Vector" d="M16.8 38V30.6C16.8 29.6187 17.1898 28.6776 17.8837 27.9837C18.5776 27.2898 19.5187 26.9 20.5 26.9C21.4813 26.9 22.4224 27.2898 23.1163 27.9837C23.8102 28.6776 24.2 29.6187 24.2 30.6V38H31.6V19.5C31.5999 19.1808 31.5173 18.867 31.3601 18.5892C31.2028 18.3114 30.9764 18.0789 30.7027 17.9145L22.35 12.9029V8.4H26.05V4.7H22.35V1H18.65V4.7H14.95V8.4H18.65V12.9029L10.2973 17.9145C10.0236 18.0789 9.79718 18.3114 9.63995 18.5892C9.48272 18.867 9.40006 19.1808 9.4 19.5V38H16.8ZM3.85 38H7.55V22.9817L3.02305 25.2461C2.71553 25.3993 2.45685 25.6353 2.27612 25.9274C2.09538 26.2196 1.99976 26.5564 2 26.9V36.15C2 36.6407 2.19491 37.1112 2.54185 37.4581C2.8888 37.8051 3.35935 38 3.85 38ZM37.977 25.2442L33.45 22.9817V38H37.15C37.6407 38 38.1112 37.8051 38.4581 37.4581C38.8051 37.1112 39 36.6407 39 36.15V26.9C39 26.1989 38.6041 25.5588 37.977 25.2442Z" fill="#19ADAB" stroke="#19ADAB"/>
</g>
</svg>
