<svg width="38" height="38" viewBox="0 0 38 38" fill="none" xmlns="http://www.w3.org/2000/svg">
<g id="&#208;&#186;&#208;&#186;&#208;&#186;">
<rect id="Rectangle 5" width="38" height="38" rx="19" fill="#353535" fill-opacity="0.8"/>
<path id="lines" fill-rule="evenodd" clip-rule="evenodd" d="M10.948 14H27.051C27.573 14 28 14.427 28 14.949V15.051C28 15.573 27.573 16 27.051 16H10.948C10.426 16 10 15.573 10 15.051V14.949C10 14.427 10.426 14 10.948 14ZM27.051 18H10.948C10.426 18 10 18.427 10 18.949V19.051C10 19.573 10.426 20 10.948 20H27.051C27.573 20 28 19.573 28 19.051V18.949C28 18.427 27.573 18 27.051 18ZM27.051 22H10.948C10.426 22 10 22.427 10 22.949V23.051C10 23.573 10.426 24 10.948 24H27.051C27.573 24 28 23.573 28 23.051V22.949C28 22.427 27.573 22 27.051 22Z" fill="white"/>
</g>
</svg>
