<svg width="97" height="44" viewBox="0 0 97 44" fill="none" xmlns="http://www.w3.org/2000/svg">
<path d="M32.6382 13.2475C31.5532 13.2475 30.5957 13.06 29.7657 12.685C28.9357 12.305 28.2907 11.7725 27.8307 11.0875C27.3757 10.4025 27.1482 9.6125 27.1482 8.7175C27.1482 7.8225 27.3757 7.0325 27.8307 6.3475C28.2907 5.6575 28.9357 5.125 29.7657 4.75C30.5957 4.37 31.5532 4.18 32.6382 4.18C33.7232 4.18 34.6807 4.37 35.5107 4.75C36.3407 5.125 36.9832 5.6575 37.4382 6.3475C37.8982 7.0325 38.1282 7.8225 38.1282 8.7175C38.1282 9.6125 37.8982 10.4025 37.4382 11.0875C36.9832 11.7725 36.3407 12.305 35.5107 12.685C34.6807 13.06 33.7232 13.2475 32.6382 13.2475ZM32.6382 10.9675C33.1332 10.9675 33.5607 10.8775 33.9207 10.6975C34.2807 10.5175 34.5557 10.26 34.7457 9.925C34.9357 9.585 35.0307 9.1825 35.0307 8.7175C35.0307 8.2525 34.9332 7.85 34.7382 7.51C34.5482 7.17 34.2732 6.91 33.9132 6.73C33.5582 6.55 33.1332 6.46 32.6382 6.46C32.1432 6.46 31.7157 6.55 31.3557 6.73C30.9957 6.91 30.7182 7.17 30.5232 7.51C30.3332 7.85 30.2382 8.2525 30.2382 8.7175C30.2382 9.1825 30.3332 9.585 30.5232 9.925C30.7182 10.26 30.9957 10.5175 31.3557 10.6975C31.7157 10.8775 32.1432 10.9675 32.6382 10.9675ZM38.4952 4.4275H48.0727V6.745H44.8177V13H41.7502V6.745H38.4952V4.4275ZM56.3525 7.825L59.5475 13H56.0975L54.395 10.075L51.8525 13H49.1375V4.4275H52.205V9.19L56.075 4.4275H59.315L56.3525 7.825ZM66.9304 4.18C67.7604 4.18 68.4954 4.37 69.1354 4.75C69.7804 5.125 70.2804 5.6575 70.6354 6.3475C70.9904 7.0325 71.1679 7.8225 71.1679 8.7175C71.1679 9.6075 70.9904 10.3975 70.6354 11.0875C70.2804 11.7725 69.7804 12.305 69.1354 12.685C68.4954 13.06 67.7604 13.2475 66.9304 13.2475C66.1804 13.2475 65.4979 13.08 64.8829 12.745C64.2679 12.41 63.7529 11.9375 63.3379 11.3275V15.475H60.2704V4.4275H63.3379V6.07C63.7579 5.465 64.2729 5 64.8829 4.675C65.4979 4.345 66.1804 4.18 66.9304 4.18ZM66.0079 10.9C66.4079 10.9 66.7629 10.8075 67.0729 10.6225C67.3879 10.4325 67.6329 10.1725 67.8079 9.8425C67.9829 9.5125 68.0704 9.1375 68.0704 8.7175C68.0704 8.2975 67.9829 7.9225 67.8079 7.5925C67.6329 7.2575 67.3879 6.9975 67.0729 6.8125C66.7629 6.6225 66.4079 6.5275 66.0079 6.5275C65.6029 6.5275 65.2129 6.6225 64.8379 6.8125C64.4679 6.9975 64.1404 7.2575 63.8554 7.5925C63.5754 7.9225 63.3629 8.2975 63.2179 8.7175C63.3629 9.1375 63.5754 9.5125 63.8554 9.8425C64.1404 10.1725 64.4679 10.4325 64.8379 10.6225C65.2129 10.8075 65.6029 10.9 66.0079 10.9ZM77.5943 13.2475C76.5093 13.2475 75.5518 13.06 74.7218 12.685C73.8918 12.305 73.2468 11.7725 72.7868 11.0875C72.3318 10.4025 72.1043 9.6125 72.1043 8.7175C72.1043 7.8225 72.3318 7.0325 72.7868 6.3475C73.2468 5.6575 73.8918 5.125 74.7218 4.75C75.5518 4.37 76.5093 4.18 77.5943 4.18C78.6793 4.18 79.6368 4.37 80.4668 4.75C81.2968 5.125 81.9393 5.6575 82.3943 6.3475C82.8543 7.0325 83.0843 7.8225 83.0843 8.7175C83.0843 9.6125 82.8543 10.4025 82.3943 11.0875C81.9393 11.7725 81.2968 12.305 80.4668 12.685C79.6368 13.06 78.6793 13.2475 77.5943 13.2475ZM77.5943 10.9675C78.0893 10.9675 78.5168 10.8775 78.8768 10.6975C79.2368 10.5175 79.5118 10.26 79.7018 9.925C79.8918 9.585 79.9868 9.1825 79.9868 8.7175C79.9868 8.2525 79.8893 7.85 79.6943 7.51C79.5043 7.17 79.2293 6.91 78.8693 6.73C78.5143 6.55 78.0893 6.46 77.5943 6.46C77.0993 6.46 76.6718 6.55 76.3118 6.73C75.9518 6.91 75.6743 7.17 75.4793 7.51C75.2893 7.85 75.1943 8.2525 75.1943 8.7175C75.1943 9.1825 75.2893 9.585 75.4793 9.925C75.6743 10.26 75.9518 10.5175 76.3118 10.6975C76.6718 10.8775 77.0993 10.9675 77.5943 10.9675ZM87.382 10.1575L91.2145 4.4275H95.152V13H92.1295V7.105L88.1845 13H84.367V4.4275H87.382V10.1575ZM89.6695 3.7075C88.6245 3.7075 87.7845 3.4575 87.1495 2.9575C86.5195 2.4525 86.127 1.7225 85.972 0.7675H88.3195C88.3945 1.1625 88.547 1.465 88.777 1.675C89.012 1.885 89.3095 1.99 89.6695 1.99C90.0295 1.99 90.3245 1.885 90.5545 1.675C90.7845 1.465 90.937 1.1625 91.012 0.7675H93.352C93.202 1.7225 92.8095 2.4525 92.1745 2.9575C91.5445 3.4575 90.7095 3.7075 89.6695 3.7075ZM60.0921 24.385C60.0071 25.145 59.7271 25.8175 59.2521 26.4025C58.7771 26.9875 58.1546 27.4425 57.3846 27.7675C56.6146 28.0875 55.7596 28.2475 54.8196 28.2475C53.7746 28.2475 52.8471 28.0575 52.0371 27.6775C51.2321 27.2975 50.6046 26.765 50.1546 26.08C49.7096 25.39 49.4871 24.6025 49.4871 23.7175C49.4871 22.8325 49.7096 22.0475 50.1546 21.3625C50.6046 20.6725 51.2321 20.1375 52.0371 19.7575C52.8471 19.3725 53.7746 19.18 54.8196 19.18C55.7596 19.18 56.6146 19.3425 57.3846 19.6675C58.1546 19.9875 58.7771 20.4425 59.2521 21.0325C59.7271 21.6175 60.0071 22.29 60.0921 23.05H57.0471C56.9421 22.545 56.6896 22.155 56.2896 21.88C55.8896 21.6 55.3996 21.46 54.8196 21.46C54.3646 21.46 53.9671 21.5475 53.6271 21.7225C53.2921 21.8975 53.0321 22.155 52.8471 22.495C52.6671 22.835 52.5771 23.2425 52.5771 23.7175C52.5771 24.4325 52.7771 24.9875 53.1771 25.3825C53.5821 25.7725 54.1296 25.9675 54.8196 25.9675C55.3946 25.9675 55.8821 25.825 56.2821 25.54C56.6871 25.25 56.9421 24.865 57.0471 24.385H60.0921ZM69.3364 23.47C69.9664 23.62 70.4439 23.8725 70.7689 24.2275C71.0989 24.5825 71.2639 25.03 71.2639 25.57C71.2639 26.06 71.1389 26.49 70.8889 26.86C70.6439 27.225 70.2914 27.5075 69.8314 27.7075C69.3764 27.9025 68.8414 28 68.2264 28H61.0489L61.5889 23.71L61.0489 19.4275H68.0314C68.5764 19.4275 69.0539 19.515 69.4639 19.69C69.8739 19.865 70.1889 20.115 70.4089 20.44C70.6339 20.765 70.7464 21.1425 70.7464 21.5725C70.7464 22.0025 70.6239 22.38 70.3789 22.705C70.1389 23.025 69.7914 23.28 69.3364 23.47ZM67.6714 22.09C67.6714 21.85 67.5964 21.6625 67.4464 21.5275C67.3014 21.3925 67.0814 21.325 66.7864 21.325H64.1764L64.3789 22.855H66.7339C67.0389 22.855 67.2714 22.7875 67.4314 22.6525C67.5914 22.5175 67.6714 22.33 67.6714 22.09ZM67.1989 26.1025C67.5289 26.1025 67.7764 26.03 67.9414 25.885C68.1114 25.74 68.1964 25.535 68.1964 25.27C68.1964 25.02 68.1039 24.8225 67.9189 24.6775C67.7339 24.5275 67.4589 24.4525 67.0939 24.4525H64.4014L64.1764 26.1025H67.1989ZM77.5943 28.2475C76.5093 28.2475 75.5518 28.06 74.7218 27.685C73.8918 27.305 73.2468 26.7725 72.7868 26.0875C72.3318 25.4025 72.1043 24.6125 72.1043 23.7175C72.1043 22.8225 72.3318 22.0325 72.7868 21.3475C73.2468 20.6575 73.8918 20.125 74.7218 19.75C75.5518 19.37 76.5093 19.18 77.5943 19.18C78.6793 19.18 79.6368 19.37 80.4668 19.75C81.2968 20.125 81.9393 20.6575 82.3943 21.3475C82.8543 22.0325 83.0843 22.8225 83.0843 23.7175C83.0843 24.6125 82.8543 25.4025 82.3943 26.0875C81.9393 26.7725 81.2968 27.305 80.4668 27.685C79.6368 28.06 78.6793 28.2475 77.5943 28.2475ZM77.5943 25.9675C78.0893 25.9675 78.5168 25.8775 78.8768 25.6975C79.2368 25.5175 79.5118 25.26 79.7018 24.925C79.8918 24.585 79.9868 24.1825 79.9868 23.7175C79.9868 23.2525 79.8893 22.85 79.6943 22.51C79.5043 22.17 79.2293 21.91 78.8693 21.73C78.5143 21.55 78.0893 21.46 77.5943 21.46C77.0993 21.46 76.6718 21.55 76.3118 21.73C75.9518 21.91 75.6743 22.17 75.4793 22.51C75.2893 22.85 75.1943 23.2525 75.1943 23.7175C75.1943 24.1825 75.2893 24.585 75.4793 24.925C75.6743 25.26 75.9518 25.5175 76.3118 25.6975C76.6718 25.8775 77.0993 25.9675 77.5943 25.9675ZM87.382 25.1575L91.2145 19.4275H95.152V28H92.1295V22.105L88.1845 28H84.367V19.4275H87.382V25.1575ZM89.6695 18.7075C88.6245 18.7075 87.7845 18.4575 87.1495 17.9575C86.5195 17.4525 86.127 16.7225 85.972 15.7675H88.3195C88.3945 16.1625 88.547 16.465 88.777 16.675C89.012 16.885 89.3095 16.99 89.6695 16.99C90.0295 16.99 90.3245 16.885 90.5545 16.675C90.7845 16.465 90.937 16.1625 91.012 15.7675H93.352C93.202 16.7225 92.8095 17.4525 92.1745 17.9575C91.5445 18.4575 90.7095 18.7075 89.6695 18.7075Z" fill="black"/>
<path d="M10.7855 39.385C10.7005 40.145 10.4205 40.8175 9.94547 41.4025C9.47047 41.9875 8.84797 42.4425 8.07797 42.7675C7.30797 43.0875 6.45297 43.2475 5.51297 43.2475C4.46797 43.2475 3.54047 43.0575 2.73047 42.6775C1.92547 42.2975 1.29797 41.765 0.847969 41.08C0.402969 40.39 0.180469 39.6025 0.180469 38.7175C0.180469 37.8325 0.402969 37.0475 0.847969 36.3625C1.29797 35.6725 1.92547 35.1375 2.73047 34.7575C3.54047 34.3725 4.46797 34.18 5.51297 34.18C6.45297 34.18 7.30797 34.3425 8.07797 34.6675C8.84797 34.9875 9.47047 35.4425 9.94547 36.0325C10.4205 36.6175 10.7005 37.29 10.7855 38.05H7.74047C7.63547 37.545 7.38297 37.155 6.98297 36.88C6.58297 36.6 6.09297 36.46 5.51297 36.46C5.05797 36.46 4.66047 36.5475 4.32047 36.7225C3.98547 36.8975 3.72547 37.155 3.54047 37.495C3.36047 37.835 3.27047 38.2425 3.27047 38.7175C3.27047 39.4325 3.47047 39.9875 3.87047 40.3825C4.27547 40.7725 4.82297 40.9675 5.51297 40.9675C6.08797 40.9675 6.57547 40.825 6.97547 40.54C7.38047 40.25 7.63547 39.865 7.74047 39.385H10.7855ZM18.8213 40.225L21.0188 34.4275H25.6238V43H22.7513V36.7975L20.2088 43H17.4113L14.8763 36.8425V43H12.0038V34.4275H16.6088L18.8213 40.225ZM32.4039 43.2475C31.3189 43.2475 30.3614 43.06 29.5314 42.685C28.7014 42.305 28.0564 41.7725 27.5964 41.0875C27.1414 40.4025 26.9139 39.6125 26.9139 38.7175C26.9139 37.8225 27.1414 37.0325 27.5964 36.3475C28.0564 35.6575 28.7014 35.125 29.5314 34.75C30.3614 34.37 31.3189 34.18 32.4039 34.18C33.4889 34.18 34.4464 34.37 35.2764 34.75C36.1064 35.125 36.7489 35.6575 37.2039 36.3475C37.6639 37.0325 37.8939 37.8225 37.8939 38.7175C37.8939 39.6125 37.6639 40.4025 37.2039 41.0875C36.7489 41.7725 36.1064 42.305 35.2764 42.685C34.4464 43.06 33.4889 43.2475 32.4039 43.2475ZM32.4039 40.9675C32.8989 40.9675 33.3264 40.8775 33.6864 40.6975C34.0464 40.5175 34.3214 40.26 34.5114 39.925C34.7014 39.585 34.7964 39.1825 34.7964 38.7175C34.7964 38.2525 34.6989 37.85 34.5039 37.51C34.3139 37.17 34.0389 36.91 33.6789 36.73C33.3239 36.55 32.8989 36.46 32.4039 36.46C31.9089 36.46 31.4814 36.55 31.1214 36.73C30.7614 36.91 30.4839 37.17 30.2889 37.51C30.0989 37.85 30.0039 38.2525 30.0039 38.7175C30.0039 39.1825 30.0989 39.585 30.2889 39.925C30.4839 40.26 30.7614 40.5175 31.1214 40.6975C31.4814 40.8775 31.9089 40.9675 32.4039 40.9675ZM49.7265 34.4275V43H46.659V36.715H43.3665C43.4165 37.45 43.4415 38.0225 43.4415 38.4325C43.4415 39.5525 43.3265 40.46 43.0965 41.155C42.8715 41.85 42.519 42.3625 42.039 42.6925C41.559 43.0175 40.9315 43.18 40.1565 43.18C39.8115 43.18 39.4915 43.145 39.1965 43.075C38.9015 43.005 38.6115 42.8925 38.3265 42.7375V40.555C38.6865 40.69 39.019 40.7575 39.324 40.7575C39.649 40.7575 39.9065 40.665 40.0965 40.48C40.2915 40.295 40.434 40.0025 40.524 39.6025C40.614 39.2025 40.659 38.67 40.659 38.005C40.659 37.045 40.5815 35.8525 40.4265 34.4275H49.7265ZM54.3477 39.5875C54.5577 40.0425 54.9127 40.3925 55.4127 40.6375C55.9127 40.8775 56.5427 40.9975 57.3027 40.9975C57.9327 40.9975 58.5602 40.915 59.1852 40.75C59.8102 40.585 60.3802 40.35 60.8952 40.045V41.995C60.2952 42.4 59.6177 42.71 58.8627 42.925C58.1077 43.14 57.2977 43.2475 56.4327 43.2475C55.3977 43.2475 54.4702 43.0575 53.6502 42.6775C52.8302 42.2925 52.1877 41.755 51.7227 41.065C51.2577 40.375 51.0252 39.5825 51.0252 38.6875C51.0252 37.8075 51.2477 37.025 51.6927 36.34C52.1427 35.655 52.7627 35.125 53.5527 34.75C54.3427 34.37 55.2327 34.18 56.2227 34.18C57.2277 34.18 58.0977 34.4025 58.8327 34.8475C59.5677 35.2875 60.1302 35.915 60.5202 36.73C60.9152 37.54 61.1127 38.4925 61.1127 39.5875H54.3477ZM56.2902 36.34C55.7652 36.34 55.3202 36.4675 54.9552 36.7225C54.5952 36.9725 54.3477 37.3125 54.2127 37.7425H58.2627C58.1227 37.2925 57.8827 36.9475 57.5427 36.7075C57.2077 36.4625 56.7902 36.34 56.2902 36.34ZM69.5333 37.48V34.4275H72.5933V43H69.5333V39.76H65.4983V43H62.4383V34.4275H65.4983V37.48H69.5333ZM84.4964 39.385C84.4114 40.145 84.1314 40.8175 83.6564 41.4025C83.1814 41.9875 82.5589 42.4425 81.7889 42.7675C81.0189 43.0875 80.1639 43.2475 79.2239 43.2475C78.1789 43.2475 77.2514 43.0575 76.4414 42.6775C75.6364 42.2975 75.0089 41.765 74.5589 41.08C74.1139 40.39 73.8914 39.6025 73.8914 38.7175C73.8914 37.8325 74.1139 37.0475 74.5589 36.3625C75.0089 35.6725 75.6364 35.1375 76.4414 34.7575C77.2514 34.3725 78.1789 34.18 79.2239 34.18C80.1639 34.18 81.0189 34.3425 81.7889 34.6675C82.5589 34.9875 83.1814 35.4425 83.6564 36.0325C84.1314 36.6175 84.4114 37.29 84.4964 38.05H81.4514C81.3464 37.545 81.0939 37.155 80.6939 36.88C80.2939 36.6 79.8039 36.46 79.2239 36.46C78.7689 36.46 78.3714 36.5475 78.0314 36.7225C77.6964 36.8975 77.4364 37.155 77.2514 37.495C77.0714 37.835 76.9814 38.2425 76.9814 38.7175C76.9814 39.4325 77.1814 39.9875 77.5814 40.3825C77.9864 40.7725 78.5339 40.9675 79.2239 40.9675C79.7989 40.9675 80.2864 40.825 80.6864 40.54C81.0914 40.25 81.3464 39.865 81.4514 39.385H84.4964ZM92.9297 37.825L96.1247 43H92.6747L90.9722 40.075L88.4297 43H85.7147V34.4275H88.7822V39.19L92.6522 34.4275H95.8922L92.9297 37.825Z" fill="#FF9A01"/>
</svg>
