<svg width="42" height="42" viewBox="0 0 42 42" fill="none" xmlns="http://www.w3.org/2000/svg">
<path d="M0 10C0 4.47715 4.47715 0 10 0H32C37.5228 0 42 4.47715 42 10V32C42 37.5228 37.5228 42 32 42H10C4.47715 42 0 37.5228 0 32V10Z" fill="#D9D9D9"/>
<g clip-path="url(#clip0_538_62)">
<path fill-rule="evenodd" clip-rule="evenodd" d="M29.3295 26.159C29.658 25.9947 30.0354 25.9566 30.3901 26.052C30.7448 26.1473 31.0522 26.3696 31.254 26.6765L31.341 26.8295L34.341 32.8295C34.448 33.0435 34.5023 33.2799 34.4994 33.5192C34.4964 33.7584 34.4363 33.9935 34.324 34.2047C34.2117 34.416 34.0504 34.5973 33.8538 34.7336C33.6571 34.8698 33.4307 34.9571 33.1935 34.988L33 35H9C8.7607 35.0001 8.52486 34.9429 8.31217 34.8333C8.09947 34.7236 7.9161 34.5646 7.77736 34.3697C7.63862 34.1747 7.54854 33.9494 7.51464 33.7125C7.48074 33.4756 7.50401 33.2341 7.5825 33.008L7.6575 32.828L10.6575 26.828C10.8256 26.4804 11.1213 26.2111 11.483 26.076C11.8447 25.941 12.2446 25.9506 12.5994 26.1029C12.9542 26.2551 13.2366 26.5384 13.3879 26.8936C13.5391 27.2488 13.5476 27.6487 13.4115 28.01L13.341 28.1705L11.427 32H30.573L28.659 28.1705C28.4814 27.8148 28.4522 27.4032 28.5779 27.026C28.7037 26.6488 28.974 26.337 29.3295 26.159ZM21 5C23.7848 5 26.4555 6.10625 28.4246 8.07538C30.3937 10.0445 31.5 12.7152 31.5 15.5C31.5 19.073 29.5665 21.9755 27.5655 24.035C26.4601 25.1576 25.2451 26.1667 23.9385 27.047L23.379 27.416L22.881 27.7295C22.803 27.776 22.728 27.8195 22.6575 27.8645L22.272 28.0865C21.48 28.5365 20.52 28.5365 19.728 28.0865L19.3425 27.863L18.8775 27.5795C18.7917 27.5255 18.7062 27.471 18.621 27.416L18.0615 27.047C16.7549 26.1667 15.5398 25.1576 14.4345 24.035C12.4335 21.9755 10.5 19.073 10.5 15.5C10.5 12.7152 11.6062 10.0445 13.5754 8.07538C15.5445 6.10625 18.2152 5 21 5ZM21 8C19.0109 8 17.1032 8.79018 15.6967 10.1967C14.2902 11.6032 13.5 13.5109 13.5 15.5C13.5 17.954 14.835 20.1425 16.5855 21.944C17.6378 23.0082 18.8015 23.9562 20.0565 24.7715L20.5665 25.097C20.724 25.1945 20.8695 25.2815 21 25.358L21.435 25.097L21.9435 24.7715C23.1985 23.9562 24.3622 23.0082 25.4145 21.944C27.165 20.144 28.5 17.954 28.5 15.5C28.5 13.5109 27.7098 11.6032 26.3033 10.1967C24.8968 8.79018 22.9891 8 21 8ZM21 11C22.1935 11 23.3381 11.4741 24.182 12.318C25.0259 13.1619 25.5 14.3065 25.5 15.5C25.5 16.6935 25.0259 17.8381 24.182 18.682C23.3381 19.5259 22.1935 20 21 20C19.8065 20 18.6619 19.5259 17.818 18.682C16.9741 17.8381 16.5 16.6935 16.5 15.5C16.5 14.3065 16.9741 13.1619 17.818 12.318C18.6619 11.4741 19.8065 11 21 11ZM21 14C20.6022 14 20.2206 14.158 19.9393 14.4393C19.658 14.7206 19.5 15.1022 19.5 15.5C19.5 15.8978 19.658 16.2794 19.9393 16.5607C20.2206 16.842 20.6022 17 21 17C21.3978 17 21.7794 16.842 22.0607 16.5607C22.342 16.2794 22.5 15.8978 22.5 15.5C22.5 15.1022 22.342 14.7206 22.0607 14.4393C21.7794 14.158 21.3978 14 21 14Z" fill="black"/>
</g>
<defs>
<clipPath id="clip0_538_62">
<rect width="36" height="36" fill="white" transform="translate(3 2)"/>
</clipPath>
</defs>
</svg>
