<svg width="33" height="20" viewBox="0 0 33 20" fill="none" xmlns="http://www.w3.org/2000/svg">
<path id="Vector" d="M31.6724 19.9984H28.0607C26.6942 19.9984 26.2825 18.8693 23.8331 16.3687C21.6923 14.264 20.7882 14.0023 20.2467 14.0023C19.4978 14.0023 19.2935 14.2123 19.2935 15.2638V18.5785C19.2935 19.475 19.0085 20 16.7126 20C14.4852 19.8473 12.3253 19.157 10.4107 17.9859C8.49607 16.8148 6.88157 15.1964 5.70017 13.2641C2.89503 9.7023 0.943232 5.52191 0 1.05539C0 0.502944 0.20584 0.00219169 1.2382 0.00219169H4.84831C5.77617 0.00219169 6.11027 0.423794 6.47445 1.39784C8.22725 6.66059 11.2183 11.2384 12.4327 11.2384C12.8982 11.2384 13.1009 11.0284 13.1009 9.84441V4.42336C12.9473 1.95028 11.66 1.7419 11.66 0.847011C11.6763 0.610915 11.7822 0.390596 11.9551 0.23285C12.1281 0.0751042 12.3545 -0.00764052 12.5863 0.00219169H18.2611C19.037 0.00219169 19.2935 0.396332 19.2935 1.34292V8.66037C19.2935 9.45027 19.626 9.71195 19.8604 9.71195C20.3259 9.71195 20.6837 9.45027 21.5372 8.58122C23.3665 6.30519 24.8611 3.76942 25.9738 1.05377C26.0877 0.727723 26.303 0.448628 26.5869 0.259057C26.8707 0.069486 27.2076 -0.0201552 27.5461 0.00380691H31.1578C32.2408 0.00380691 32.4704 0.556251 32.2408 1.34453C30.9272 4.34649 29.3018 7.19608 27.3925 9.84441C27.003 10.4502 26.8478 10.7651 27.3925 11.4759C27.7503 12.0283 29.017 13.1074 29.8673 14.1331C31.1055 15.3931 32.1331 16.8501 32.9106 18.4461C33.2209 19.4734 32.7032 19.9984 31.6724 19.9984Z" fill="white"/>
</svg>
