<svg width="42" height="42" viewBox="0 0 42 42" fill="none" xmlns="http://www.w3.org/2000/svg">
<path d="M0 10C0 4.47715 4.47715 0 10 0H32C37.5228 0 42 4.47715 42 10V32C42 37.5228 37.5228 42 32 42H10C4.47715 42 0 37.5228 0 32V10Z" fill="#FFF3D3"/>
<path d="M27 5C22.86 5 19.5 8.36 19.5 12.5C19.5 16.64 22.86 20 27 20C31.14 20 34.5 16.64 34.5 12.5C34.5 8.36 31.14 5 27 5ZM27 17C24.51 17 22.5 14.99 22.5 12.5C22.5 10.01 24.51 8 27 8C29.49 8 31.5 10.01 31.5 12.5C31.5 14.99 29.49 17 27 17ZM31.5 26H28.5C28.5 24.2 27.375 22.58 25.695 21.95L16.455 18.5H4.5V35H13.5V32.84L24 35.75L36 32V30.5C36 28.01 33.99 26 31.5 26ZM10.5 32H7.5V21.5H10.5V32ZM23.955 32.615L13.5 29.75V21.5H15.915L24.645 24.755C25.155 24.95 25.5 25.445 25.5 26C25.5 26 22.5 25.925 22.05 25.775L18.48 24.59L17.535 27.44L21.105 28.625C21.87 28.88 22.665 29 23.475 29H31.5C32.085 29 32.61 29.36 32.85 29.855L23.955 32.615Z" fill="#FF9A01"/>
</svg>
