<svg width="28" height="28" viewBox="0 0 28 28" fill="none" xmlns="http://www.w3.org/2000/svg">
<path d="M22.1668 4.66665H19.8335V3.49998C19.8335 3.19056 19.7106 2.89381 19.4918 2.67502C19.273 2.45623 18.9762 2.33331 18.6668 2.33331C18.3574 2.33331 18.0607 2.45623 17.8419 2.67502C17.6231 2.89381 17.5002 3.19056 17.5002 3.49998V4.66665H10.5002V3.49998C10.5002 3.19056 10.3772 2.89381 10.1585 2.67502C9.93966 2.45623 9.64292 2.33331 9.3335 2.33331C9.02408 2.33331 8.72733 2.45623 8.50854 2.67502C8.28975 2.89381 8.16683 3.19056 8.16683 3.49998V4.66665H5.8335C4.90524 4.66665 4.015 5.0354 3.35862 5.69177C2.70225 6.34815 2.3335 7.23839 2.3335 8.16665V22.1666C2.3335 23.0949 2.70225 23.9851 3.35862 24.6415C4.015 25.2979 4.90524 25.6666 5.8335 25.6666H22.1668C23.0951 25.6666 23.9853 25.2979 24.6417 24.6415C25.2981 23.9851 25.6668 23.0949 25.6668 22.1666V8.16665C25.6668 7.23839 25.2981 6.34815 24.6417 5.69177C23.9853 5.0354 23.0951 4.66665 22.1668 4.66665ZM23.3335 22.1666C23.3335 22.4761 23.2106 22.7728 22.9918 22.9916C22.773 23.2104 22.4762 23.3333 22.1668 23.3333H5.8335C5.52408 23.3333 5.22733 23.2104 5.00854 22.9916C4.78975 22.7728 4.66683 22.4761 4.66683 22.1666V14H23.3335V22.1666ZM23.3335 11.6666H4.66683V8.16665C4.66683 7.85723 4.78975 7.56048 5.00854 7.34169C5.22733 7.1229 5.52408 6.99998 5.8335 6.99998H8.16683V8.16665C8.16683 8.47607 8.28975 8.77281 8.50854 8.9916C8.72733 9.2104 9.02408 9.33331 9.3335 9.33331C9.64292 9.33331 9.93966 9.2104 10.1585 8.9916C10.3772 8.77281 10.5002 8.47607 10.5002 8.16665V6.99998H17.5002V8.16665C17.5002 8.47607 17.6231 8.77281 17.8419 8.9916C18.0607 9.2104 18.3574 9.33331 18.6668 9.33331C18.9762 9.33331 19.273 9.2104 19.4918 8.9916C19.7106 8.77281 19.8335 8.47607 19.8335 8.16665V6.99998H22.1668C22.4762 6.99998 22.773 7.1229 22.9918 7.34169C23.2106 7.56048 23.3335 7.85723 23.3335 8.16665V11.6666Z" fill="black"/>
</svg>
