<svg width="248" height="248" viewBox="0 0 248 248" fill="none" xmlns="http://www.w3.org/2000/svg">
<mask id="mask0_516_62" style="mask-type:alpha" maskUnits="userSpaceOnUse" x="12" y="12" width="224" height="224">
<path d="M124 165.333V196.333" stroke="#FFA901" stroke-width="16" stroke-linecap="round"/>
<path d="M160.167 227.333H87.8335L91.3468 209.808C91.8149 207.466 93.0795 205.359 94.9256 203.845C96.7718 202.33 99.0855 201.501 101.473 201.5H146.527C148.915 201.501 151.229 202.33 153.075 203.845C154.921 205.359 156.185 207.466 156.653 209.808L160.167 227.333Z" stroke="#FFA901" stroke-width="16" stroke-linecap="round" stroke-linejoin="round"/>
<path d="M196.333 51.6667L206.14 54.932C216.37 58.342 221.485 60.047 224.409 64.108C227.333 68.169 227.333 73.563 227.333 84.3407V85.095C227.333 93.9817 227.333 98.4353 225.194 102.073C223.055 105.71 219.16 107.87 211.389 112.199L180.833 129.167M51.6667 51.6667L41.8604 54.932C31.6304 58.342 26.5154 60.047 23.5911 64.108C20.6667 68.169 20.6667 73.5733 20.6667 84.3407V85.095C20.6667 93.9817 20.6667 98.4353 22.8057 102.073C24.9447 105.71 28.8404 107.87 36.6111 112.199L67.1667 129.167M115.175 62.2377C119.102 55.18 121.065 51.6667 124 51.6667C126.935 51.6667 128.898 55.18 132.825 62.2377L133.837 64.0563C134.953 66.061 135.511 67.053 136.379 67.7143C137.258 68.3757 138.343 68.6237 140.513 69.1093L142.476 69.564C150.102 71.2897 153.915 72.1473 154.824 75.0613C155.734 77.9857 153.13 81.0237 147.932 87.0997L146.589 88.6703C145.111 90.396 144.367 91.2537 144.036 92.3283C143.706 93.403 143.819 94.55 144.036 96.8543L144.243 98.952C145.028 107.064 145.421 111.125 143.055 112.923C140.678 114.721 137.103 113.078 129.962 109.792L128.123 108.944C126.087 108.014 125.075 107.549 124 107.549C122.925 107.549 121.913 108.014 119.877 108.944L118.038 109.792C110.897 113.088 107.322 114.721 104.945 112.923C102.569 111.125 102.972 107.064 103.757 98.952L103.964 96.8543C104.181 94.55 104.294 93.403 103.964 92.3283C103.633 91.264 102.889 90.396 101.411 88.6703L100.068 87.0997C94.8704 81.0237 92.2664 77.9857 93.1757 75.0613C94.0851 72.1473 97.8981 71.2897 105.524 69.564L107.487 69.1093C109.657 68.6237 110.742 68.386 111.621 67.7143C112.489 67.053 113.047 66.061 114.163 64.0563L115.175 62.2377Z" stroke="#FFA901" stroke-width="16"/>
<path d="M186 227.333H62.0002M175.667 25.3787C183.324 26.8357 187.871 28.4477 191.787 33.2837C196.716 39.339 196.458 45.88 195.931 58.962C194.071 106.01 183.531 165.333 124.011 165.333C64.4905 165.333 53.9402 106.02 52.0595 58.962C51.5428 45.88 51.2845 39.3287 56.1928 33.2837C61.1115 27.2283 66.9912 26.2363 78.7608 24.2523C93.7147 21.8015 108.847 20.6021 124 20.6667C131.42 20.6667 138.322 20.925 144.667 21.3693" stroke="#FFA901" stroke-width="16" stroke-linecap="round"/>
</mask>
<g mask="url(#mask0_516_62)">
<rect x="-9" y="-8" width="257" height="266" fill="url(#paint0_linear_516_62)"/>
</g>
<defs>
<linearGradient id="paint0_linear_516_62" x1="120" y1="9.5" x2="120" y2="235" gradientUnits="userSpaceOnUse">
<stop stop-color="#FF9A01"/>
<stop offset="1" stop-color="#FFB800"/>
</linearGradient>
</defs>
</svg>
