<svg width="24" height="23" viewBox="0 0 24 23" fill="none" xmlns="http://www.w3.org/2000/svg">
<path id="Vector" d="M22.8116 6.62492L22.8117 6.62498L22.8152 6.62109C23.0359 6.37923 23.1555 6.05995 23.1498 5.73063C23.1441 5.4013 23.0135 5.08647 22.7846 4.85263C22.5556 4.6187 22.246 4.48412 21.9208 4.47826C21.5956 4.4724 21.2814 4.59574 21.0444 4.82135L21.0443 4.82128L21.0406 4.82506L12.9877 13.0493L10.3448 10.2589C10.3448 10.2589 10.3447 10.2588 10.3446 10.2587C10.2308 10.1373 10.0945 10.0399 9.94335 9.97217C9.79211 9.90442 9.62913 9.86782 9.46381 9.86458C9.29848 9.86133 9.13423 9.8915 8.98052 9.95327C8.82682 10.015 8.68679 10.1071 8.56841 10.2241C8.45004 10.3411 8.35564 10.4807 8.29049 10.6347C8.22535 10.7887 8.19069 10.9543 8.18843 11.1218C8.18617 11.2894 8.21635 11.4558 8.27731 11.6116C8.33822 11.7672 8.4287 11.9093 8.54371 12.0294C8.54381 12.0295 8.54391 12.0296 8.54401 12.0297L12.0721 15.755C12.1873 15.877 12.3253 15.9746 12.4782 16.0418C12.631 16.109 12.7956 16.1445 12.9623 16.1461C13.1289 16.1477 13.2941 16.1153 13.4482 16.051C13.6023 15.9867 13.7421 15.8918 13.8596 15.772L13.8596 15.7719L22.8116 6.62492ZM3.937 19.6C3.78308 19.6 3.63481 19.5376 3.52499 19.4254C3.41506 19.3131 3.35275 19.1601 3.35275 19V4C3.35275 3.83985 3.41506 3.68689 3.52499 3.5746C3.63481 3.46242 3.78308 3.4 3.937 3.4H17.5206C17.8535 3.4 18.1722 3.26488 18.4066 3.02543C18.6409 2.78609 18.772 2.46214 18.772 2.125C18.772 1.78786 18.6409 1.46391 18.4066 1.22457C18.1722 0.985121 17.8535 0.85 17.5206 0.85H3.937C3.11723 0.85 2.33171 1.18266 1.75304 1.77375C1.17448 2.36472 0.85 3.16558 0.85 4V19C0.85 19.8344 1.17448 20.6353 1.75304 21.2263C2.33171 21.8173 3.11723 22.15 3.937 22.15H18.622C19.4417 22.15 20.2273 21.8173 20.8059 21.2263C21.3845 20.6353 21.709 19.8344 21.709 19V14.125C21.709 13.7879 21.5779 13.4639 21.3436 13.2246C21.1092 12.9851 20.7905 12.85 20.4576 12.85C20.1247 12.85 19.806 12.9851 19.5716 13.2246C19.3373 13.4639 19.2062 13.7879 19.2062 14.125V19C19.2062 19.1601 19.1439 19.3131 19.034 19.4254C18.9242 19.5376 18.7759 19.6 18.622 19.6H3.937Z" fill="black" stroke="black" stroke-width="0.3"/>
</svg>
