<svg width="189" height="189" viewBox="0 0 189 189" fill="none" xmlns="http://www.w3.org/2000/svg">
<g id="ic:outline-emoji-nature">
<path id="Vector" d="M172.777 38.43C172.054 36.3835 170.708 34.6149 168.929 33.372C167.149 32.1292 165.025 31.4746 162.855 31.5H154.35L151.909 23.8612C150.806 19.1362 146.554 15.75 141.75 15.75C136.946 15.75 132.694 19.1362 131.591 23.94L129.15 31.5H120.724C116.235 31.5 112.219 34.2563 110.801 38.43C109.305 42.84 111.116 47.6438 115.211 50.085L122.062 54.18L118.912 63.945C117.101 68.5125 118.597 73.7887 122.456 76.7025C124.268 78.0412 126.472 78.75 128.599 78.75C131.04 78.75 133.403 77.8838 135.371 76.23L141.75 70.7175L148.129 76.23C150.097 77.8838 152.46 78.75 154.901 78.75C157.027 78.75 159.232 78.0412 161.044 76.7025C164.981 73.7887 166.399 68.5125 164.587 63.945L161.516 54.18L168.367 50.085C172.384 47.6438 174.195 42.84 172.777 38.43ZM141.75 55.125C137.419 55.125 133.875 51.5812 133.875 47.25C133.875 42.9188 137.419 39.375 141.75 39.375C146.081 39.375 149.625 42.9188 149.625 47.25C149.625 51.5812 146.081 55.125 141.75 55.125ZM106.234 82.7663C102.847 79.38 98.8312 77.0175 94.5 75.4425V63H86.625V73.8675C85.7588 73.7887 84.8137 73.6313 83.9475 73.6313C75.915 73.6313 67.8037 76.7025 61.6613 82.845L57.7238 86.7825L47.25 82.845C41.3487 80.771 34.8668 81.1138 29.2171 83.7985C23.5674 86.4832 19.2079 91.2923 17.0888 97.1775C14.9625 103.084 15.2775 109.541 18.0337 115.211C19.845 118.991 22.6012 122.062 25.9087 124.346C22.9162 134.978 25.4363 146.79 33.7838 155.138C39.9263 161.28 47.9588 164.351 56.07 164.351C58.9837 164.351 61.8188 163.8 64.6538 163.013C66.9375 166.32 70.0088 169.076 73.7887 170.888C77.0175 172.463 80.4037 173.25 83.8687 173.25C86.5462 173.25 89.2237 172.777 91.8225 171.911C94.757 170.865 97.4562 169.251 99.7656 167.16C102.075 165.069 103.949 162.543 105.28 159.726C106.612 156.91 107.374 153.858 107.525 150.746C107.675 147.635 107.209 144.524 106.155 141.592L102.296 131.355L106.234 127.418C113.085 120.566 115.999 111.353 115.211 102.454H126V94.5788H113.479C111.982 90.2475 109.62 86.2313 106.234 82.7663ZM59.6925 148.208C58.5112 148.522 57.33 148.68 56.07 148.68C51.8963 148.68 47.88 147.026 44.9663 144.034C41.9738 141.041 40.32 137.104 40.32 132.93C40.32 131.67 40.5562 130.41 40.7925 129.229C41.895 129.307 42.9975 129.465 44.1 129.465C50.7938 129.465 57.33 127.89 63.315 125.685C60.795 132.694 59.0625 140.411 59.6925 148.208ZM36.7763 112.534C34.8075 111.825 33.2325 110.408 32.2875 108.517C31.3425 106.627 31.2638 104.501 31.9725 102.533C33.4688 98.4375 37.9575 96.3112 41.895 97.7288L66.78 107.1C57.7237 111.825 46.0688 115.841 36.7763 112.534ZM86.5462 157.028C84.5775 157.736 82.4512 157.658 80.5612 156.712C79.6273 156.268 78.7912 155.643 78.1016 154.872C77.4121 154.101 76.8829 153.201 76.545 152.224C73.2375 142.931 77.2537 131.355 82.0575 122.299L91.35 146.947C92.7675 151.042 90.6412 155.61 86.5462 157.028ZM96.075 114.975L91.2712 102.296C91.2712 102.217 91.1925 102.139 91.1137 102.06L90.6413 101.115C90.486 100.809 90.3013 100.519 90.09 100.249L89.3812 99.54L88.6725 98.8313C88.4362 98.595 88.1212 98.4375 87.8062 98.28C87.4912 98.1225 87.255 97.8863 86.8612 97.8075C86.7825 97.8075 86.7038 97.7287 86.625 97.65L74.025 92.925C77.0133 90.4136 80.84 89.1236 84.7389 89.3135C88.6378 89.5033 92.321 91.1589 95.0512 93.9488C100.8 99.6975 101.115 108.754 96.075 114.975Z" fill="#FF7779"/>
</g>
</svg>
