<svg width="20" height="20" viewBox="0 0 20 20" fill="none" xmlns="http://www.w3.org/2000/svg">
<g id="icon-park-outline:play" clip-path="url(#clip0_548_3068)">
<g id="Group">
<path id="Vector" d="M9.99984 18.3333C14.6023 18.3333 18.3332 14.6025 18.3332 10C18.3332 5.3975 14.6023 1.66666 9.99984 1.66666C5.39734 1.66666 1.6665 5.3975 1.6665 10C1.6665 14.6025 5.39734 18.3333 9.99984 18.3333Z" stroke="black" stroke-width="1.66667" stroke-linejoin="round"/>
<path id="Vector_2" d="M8.3335 10V7.11333L10.8335 8.55667L13.3335 10L10.8335 11.4433L8.3335 12.8867V10Z" stroke="black" stroke-width="1.66667" stroke-linejoin="round"/>
</g>
<path id="Vector 656" d="M10.4263 10.1838C10.2925 10.1671 9.93886 9.69033 9.8308 9.55525C9.68208 9.36936 9.39669 9.02685 9.36763 8.79432C9.27457 8.0499 9.30146 10.2938 9.30146 11.044C9.30146 11.1428 9.27528 11.8875 9.36763 11.7572C9.51831 11.5444 9.64957 11.2966 9.8308 11.1102C10.2107 10.7195 10.6586 10.3613 10.9226 9.88609C11.0219 9.70729 11.2975 9.81005 11.4703 9.77213C11.7929 9.70131 11.1101 9.65205 11.0218 9.6545C10.7883 9.66099 10.4918 9.71806 10.2682 9.78684C9.99619 9.87054 9.95917 10.1882 9.73522 10.3162C9.65108 10.3643 9.69336 10.1515 9.647 10.25C9.56206 10.4305 9.48337 10.7134 9.43379 10.9117" stroke="black" stroke-linecap="round"/>
<path id="Vector 657" d="M10.6248 8.13265C10.6248 8.5462 10.4198 8.8799 10.2939 9.2575" stroke="black" stroke-linecap="round"/>
</g>
<defs>
<clipPath id="clip0_548_3068">
<rect width="20" height="20" fill="white"/>
</clipPath>
</defs>
</svg>
