<svg width="38" height="39" viewBox="0 0 38 39" fill="none" xmlns="http://www.w3.org/2000/svg">
<g id="&#208;&#184;&#208;&#186;&#208;&#190;&#208;&#189;&#208;&#186;&#208;&#176;">
<mask id="mask0_548_3063" style="mask-type:alpha" maskUnits="userSpaceOnUse" x="3" y="4" width="32" height="31">
<g id="Group">
<path id="Vector" d="M19.0002 4.0625C19.5906 4.06253 20.1598 4.28824 20.5968 4.69563C21.0339 5.10302 21.3074 5.66286 21.3641 6.266L21.3752 6.5V32.5C21.3749 33.126 21.1399 33.7278 20.719 34.1809C20.2981 34.6339 19.7235 34.9034 19.1143 34.9335C18.5051 34.9636 17.9079 34.7519 17.4466 34.3425C16.9853 33.933 16.6951 33.3571 16.6362 32.734L16.6252 32.5V6.5C16.6252 5.85353 16.8754 5.23355 17.3208 4.77643C17.7662 4.31931 18.3703 4.0625 19.0002 4.0625ZM12.6668 8.9375C13.2967 8.9375 13.9008 9.19431 14.3462 9.65143C14.7916 10.1085 15.0418 10.7285 15.0418 11.375V27.625C15.0418 28.2715 14.7916 28.8915 14.3462 29.3486C13.9008 29.8057 13.2967 30.0625 12.6668 30.0625C12.0369 30.0625 11.4328 29.8057 10.9875 29.3486C10.5421 28.8915 10.2918 28.2715 10.2918 27.625V11.375C10.2918 10.7285 10.5421 10.1085 10.9875 9.65143C11.4328 9.19431 12.0369 8.9375 12.6668 8.9375ZM25.3335 8.9375C25.9634 8.9375 26.5675 9.19431 27.0129 9.65143C27.4583 10.1085 27.7085 10.7285 27.7085 11.375V27.625C27.7085 28.2715 27.4583 28.8915 27.0129 29.3486C26.5675 29.8057 25.9634 30.0625 25.3335 30.0625C24.7036 30.0625 24.0995 29.8057 23.6541 29.3486C23.2087 28.8915 22.9585 28.2715 22.9585 27.625V11.375C22.9585 10.7285 23.2087 10.1085 23.6541 9.65143C24.0995 9.19431 24.7036 8.9375 25.3335 8.9375ZM6.3335 13.8125C6.96339 13.8125 7.56748 14.0693 8.01288 14.5264C8.45827 14.9835 8.7085 15.6035 8.7085 16.25V22.75C8.7085 23.3965 8.45827 24.0165 8.01288 24.4736C7.56748 24.9307 6.96339 25.1875 6.3335 25.1875C5.70361 25.1875 5.09952 24.9307 4.65412 24.4736C4.20872 24.0165 3.9585 23.3965 3.9585 22.75V16.25C3.9585 15.6035 4.20872 14.9835 4.65412 14.5264C5.09952 14.0693 5.70361 13.8125 6.3335 13.8125ZM31.6668 13.8125C32.2572 13.8125 32.8264 14.0382 33.2635 14.4456C33.7005 14.853 33.9741 15.4129 34.0307 16.016L34.0418 16.25V22.75C34.0415 23.376 33.8066 23.9778 33.3857 24.4309C32.9648 24.8839 32.3902 25.1534 31.781 25.1835C31.1717 25.2136 30.5746 25.0019 30.1133 24.5925C29.6519 24.183 29.3618 23.6071 29.3029 22.984L29.2918 22.75V16.25C29.2918 15.6035 29.5421 14.9835 29.9875 14.5264C30.4329 14.0693 31.0369 13.8125 31.6668 13.8125Z" fill="black"/>
</g>
</mask>
<g mask="url(#mask0_548_3063)">
<rect id="Rectangle 326" x="4" y="4.10526" width="31.3636" height="30.7895" fill="url(#paint0_linear_548_3063)"/>
</g>
</g>
<defs>
<linearGradient id="paint0_linear_548_3063" x1="19.6818" y1="4.10526" x2="19.6818" y2="34.8947" gradientUnits="userSpaceOnUse">
<stop stop-color="#FFA51F"/>
<stop offset="0.953125" stop-color="#FF7779"/>
</linearGradient>
</defs>
</svg>
