<svg width="24" height="23" viewBox="0 0 24 23" fill="none" xmlns="http://www.w3.org/2000/svg">
<path fill-rule="evenodd" clip-rule="evenodd" d="M7.545 3.20794C5.11277 3.20794 3.2 5.13067 3.2 7.61881C3.2 9.15456 3.87208 10.6325 5.27488 12.3696C6.6906 14.1226 8.73589 16.004 11.3071 18.3655L11.3087 18.3669L12.0028 19.0069L12.692 18.3763C12.6925 18.3759 12.693 18.3754 12.6934 18.375C15.2642 16.0089 17.3092 14.1254 18.7249 12.3711C20.1279 10.6326 20.8 9.15457 20.8 7.61881C20.8 5.13067 18.8872 3.20794 16.455 3.20794C15.0692 3.20794 13.7192 3.86674 12.8407 4.91156L12 5.91146L11.1593 4.91156C10.2808 3.86674 8.93076 3.20794 7.545 3.20794ZM1 7.61881C1 3.93033 3.87883 1 7.545 1C9.19425 1 10.7775 1.61924 12 2.64763C13.2225 1.61924 14.8058 1 16.455 1C20.1212 1 23 3.93033 23 7.61881C23 9.87324 21.9891 11.8345 20.4345 13.7608C18.9116 15.6478 16.7591 17.6289 14.2711 19.9188L14.179 20.0036L14.1766 20.0057L11.9972 22L9.82031 19.9929L9.75442 19.9324C7.25569 17.6375 5.09391 15.6521 3.56575 13.7598C2.01092 11.8345 1 9.87326 1 7.61881Z" fill="black" stroke="black" stroke-width="0.5"/>
</svg>
