<svg width="207" height="27" viewBox="0 0 207 27" fill="none" xmlns="http://www.w3.org/2000/svg">
<path opacity="0.7" d="M43.8666 20.28C42.5066 20.28 41.3032 20.0333 40.2566 19.54C39.2166 19.04 38.4066 18.34 37.8266 17.44C37.2532 16.54 36.9666 15.5067 36.9666 14.34C36.9666 13.1733 37.2532 12.14 37.8266 11.24C38.4066 10.34 39.2166 9.64333 40.2566 9.15C41.3032 8.65 42.5066 8.4 43.8666 8.4C45.2266 8.4 46.4266 8.65 47.4666 9.15C48.5132 9.64333 49.3232 10.34 49.8966 11.24C50.4766 12.14 50.7666 13.1733 50.7666 14.34C50.7666 15.5067 50.4766 16.54 49.8966 17.44C49.3232 18.34 48.5132 19.04 47.4666 19.54C46.4266 20.0333 45.2266 20.28 43.8666 20.28ZM43.8666 18.24C44.7332 18.24 45.4866 18.0833 46.1266 17.77C46.7666 17.45 47.2599 16.9967 47.6066 16.41C47.9532 15.8233 48.1266 15.1333 48.1266 14.34C48.1266 13.5533 47.9532 12.8667 47.6066 12.28C47.2599 11.6933 46.7666 11.24 46.1266 10.92C45.4866 10.6 44.7332 10.44 43.8666 10.44C42.9999 10.44 42.2466 10.6 41.6066 10.92C40.9666 11.24 40.4732 11.6933 40.1266 12.28C39.7799 12.8667 39.6066 13.5533 39.6066 14.34C39.6066 15.1333 39.7799 15.8233 40.1266 16.41C40.4732 16.9967 40.9666 17.45 41.6066 17.77C42.2466 18.0833 42.9999 18.24 43.8666 18.24ZM60.78 8.4C61.8733 8.4 62.85 8.65 63.71 9.15C64.57 9.64333 65.24 10.34 65.72 11.24C66.2 12.14 66.44 13.1733 66.44 14.34C66.44 15.5067 66.2 16.54 65.72 17.44C65.24 18.34 64.57 19.04 63.71 19.54C62.85 20.0333 61.8733 20.28 60.78 20.28C59.6533 20.28 58.6333 19.9967 57.72 19.43C56.8133 18.8567 56.0667 18.0533 55.48 17.02V23.3H52.88V8.68H55.48V11.63C56.06 10.61 56.8067 9.81667 57.72 9.25C58.64 8.68333 59.66 8.4 60.78 8.4ZM60.16 18.2C60.86 18.2 61.4867 18.0367 62.04 17.71C62.5933 17.3833 63.0233 16.9267 63.33 16.34C63.6433 15.7533 63.8 15.0867 63.8 14.34C63.8 13.5933 63.6433 12.93 63.33 12.35C63.0233 11.7633 62.5933 11.3067 62.04 10.98C61.4867 10.6467 60.86 10.48 60.16 10.48C59.46 10.48 58.8 10.6433 58.18 10.97C57.5667 11.2967 57.02 11.75 56.54 12.33C56.0667 12.91 55.6867 13.58 55.4 14.34C55.6867 15.1067 56.0667 15.78 56.54 16.36C57.02 16.94 57.5667 17.3933 58.18 17.72C58.8 18.04 59.46 18.2 60.16 18.2ZM70.7227 15.26C70.9493 16.2 71.4593 16.9333 72.2527 17.46C73.0527 17.98 74.0627 18.24 75.2827 18.24C76.156 18.24 77.0427 18.1033 77.9427 17.83C78.8493 17.55 79.6493 17.1667 80.3427 16.68V18.56C79.6427 19.0933 78.796 19.5133 77.8027 19.82C76.816 20.1267 75.8093 20.28 74.7827 20.28C73.4693 20.28 72.2927 20.03 71.2527 19.53C70.2193 19.03 69.4127 18.33 68.8327 17.43C68.2527 16.5233 67.9627 15.4867 67.9627 14.32C67.9627 13.16 68.2393 12.1333 68.7927 11.24C69.346 10.34 70.116 9.64333 71.1027 9.15C72.0893 8.65 73.2093 8.4 74.4627 8.4C75.7093 8.4 76.7993 8.68333 77.7327 9.25C78.6727 9.81667 79.396 10.62 79.9027 11.66C80.4093 12.6933 80.6627 13.8933 80.6627 15.26H70.7227ZM74.4027 10.44C73.7493 10.44 73.1627 10.5567 72.6427 10.79C72.1293 11.0167 71.7027 11.3433 71.3627 11.77C71.0227 12.1967 70.796 12.7 70.6827 13.28H77.9627C77.776 12.38 77.3693 11.6833 76.7427 11.19C76.1227 10.69 75.3427 10.44 74.4027 10.44ZM90.0419 8.4C91.1019 8.4 92.0052 8.61333 92.7519 9.04C93.5052 9.46 94.0785 10.07 94.4719 10.87C94.8652 11.67 95.0619 12.6267 95.0619 13.74V20H92.4619V14.16C92.4619 12.98 92.1819 12.0867 91.6219 11.48C91.0685 10.8667 90.2619 10.56 89.2019 10.56C88.4685 10.56 87.8252 10.7233 87.2719 11.05C86.7185 11.37 86.2919 11.8267 85.9919 12.42C85.6919 13.0133 85.5419 13.7 85.5419 14.48V20H82.9419V12.38L82.2619 8.68H84.8619L85.3119 11.4C85.7785 10.44 86.4219 9.7 87.2419 9.18C88.0685 8.66 89.0019 8.4 90.0419 8.4ZM107.138 8.68H109.898L104.038 20.8C103.152 22.6533 101.752 23.58 99.8383 23.58C98.6183 23.58 97.5116 23.2667 96.5183 22.64V20.66C97.0383 20.9867 97.5283 21.22 97.9883 21.36C98.4483 21.5067 98.9583 21.58 99.5183 21.58C100.092 21.58 100.588 21.45 101.008 21.19C101.428 20.93 101.772 20.5067 102.038 19.92L102.168 19.64H101.138L95.9383 8.68H98.7983L102.948 17.92L107.138 8.68ZM117.089 20.28C115.729 20.28 114.526 20.0333 113.479 19.54C112.439 19.04 111.629 18.34 111.049 17.44C110.476 16.54 110.189 15.5067 110.189 14.34C110.189 13.1733 110.476 12.14 111.049 11.24C111.629 10.34 112.439 9.64333 113.479 9.15C114.526 8.65 115.729 8.4 117.089 8.4C118.449 8.4 119.649 8.65 120.689 9.15C121.736 9.64333 122.546 10.34 123.119 11.24C123.699 12.14 123.989 13.1733 123.989 14.34C123.989 15.5067 123.699 16.54 123.119 17.44C122.546 18.34 121.736 19.04 120.689 19.54C119.649 20.0333 118.449 20.28 117.089 20.28ZM117.089 18.24C117.956 18.24 118.709 18.0833 119.349 17.77C119.989 17.45 120.483 16.9967 120.829 16.41C121.176 15.8233 121.349 15.1333 121.349 14.34C121.349 13.5533 121.176 12.8667 120.829 12.28C120.483 11.6933 119.989 11.24 119.349 10.92C118.709 10.6 117.956 10.44 117.089 10.44C116.223 10.44 115.469 10.6 114.829 10.92C114.189 11.24 113.696 11.6933 113.349 12.28C113.003 12.8667 112.829 13.5533 112.829 14.34C112.829 15.1333 113.003 15.8233 113.349 16.41C113.696 16.9967 114.189 17.45 114.829 17.77C115.469 18.0833 116.223 18.24 117.089 18.24ZM138.503 20H135.903L135.463 17.3C135.016 18.2467 134.389 18.98 133.583 19.5C132.776 20.02 131.863 20.28 130.843 20.28C129.809 20.28 128.926 20.07 128.193 19.65C127.459 19.2233 126.899 18.61 126.513 17.81C126.133 17.01 125.943 16.0533 125.943 14.94V8.68H128.543V14.54C128.543 15.7067 128.809 16.5967 129.343 17.21C129.883 17.8167 130.663 18.12 131.683 18.12C132.403 18.12 133.029 17.96 133.563 17.64C134.103 17.3133 134.516 16.8567 134.803 16.27C135.096 15.6767 135.243 14.9867 135.243 14.2V8.68H137.843V16.32L138.503 20ZM147.671 8.4C147.938 8.4 148.211 8.42 148.491 8.46C148.771 8.49333 149.018 8.54 149.231 8.6V10.88C148.938 10.8 148.618 10.74 148.271 10.7C147.931 10.66 147.604 10.64 147.291 10.64C146.551 10.64 145.894 10.8033 145.321 11.13C144.748 11.4567 144.298 11.94 143.971 12.58C143.651 13.2133 143.491 13.98 143.491 14.88V20H140.891V12.3L140.211 8.68H142.811L143.321 11.8C143.674 10.7467 144.218 9.91667 144.951 9.31C145.691 8.70333 146.598 8.4 147.671 8.4ZM162.315 16.56C162.315 17.3267 162.098 17.99 161.665 18.55C161.232 19.1033 160.578 19.53 159.705 19.83C158.838 20.13 157.762 20.28 156.475 20.28C155.142 20.28 153.978 20.11 152.985 19.77C151.998 19.43 151.232 18.9533 150.685 18.34C150.145 17.72 149.855 17 149.815 16.18H152.455C152.535 16.6133 152.752 16.99 153.105 17.31C153.458 17.63 153.925 17.88 154.505 18.06C155.085 18.2333 155.748 18.32 156.495 18.32C157.582 18.32 158.395 18.19 158.935 17.93C159.482 17.67 159.755 17.2733 159.755 16.74C159.755 16.4933 159.675 16.29 159.515 16.13C159.355 15.97 159.085 15.84 158.705 15.74C158.332 15.64 157.808 15.56 157.135 15.5L154.915 15.3C153.222 15.1533 152.005 14.78 151.265 14.18C150.525 13.58 150.155 12.8333 150.155 11.94C150.155 11.1867 150.392 10.5467 150.865 10.02C151.338 9.48667 152.002 9.08333 152.855 8.81C153.715 8.53667 154.715 8.4 155.855 8.4C157.015 8.4 158.058 8.56333 158.985 8.89C159.912 9.21667 160.648 9.67333 161.195 10.26C161.742 10.84 162.048 11.5067 162.115 12.26H159.475C159.415 11.9333 159.248 11.6267 158.975 11.34C158.708 11.0533 158.302 10.82 157.755 10.64C157.215 10.4533 156.535 10.36 155.715 10.36C154.775 10.36 154.042 10.4833 153.515 10.73C152.995 10.9767 152.735 11.3267 152.735 11.78C152.735 12.0933 152.905 12.35 153.245 12.55C153.585 12.75 154.168 12.8867 154.995 12.96L157.855 13.22C159.475 13.3733 160.622 13.7333 161.295 14.3C161.975 14.86 162.315 15.6133 162.315 16.56ZM180.203 8.4C181.196 8.4 182.046 8.61333 182.753 9.04C183.46 9.46 183.996 10.0733 184.363 10.88C184.736 11.68 184.923 12.6333 184.923 13.74V20H182.323V14.16C182.323 12.98 182.073 12.0867 181.573 11.48C181.073 10.8667 180.343 10.56 179.383 10.56C178.71 10.56 178.12 10.7233 177.613 11.05C177.113 11.37 176.726 11.8267 176.453 12.42C176.18 13.0133 176.043 13.7 176.043 14.48V20H173.443V14.16C173.443 12.98 173.193 12.0867 172.693 11.48C172.193 10.8667 171.463 10.56 170.503 10.56C169.83 10.56 169.24 10.7233 168.733 11.05C168.233 11.37 167.846 11.8267 167.573 12.42C167.3 13.0133 167.163 13.7 167.163 14.48V20H164.563V12.38L163.883 8.68H166.483L166.923 11.34C167.363 10.4 167.966 9.67667 168.733 9.17C169.5 8.65667 170.37 8.4 171.343 8.4C172.456 8.4 173.386 8.67 174.133 9.21C174.886 9.74333 175.42 10.51 175.733 11.51C176.16 10.5167 176.763 9.75 177.543 9.21C178.323 8.67 179.21 8.4 180.203 8.4ZM193.788 20.28C192.428 20.28 191.225 20.0333 190.178 19.54C189.138 19.04 188.328 18.34 187.748 17.44C187.175 16.54 186.888 15.5067 186.888 14.34C186.888 13.1733 187.175 12.14 187.748 11.24C188.328 10.34 189.138 9.64333 190.178 9.15C191.225 8.65 192.428 8.4 193.788 8.4C195.148 8.4 196.348 8.65 197.388 9.15C198.435 9.64333 199.245 10.34 199.818 11.24C200.398 12.14 200.688 13.1733 200.688 14.34C200.688 15.5067 200.398 16.54 199.818 17.44C199.245 18.34 198.435 19.04 197.388 19.54C196.348 20.0333 195.148 20.28 193.788 20.28ZM193.788 18.24C194.655 18.24 195.408 18.0833 196.048 17.77C196.688 17.45 197.182 16.9967 197.528 16.41C197.875 15.8233 198.048 15.1333 198.048 14.34C198.048 13.5533 197.875 12.8667 197.528 12.28C197.182 11.6933 196.688 11.24 196.048 10.92C195.408 10.6 194.655 10.44 193.788 10.44C192.922 10.44 192.168 10.6 191.528 10.92C190.888 11.24 190.395 11.6933 190.048 12.28C189.702 12.8667 189.528 13.5533 189.528 14.34C189.528 15.1333 189.702 15.8233 190.048 16.41C190.395 16.9967 190.888 17.45 191.528 17.77C192.168 18.0833 192.922 18.24 193.788 18.24ZM202.802 20V4.6H205.402V20H202.802Z" fill="black"/>
<g opacity="0.7">
<path d="M23.8333 7.50016C23.8333 6.3085 22.8583 5.3335 21.6667 5.3335H4.33334C3.14167 5.3335 2.16667 6.3085 2.16667 7.50016V20.5002C2.16667 21.6918 3.14167 22.6668 4.33334 22.6668H21.6667C22.8583 22.6668 23.8333 21.6918 23.8333 20.5002V7.50016ZM21.6667 7.50016L13 12.9168L4.33334 7.50016H21.6667ZM21.6667 20.5002H4.33334V9.66683L13 15.0835L21.6667 9.66683V20.5002Z" fill="black"/>
</g>
</svg>
