<svg width="21" height="18" viewBox="0 0 21 18" fill="none" xmlns="http://www.w3.org/2000/svg">
<path id="Vector" d="M21 3.46154C21 3.18462 20.86 2.97692 20.65 2.83846L15.75 0.0692307C15.61 -6.70552e-08 15.54 0 15.4 0C15.26 0 15.19 -6.70552e-08 15.05 0.0692307L10.5 2.63077L5.95 0.0692307C5.81 -6.70552e-08 5.74 0 5.6 0C5.46 0 5.39 -6.70552e-08 5.25 0.0692307L0.35 2.83846C0.14 2.97692 0 3.18462 0 3.46154V17.3077C0 17.7231 0.28 18 0.7 18C0.84 18 0.91 17.9308 1.05 17.9308L5.6 15.3692L10.15 17.9308C10.29 18 10.36 18 10.5 18C10.64 18 10.71 18 10.85 17.9308L15.4 15.3692L19.95 17.9308C20.02 18 20.16 18 20.3 18C20.72 18 21 17.7231 21 17.3077V3.46154ZM1.4 3.87692L4.9 1.86923V14.1231L1.4 16.1308V3.87692ZM9.8 16.1308L6.3 14.1231V1.86923L9.8 3.87692V16.1308ZM14.7 14.1231L11.2 16.1308V3.87692L14.7 1.86923V14.1231ZM16.1 14.1231V1.86923L19.6 3.87692V16.1308L16.1 14.1231Z" fill="black"/>
</svg>
