<svg width="130" height="51" viewBox="0 0 130 51" fill="none" xmlns="http://www.w3.org/2000/svg">
<g id="misis_logo_white_rus 1" opacity="0.7" clip-path="url(#clip0_578_3135)">
<path id="Vector" d="M86.1102 34.0613H86.0923V30.9333H85.4195V35.1493H86.0302L88.3738 32.0213H88.3849V35.1493H89.0562V30.9333H88.4469L86.1102 34.0613ZM89.8834 31.5317H91.1655V35.1452H91.8368V31.5317H93.1189V30.9292H89.8834V31.5317ZM82.7989 34.6026C82.3947 34.5791 82.0147 34.404 81.7368 34.1134C81.459 33.8226 81.3043 33.4382 81.3043 33.0386C81.3043 32.6392 81.459 32.2547 81.7368 31.9639C82.0147 31.6732 82.3947 31.4981 82.7989 31.4746C83.0415 31.4713 83.2818 31.5222 83.5017 31.6235C83.7215 31.7248 83.9154 31.8738 84.0685 32.0594L84.5386 31.68C84.3273 31.4255 84.0608 31.2208 83.7588 31.081C83.4569 30.9412 83.127 30.8698 82.7933 30.8721C81.5113 30.8721 80.5338 31.8364 80.5338 33.0413C80.5338 34.2463 81.5113 35.2092 82.7933 35.2092C83.1319 35.2093 83.4664 35.1355 83.7724 34.9927C84.0786 34.8499 84.3487 34.6419 84.5634 34.3836L84.0933 34.0001C83.9365 34.1905 83.7382 34.3435 83.5131 34.4478C83.2881 34.5522 83.042 34.6051 82.7933 34.6026H82.7989ZM70.9541 32.8808C71.1148 32.8063 71.2505 32.6877 71.3447 32.5391C71.4387 32.3906 71.4875 32.2184 71.4849 32.0431C71.4849 31.4406 70.9651 30.9292 70.2028 30.9292H68.4878V35.1452H70.2882C71.1154 35.1452 71.693 34.5727 71.693 33.9104C71.6861 33.6854 71.6115 33.4675 71.4791 33.2844C71.3466 33.101 71.162 32.9607 70.9486 32.8808H70.9541ZM69.162 31.5018H70.2C70.2786 31.4981 70.357 31.5101 70.4307 31.5372C70.5044 31.5641 70.5717 31.6057 70.6286 31.6592C70.6856 31.7126 70.7308 31.7769 70.7618 31.8482C70.7928 31.9195 70.8087 31.9962 70.8087 32.0737C70.8087 32.1513 70.7928 32.228 70.7618 32.2993C70.7308 32.3706 70.6856 32.4349 70.6286 32.4883C70.5717 32.5418 70.5044 32.5833 70.4307 32.6103C70.357 32.6374 70.2786 32.6494 70.2 32.6456H69.162V31.5018ZM70.291 34.5727H69.162V33.1841H70.291C70.4771 33.1841 70.6556 33.2572 70.7872 33.3869C70.9188 33.5168 70.9927 33.6928 70.9927 33.8764C70.9927 34.06 70.9188 34.2361 70.7872 34.366C70.6556 34.4957 70.4771 34.5686 70.291 34.5686V34.5727ZM79.8197 32.2838C79.8197 31.5317 79.209 30.9238 78.3846 30.9238H76.6752V35.1398H77.348V33.6397H78.3846C79.2146 33.6397 79.8197 33.0372 79.8197 32.2838ZM78.3846 33.0372H77.348V31.5317H78.3846C78.4876 31.5275 78.5903 31.5437 78.6868 31.5796C78.7832 31.6155 78.8711 31.6703 78.9456 31.7406C79.0199 31.8109 79.0792 31.8954 79.1196 31.9888C79.16 32.0823 79.1809 32.1829 79.1809 32.2845C79.1809 32.3862 79.16 32.4867 79.1196 32.5803C79.0792 32.6737 79.0199 32.7582 78.9456 32.8285C78.8711 32.8988 78.7832 32.9536 78.6868 32.9895C78.5903 33.0253 78.4876 33.0416 78.3846 33.0372ZM75.7653 34.5428H73.3528V33.2603H75.2153V32.6578H73.3583V31.5317H75.7019V30.9292H72.687V35.1452H75.7709L75.7653 34.5428ZM66.5578 32.0132H66.5702V35.1412H67.2416V30.9252H66.6309L64.2997 34.0532H64.2804V30.9252H63.609V35.1412H64.2197L66.5578 32.0132ZM56.0034 34.0314C55.838 34.3619 55.6367 34.5849 55.2287 34.5849C55.109 34.584 54.99 34.5681 54.8744 34.5373V35.1153C55.0141 35.1703 55.1637 35.1967 55.3141 35.1928C55.9124 35.1928 56.3205 34.8501 56.6141 34.2109L58.1099 30.9292H57.4206L56.3715 33.2834H56.3591L55.0701 30.9292H54.3257L56.0296 33.9892L56.0034 34.0314ZM59.5877 33.3079H61.6928V35.1452H62.3642V30.9292H61.6928V32.7054H59.5974V30.9292H58.9246V35.1452H59.5974L59.5877 33.3079ZM97.0175 34.5441H94.6064V33.2616H96.4675V32.6592H94.6064V31.5331H96.95V30.9306H93.935V35.1466H97.0175V34.5441ZM98.9475 35.1466H99.6189V31.5317H100.901V30.9292H97.6655V31.5317H98.9475V35.1466ZM71.5483 37.8652H70.6936L68.7704 39.9134V37.8652H68.1018V42.0812H68.7732V40.8164L69.4446 40.0929L70.8493 42.0812H71.6765L69.894 39.6115L71.5483 37.8652ZM65.5501 40.2194H65.5377L64.2418 37.8652H63.4974L65.2068 40.9252L65.182 40.9674C65.0166 41.2979 64.8153 41.5209 64.4059 41.5209C64.2862 41.5198 64.1672 41.5038 64.0516 41.4733V42.0513C64.1915 42.1059 64.3411 42.1322 64.4913 42.1288C65.0896 42.1288 65.4991 41.7861 65.7927 41.1469L67.2885 37.8652H66.5992L65.5501 40.2194ZM127.878 37.4137C128.489 37.4137 128.868 37.0057 128.868 36.5093H128.355C128.349 36.6297 128.296 36.7428 128.207 36.8257C128.119 36.9085 128.001 36.9546 127.879 36.9546C127.757 36.9546 127.64 36.9085 127.551 36.8257C127.462 36.7428 127.409 36.6297 127.403 36.5093H126.89C126.887 37.0044 127.265 37.4137 127.876 37.4137H127.878ZM57.5709 39.6414H55.4589V37.8652H54.7875V42.0812H55.4589V40.2439H57.5653V42.0812H58.2367V37.8652H57.5653L57.5709 39.6414ZM60.7609 37.8652L59.0515 42.0812H59.7407L60.1681 40.9932H62.0609L62.4882 42.0812H63.2024L61.4929 37.8652H60.7609ZM60.408 40.3921L61.0973 38.6241H61.1083L61.7976 40.3921H60.408ZM129.079 37.8625L126.747 40.9905H126.729V37.8625H126.057V42.0785H126.667L129.01 38.9505H129.021V42.0785H129.694V37.8625H129.079ZM73.1681 40.9905H73.1488V37.8625H72.4774V42.0785H73.0881L75.4317 38.9505H75.4441V42.0785H76.1155V37.8625H75.5048L73.1681 40.9905ZM114.412 37.8081C114.119 37.8013 113.827 37.8523 113.554 37.9581C113.281 38.0639 113.032 38.2225 112.821 38.4246C112.611 38.6266 112.444 38.868 112.329 39.1347C112.215 39.4012 112.155 39.6878 112.154 39.9773C112.154 41.1823 113.13 42.1452 114.412 42.1452C115.695 42.1452 116.672 41.1823 116.672 39.9773C116.672 38.7724 115.695 37.8081 114.412 37.8081ZM114.412 41.5427C114.098 41.5427 113.791 41.4507 113.53 41.2786C113.269 41.1064 113.065 40.8616 112.945 40.5753C112.825 40.2889 112.794 39.9738 112.855 39.6698C112.916 39.3659 113.068 39.0868 113.29 38.8677C113.512 38.6486 113.795 38.4995 114.103 38.4393C114.412 38.3789 114.731 38.4102 115.021 38.5289C115.311 38.6478 115.559 38.8488 115.734 39.1067C115.908 39.3644 116.001 39.6675 116.001 39.9773C116.002 40.1831 115.961 40.387 115.881 40.5772C115.802 40.7673 115.685 40.9401 115.537 41.0853C115.389 41.2306 115.214 41.3453 115.021 41.4233C114.828 41.5011 114.621 41.5402 114.412 41.5386V41.5427ZM104.546 37.8081C103.264 37.8081 102.286 38.7724 102.286 39.9773C102.286 41.1823 103.264 42.1452 104.546 42.1452C105.828 42.1452 106.804 41.1823 106.804 39.9773C106.803 39.6878 106.744 39.4012 106.629 39.1347C106.515 38.868 106.347 38.6266 106.137 38.4246C105.927 38.2225 105.678 38.0639 105.405 37.9581C105.131 37.8523 104.839 37.8013 104.546 37.8081ZM104.546 41.5427C104.232 41.543 103.924 41.4513 103.663 41.2793C103.402 41.1072 103.198 40.8625 103.078 40.5763C102.957 40.2899 102.926 39.9747 102.987 39.6706C103.048 39.3667 103.199 39.0873 103.422 38.8682C103.644 38.649 103.927 38.4997 104.235 38.4393C104.543 38.3789 104.863 38.4101 105.153 38.5288C105.443 38.6475 105.691 38.8485 105.866 39.1064C106.04 39.3642 106.133 39.6674 106.133 39.9773C106.134 40.183 106.093 40.3868 106.014 40.5768C105.934 40.7669 105.817 40.9397 105.67 41.0848C105.522 41.23 105.347 41.3449 105.154 41.4229C104.961 41.5008 104.754 41.5401 104.546 41.5386V41.5427ZM117.642 42.0867H118.314V38.4677H120.391V37.8652H117.644L117.642 42.0867ZM121.872 40.9987H121.854V37.8707H121.183V42.0867H121.793L124.137 38.9587H124.149V42.0867H124.821V37.8707H124.21L121.872 40.9987ZM108.315 39.1314C108.265 41.1483 107.948 41.51 107.551 41.51C107.437 41.5083 107.324 41.4881 107.216 41.4502V42.0527C107.34 42.1121 107.476 42.1427 107.613 42.1424C108.413 42.1424 108.913 41.5984 108.974 39.1314L108.992 38.4691H110.508V42.0826H111.18V37.8666H108.347L108.315 39.1314ZM85.2858 38.4691H86.5748V42.0826H87.2462V38.4677H88.5282V37.8652H85.2872L85.2858 38.4691ZM79.8197 40.9973H79.8004V37.8693H79.1305V42.0853H79.7412L82.0848 38.9573H82.0972V42.0853H82.7685V37.8693H82.1578L79.8197 40.9973ZM96.9141 37.8693H96.127L95.0944 39.3925H95.082L94.0508 37.8693H93.2512L94.6546 39.893L93.1285 42.0853H93.9157L95.0696 40.3799H95.082L96.2248 42.0812H97.0258L95.4983 39.8699L96.9141 37.8693ZM90.0212 40.2004H91.8837V39.5979H90.0212V38.4718H92.3648V37.8693H89.3444V42.0853H92.4269V41.4801H90.0212V40.2004ZM100.651 39.6455H98.5395V37.8652H97.8681V42.0812H98.5395V40.2439H100.646V42.0812H101.317V37.8652H100.646L100.651 39.6455Z" fill="black"/>
<path id="Vector_2" d="M25.8484 19.924C24.7305 19.924 23.6377 20.2511 22.7082 20.8638C21.7787 21.4764 21.0542 22.3472 20.6264 23.3662C20.1987 24.3851 20.0867 25.5061 20.3048 26.5879C20.5229 27.6695 21.0612 28.663 21.8517 29.4428C22.6422 30.2226 23.6492 30.7537 24.7456 30.9688C25.8422 31.184 26.9785 31.0736 28.0113 30.6515C29.0442 30.2295 29.9269 29.5149 30.5479 28.5978C31.169 27.6809 31.5005 26.6028 31.5005 25.5C31.5005 24.0211 30.905 22.6029 29.845 21.5572C28.785 20.5115 27.3474 19.924 25.8484 19.924ZM5.7211 25.5C5.7211 20.2338 7.84165 15.1834 11.6162 11.4597C15.3909 7.73597 20.5102 5.644 25.8484 5.644V0C11.5801 0 0 11.424 0 25.5C0 39.576 11.5801 51 25.8484 51V45.356C20.5102 45.356 15.3909 43.2641 11.6162 39.5404C7.84165 35.8166 5.7211 30.7662 5.7211 25.5ZM25.8484 32.572C24.4305 32.572 23.0446 32.1572 21.8656 31.3801C20.6868 30.6031 19.768 29.4985 19.2254 28.2064C18.6829 26.9141 18.5409 25.4921 18.8175 24.1203C19.0941 22.7484 19.7768 21.4884 20.7793 20.4993C21.782 19.5103 23.0592 18.8368 24.4498 18.5639C25.8404 18.291 27.2818 18.4311 28.5917 18.9663C29.9015 19.5016 31.0212 20.408 31.8088 21.571C32.5965 22.734 33.017 24.1012 33.017 25.5H38.7381C38.7381 22.985 37.9821 20.5265 36.5657 18.4353C35.1494 16.3442 33.1364 14.7144 30.7811 13.7519C28.4257 12.7895 25.834 12.5377 23.3337 13.0283C20.8334 13.519 18.5366 14.73 16.734 16.5085C14.9313 18.2868 13.7037 20.5526 13.2063 23.0192C12.709 25.4859 12.9642 28.0427 13.9398 30.3662C14.9154 32.6898 16.5675 34.6757 18.6872 36.0729C20.8069 37.4702 23.2989 38.216 25.8484 38.216V32.572ZM25.8484 5.644V11.288C29.6691 11.288 33.3334 12.7853 36.0351 15.4506C38.7367 18.1159 40.2545 21.7308 40.2545 25.5C40.2545 29.2692 38.7367 32.8841 36.0351 35.5495C33.3334 38.2146 29.6691 39.712 25.8484 39.712V45.356C31.1865 45.356 36.3058 43.2641 40.0805 39.5404C43.8551 35.8166 45.9756 30.7662 45.9756 25.5C45.9756 20.2338 43.8551 15.1834 40.0805 11.4597C36.3058 7.73597 31.1865 5.644 25.8484 5.644ZM62.5489 18.836L55.8504 11.7327H54.7985V25.5H57.7363V17.748L62.1381 22.304H62.9652L67.367 17.7453V25.4973H70.3048V11.7382H69.246L62.5489 18.836ZM75.9487 20.0709V11.9H73.0123V25.6618H74.1482L82.7147 17.325V25.5H85.6511V11.7382H84.5152L75.9487 20.0709ZM94.7153 14.3752C96.2414 14.3752 97.602 15.1912 98.4953 16.5294L100.563 14.5574C99.8949 13.6431 99.0166 12.8978 98 12.3827C96.9836 11.8676 95.858 11.5974 94.7153 11.594C90.7477 11.594 87.4088 14.6812 87.4088 18.6946C87.4088 22.7079 90.7546 25.7951 94.7153 25.7951C95.858 25.7917 96.9836 25.5215 98 25.0065C99.0166 24.4913 99.8949 23.746 100.563 22.8317L98.4953 20.8597C97.602 22.1979 96.2414 23.0139 94.7153 23.0139C92.3455 23.0139 90.4155 21.2214 90.4155 18.6946C90.4155 16.1677 92.3455 14.3806 94.7153 14.3806V14.3752ZM105.379 20.0709V11.9H102.441V25.6618H103.578L112.147 17.325V25.5H115.085V11.7382H113.948L105.379 20.0709ZM124.145 23.0139C121.774 23.0139 119.845 21.2214 119.845 18.6946C119.845 16.1677 121.775 14.3752 124.145 14.3752C125.671 14.3752 127.032 15.1912 127.924 16.5294L129.992 14.5574C129.323 13.6432 128.445 12.8981 127.428 12.383C126.412 11.8679 125.287 11.5976 124.144 11.594C120.175 11.594 116.829 14.6812 116.829 18.6946C116.829 22.7079 120.175 25.7951 124.144 25.7951C125.287 25.7935 126.414 25.5245 127.432 25.0104C128.45 24.4962 129.33 23.7514 130 22.8371L127.932 20.8651C127.032 22.2034 125.671 23.0194 124.145 23.0194V23.0139Z" fill="black"/>
</g>
<defs>
<clipPath id="clip0_578_3135">
<rect width="130" height="51" fill="white"/>
</clipPath>
</defs>
</svg>
