<svg width="678" height="196" viewBox="0 0 678 196" fill="none" xmlns="http://www.w3.org/2000/svg">
<path d="M675.877 12.0292C678.128 8.55171 677.133 3.90834 673.655 1.65799C670.178 -0.59236 665.534 0.402465 663.284 3.88L675.877 12.0292ZM9.61746 105.671C34.6706 85.8219 57.8757 72.3434 79.5214 63.8442L74.0392 49.882C50.7645 59.0207 26.2866 73.3271 0.30238 93.9143L9.61746 105.671ZM107.273 55.3848C164.474 43.0564 212.508 64.8296 258.914 95.5016L267.185 82.988C219.768 51.648 167.356 27.091 104.112 40.7215L107.273 55.3848ZM283.722 112.676C307.538 129.739 331.468 148.063 355.666 162.938C379.959 177.871 405.226 189.796 432.264 193.964L434.549 179.139C410.323 175.405 387.024 164.606 363.521 150.159C339.924 135.654 316.828 117.943 292.458 100.483L283.722 112.676ZM464.393 195.05C507.855 191.199 554.232 165.271 606.987 105.05L595.704 95.166C544.241 153.912 501.134 176.736 463.069 180.109L464.393 195.05ZM626.793 81.1959C642.514 61.2928 658.847 38.3467 675.877 12.0292L663.284 3.88C646.465 29.8703 630.404 52.4239 615.022 71.8986L626.793 81.1959Z" fill="#FF7779"/>
</svg>
