<svg width="42" height="42" viewBox="0 0 42 42" fill="none" xmlns="http://www.w3.org/2000/svg">
<rect width="42" height="42" rx="10" fill="#DBF0EB"/>
<path d="M7.31714 35.8537C7.31714 33.8589 7.31714 32.8622 7.93743 32.2447C8.55631 31.6244 9.55301 31.6244 11.5464 31.6244C13.5412 31.6244 14.5379 31.6244 15.1554 32.2447C15.7757 32.8636 15.7757 33.8603 15.7757 35.8537V23.1659C15.7757 21.171 15.7757 20.1743 16.396 19.5569C17.0149 18.9366 18.0115 18.9366 20.0049 18.9366H22.8245C24.8193 18.9366 25.816 18.9366 26.4334 19.5569C27.0537 20.1758 27.0537 21.1725 27.0537 23.1659V35.8537V31.6244C27.0537 29.6296 27.0537 28.6329 27.674 28.0154C28.2929 27.3951 29.2896 27.3951 31.283 27.3951C33.2778 27.3951 34.2745 27.3951 34.892 28.0154C35.5123 28.6343 35.5123 29.631 35.5123 31.6244V35.8537" stroke="#444444" stroke-width="3" stroke-linecap="round"/>
<path d="M20.2105 7.44218C20.7463 6.47932 21.0141 6 21.4145 6C21.8148 6 22.0827 6.47932 22.6184 7.44218L22.7566 7.6903C22.9088 7.96379 22.9849 8.09913 23.1034 8.18935C23.2232 8.27958 23.3712 8.31341 23.6673 8.37967L23.9351 8.4417C24.9755 8.67713 25.4957 8.79414 25.6198 9.19169C25.7438 9.59065 25.3886 10.0051 24.6795 10.8341L24.4962 11.0483C24.2946 11.2838 24.1931 11.4008 24.148 11.5474C24.1029 11.694 24.1184 11.8505 24.148 12.1649L24.1762 12.451C24.2833 13.5577 24.3369 14.1117 24.0141 14.357C23.6898 14.6037 23.202 14.3782 22.2279 13.9299L21.977 13.8143C21.6992 13.6874 21.5611 13.6226 21.4145 13.6226C21.2679 13.6226 21.1297 13.6874 20.852 13.8143L20.601 13.9299C19.6269 14.3782 19.1391 14.6037 18.8149 14.357C18.4906 14.1117 18.5456 13.5577 18.6528 12.451L18.681 12.1649C18.7106 11.8505 18.7261 11.694 18.681 11.5474C18.6358 11.4022 18.5343 11.2838 18.3328 11.0483L18.1495 10.8341C17.4404 10.0051 17.0851 9.59065 17.2092 9.19169C17.3332 8.79414 17.8534 8.67713 18.8938 8.4417L19.1617 8.37967C19.4577 8.31341 19.6058 8.28099 19.7256 8.18935C19.844 8.09913 19.9201 7.96379 20.0724 7.6903L20.2105 7.44218Z" stroke="#444444" stroke-width="3"/>
<rect x="4" y="35.8537" width="34" height="4.14634" fill="#DBF0EB"/>
</svg>
