<svg width="41" height="41" viewBox="0 0 41 41" fill="none" xmlns="http://www.w3.org/2000/svg">
<g id="Group">
<path id="Vector" d="M5.61463 24.7679C3.27357 21.8003 2.00025 18.1308 2 14.351V5.07246C5.90134 3.05363 10.23 2 14.6227 2C19.0155 2 23.3441 3.05363 27.2455 5.07246" stroke="black" stroke-width="3.5" stroke-linecap="round" stroke-linejoin="round"/>
<path id="Vector_2" d="M22.7476 38.8279C21.7516 39.053 20.7164 39.0389 19.727 38.7865C18.7375 38.5342 17.8219 38.051 17.0553 37.3764C14.392 35.0805 12.4198 32.089 11.3593 28.7365C10.2987 25.3839 10.1916 21.8024 11.0499 18.3925L13.1276 10.0817C17.6402 8.93724 22.3662 8.93104 26.8818 10.0636C31.3973 11.1963 35.561 13.4322 38.9992 16.5709L36.9215 24.8533C36.084 28.2663 34.3155 31.3799 31.813 33.8472C29.3104 36.3145 26.1722 38.0388 22.7476 38.8279Z" stroke="black" stroke-width="3.5" stroke-linecap="round" stroke-linejoin="round"/>
<path id="Vector_3" d="M16.543 19.1045C16.902 18.7287 17.3571 18.4585 17.8588 18.323C18.3605 18.1875 18.8898 18.192 19.3891 18.336C19.8779 18.451 20.3275 18.6932 20.6925 19.0381C21.0574 19.383 21.3245 19.8183 21.4668 20.2998M27.8138 21.9222C28.1613 21.5487 28.6029 21.2755 29.0922 21.1311C29.5816 20.9868 30.1007 20.9767 30.5953 21.1018C31.0899 21.2269 31.5418 21.4826 31.9037 21.8423C32.2655 22.2019 32.5241 22.6522 32.6522 23.146" stroke="black" stroke-width="3.5" stroke-linecap="round" stroke-linejoin="round"/>
</g>
</svg>
