<svg width="55" height="55" viewBox="0 0 55 55" fill="none" xmlns="http://www.w3.org/2000/svg">
<g id="ri:tree-line">
<path id="Vector" d="M13.25 16.0413C13.2493 17.1114 13.3689 18.1777 13.6064 19.2202C11.065 20.4926 9.00255 22.559 7.73565 25.1114C6.40754 27.7872 6.03349 30.8363 6.67547 33.7537C7.31745 36.6711 8.93692 39.2816 11.2656 41.1527C13.5941 43.0237 16.4921 44.043 19.4792 44.0417C19.4792 44.0417 19.4793 44.0417 19.4794 44.0417H24.7083V50.4167V50.9167H25.2083H29.7917H30.2917V50.4167V44.0417H34.375C37.5238 44.042 40.5841 42.9993 43.0777 41.0765C45.5713 39.1537 47.3579 36.4591 48.1582 33.4137C48.9586 30.3683 48.7277 27.1435 47.5016 24.2431C46.319 21.4456 44.2747 19.1018 41.6704 17.5501C41.8641 15.7253 41.7036 13.8792 41.1966 12.1135C40.6588 10.2406 39.7425 8.49784 38.5046 6.99302C37.2666 5.48821 35.7331 4.25328 33.9989 3.36459C32.2648 2.47589 30.3668 1.95231 28.4222 1.8262C26.4777 1.70009 24.528 1.97413 22.6935 2.63139C20.8591 3.28865 19.179 4.31516 17.757 5.64747C16.335 6.97978 15.2014 8.58957 14.4262 10.3774C13.651 12.1651 13.2507 14.0928 13.25 16.0413ZM13.25 16.0413L13.75 16.0417L13.25 16.0415C13.25 16.0415 13.25 16.0414 13.25 16.0413ZM34.3755 38.4584H34.375H19.4801C17.7719 38.455 16.1157 37.8707 14.7836 36.8013C13.4516 35.7319 12.523 34.2412 12.1505 32.5741C11.7779 30.907 11.9837 29.1628 12.7338 27.6281C13.422 26.2202 14.5308 25.0656 15.9016 24.3207C16.7518 25.5098 17.7796 26.5625 18.9497 27.4415L19.3498 27.742L19.65 27.3417L22.4 23.675L22.7 23.275L22.3 22.975C21.1182 22.0887 20.1825 20.9149 19.5819 19.5652C18.9813 18.2155 18.7357 16.7347 18.8684 15.2634C19.001 13.7921 19.5076 12.3791 20.3399 11.1586C21.1723 9.93811 22.3028 8.95066 23.6242 8.28999C24.9455 7.62933 26.4138 7.31739 27.8896 7.38379C29.3654 7.45019 30.7997 7.89273 32.0563 8.66939C33.313 9.44605 34.3503 10.531 35.0697 11.8213C35.789 13.1116 36.1667 14.5644 36.1667 16.0417C36.1667 17.2949 35.8303 18.4811 35.471 19.7478C35.4135 19.9507 35.3553 20.1557 35.2979 20.3634L35.1776 20.7985L35.5981 20.9625L37.5254 21.7142L37.5259 21.7144C39.4104 22.4473 40.9794 23.8161 41.9612 25.5838C42.9429 27.3516 43.2757 29.407 42.9018 31.3942C42.5279 33.3814 41.4709 35.1753 39.9138 36.4654C38.3568 37.7555 36.3976 38.4605 34.3755 38.4584Z" fill="black" stroke="black"/>
</g>
</svg>
