<svg width="38" height="36" viewBox="0 0 38 36" fill="none" xmlns="http://www.w3.org/2000/svg">
<path id="Vector" d="M19 15.1579V32.2105H30.4V15.1579H19ZM34.2 36H0V22.7368C0 21.7318 0.400356 20.7679 1.11299 20.0573C1.82563 19.3466 2.79218 18.9474 3.8 18.9474H7.6C8.60782 18.9474 9.57437 19.3466 10.287 20.0573C10.9996 20.7679 11.4 21.7318 11.4 22.7368H15.2V15.1579C14.1922 15.1579 13.2256 14.7586 12.513 14.048C11.8004 13.3373 11.4 12.3735 11.4 11.3684V3.78947C11.4 2.78444 11.8004 1.82058 12.513 1.10991C13.2256 0.399247 14.1922 0 15.2 0L19 0C20.0078 0 20.9744 0.399247 21.687 1.10991C22.3996 1.82058 22.8 2.78444 22.8 3.78947H26.6C26.6 2.78444 27.0004 1.82058 27.713 1.10991C28.4256 0.399247 29.3922 0 30.4 0L34.2 0C35.2078 0 36.1744 0.399247 36.887 1.10991C37.5996 1.82058 38 2.78444 38 3.78947V11.3684C38 12.3735 37.5996 13.3373 36.887 14.048C36.1744 14.7586 35.2078 15.1579 34.2 15.1579V36ZM15.2 32.2105V26.5263H7.6V22.7368H3.8V32.2105H15.2ZM15.2 3.78947V11.3684H34.2V3.78947H30.4V7.57895H19V3.78947H15.2ZM24.7 24.6316C25.7078 24.6316 26.6744 25.0308 27.387 25.7415C28.0996 26.4522 28.5 27.416 28.5 28.4211V34.1053H20.9V28.4211C20.9 27.416 21.3004 26.4522 22.013 25.7415C22.7256 25.0308 23.6922 24.6316 24.7 24.6316ZM22.8 17.0526H26.6C27.1039 17.0526 27.5872 17.2523 27.9435 17.6076C28.2998 17.9629 28.5 18.4449 28.5 18.9474C28.5 19.4499 28.2998 19.9318 27.9435 20.2871C27.5872 20.6425 27.1039 20.8421 26.6 20.8421H22.8C22.2961 20.8421 21.8128 20.6425 21.4565 20.2871C21.1002 19.9318 20.9 19.4499 20.9 18.9474C20.9 18.4449 21.1002 17.9629 21.4565 17.6076C21.8128 17.2523 22.2961 17.0526 22.8 17.0526Z" fill="black"/>
</svg>
