<svg width="1316" height="1048" viewBox="0 0 1316 1048" fill="none" xmlns="http://www.w3.org/2000/svg">
<path d="M22.5 1030.09C30.463 1028.75 38.26 1026.47 45.7252 1023.3L45.8656 1023.24L46.007 1023.18C84.0554 1007.8 117.908 986.464 146.643 957.672L146.645 957.671C163.879 940.406 177.464 921.565 185.753 899.735C193.151 879.824 197.134 858.806 197.534 837.567L197.535 837.504L197.537 837.44C197.825 826.599 197.694 816.107 197.559 805.255C197.481 799.001 197.401 792.628 197.399 785.999C197.056 772.649 198.094 759.299 200.498 746.162L200.527 746.007L200.558 745.853C204.515 726.342 211.47 706.556 225.636 689.36C235.032 677.442 247.601 668.419 261.898 663.332C269.741 660.437 278.168 659.481 286.461 660.546C294.736 661.609 302.63 664.652 309.476 669.415C318.565 675.521 326.131 683.632 331.593 693.123C334.489 698.033 337.248 702.974 339.899 707.726L340.01 707.925C342.667 712.687 345.217 717.257 347.855 721.747L347.86 721.755L347.864 721.762C349.893 725.222 351.791 728.551 353.629 731.771C358.663 740.597 363.235 748.61 368.736 756.292C404.108 805.651 458.581 818.745 512.455 794.322L512.458 794.32C551.487 776.636 577.746 747.44 592.395 706.762L592.412 706.715L592.429 706.668C598.709 689.557 600.861 671.203 598.71 653.102C596.16 632.317 586.94 614.242 572.173 597.99L572.152 597.966L572.13 597.942C561.045 585.644 547.922 575.552 533.222 564.51C510.933 547.911 488.651 529.625 469.936 506.755C460.951 495.774 451.822 483.209 445.86 468.075L445.836 468.015L445.813 467.955C440.411 453.922 436.821 437.721 440.699 420.043C443.6 406.478 449.703 393.803 458.497 383.076L458.513 383.057L458.529 383.038C477.918 359.533 503.1 346.185 530.923 339.418C555.844 333.232 582.152 336.108 605.15 347.533L605.17 347.543L605.19 347.553C619.614 354.768 632.637 364.497 643.648 376.282C659.474 392.618 670.637 411.537 679.773 430.477C682.627 436.358 685.085 441.629 687.484 446.775C690.323 452.862 693.079 458.774 696.313 465.307L696.371 465.426L696.428 465.545C702.355 478.017 709.897 489.653 718.861 500.152C737.716 521.537 760.618 533.56 788.581 535.727C808.967 537.292 828.725 532.929 848.321 524.133L848.342 524.124L848.363 524.114C873.473 512.926 893.947 495.342 911.016 472.821L911.054 472.771L911.093 472.721C932.544 444.863 946.171 411.777 950.564 376.883L950.565 376.875L950.566 376.866C953.864 350.894 950.562 324.51 940.967 300.153L940.945 300.097L940.924 300.041C935.604 286.241 929.618 272.876 923.432 259.061C921.006 253.644 918.55 248.159 916.09 242.551C909.308 227.291 902.254 210.977 897.503 193.45C888.77 161.687 894.303 131.689 916.191 105.895L916.202 105.883L916.212 105.871C930.401 89.2165 948.587 76.4436 969.064 68.7513C986.242 61.8897 1004.97 59.8411 1023.22 62.8279L1023.32 62.8431L1023.41 62.8593C1063.27 69.8478 1089.06 94.9486 1101.54 131.548L1101.54 131.554C1108.99 153.445 1105.82 174.791 1100.56 193.279L1100.56 193.291C1094.91 213.121 1086.28 231.618 1078.29 248.74C1077.85 249.672 1077.42 250.6 1076.99 251.523L1076.99 251.53L1076.98 251.537C1064.67 277.897 1054.42 304.035 1048.76 331.457C1041.8 365.241 1040.49 398.253 1048.16 430.765C1059.09 477.132 1086.22 508.474 1130.62 525.133C1160.58 536.271 1191.7 536.344 1223.78 528.334C1247.21 522.463 1268.67 511.078 1290.48 497.226V497.128V496.961V496.793V496.625V496.458V496.29V496.123V495.955V495.788V495.62V495.452V495.285V495.117V494.95V494.782V494.615V494.447V494.279V494.112V493.944V493.777V493.609V493.441V493.274V493.106V492.939V492.771V492.604V492.436V492.268V492.101V491.933V491.766V491.598V491.43V491.263V491.095V490.928V490.76V490.592V490.425V490.257V490.09V489.922V489.754V489.587V489.419V489.252V489.084V488.916V488.749V488.581V488.414V488.246V488.078V487.911V487.743V487.576V487.408V487.24V487.073V486.905V486.738V486.57V486.402V486.235V486.067V485.9V485.732V485.564V485.397V485.229V485.062V484.894V484.726V484.559V484.391V484.224V484.056V483.888V483.721V483.553V483.385V483.218V483.05V482.883V482.715V482.547V482.38V482.212V482.045V481.877V481.709V481.542V481.374V481.206V481.039V480.871V480.704V480.536V480.368V480.201V480.033V479.866V479.698V479.53V479.363V479.195V479.027V478.86V478.692V478.525V478.357V478.189V478.022V477.854V477.687V477.519V477.351V477.184V477.016V476.848V476.681V476.513V476.346V476.178V476.01V475.843V475.675V475.507V475.34V475.172V475.005V474.837V474.669V474.502V474.334V474.167V473.999V473.831V473.664V473.496V473.328V473.161V472.993V472.826V472.658V472.49V472.323V472.155V471.988V471.82V471.652V471.485V471.317V471.149V470.982V470.814V470.647V470.479V470.311V470.144V469.976V469.809V469.641V469.473V469.306V469.138V468.971V468.803V468.635V468.468V468.3V468.132V467.965V467.797V467.63V467.462V467.294V467.127V466.959V466.792V466.624V466.456V466.289V466.121V465.954V465.786V465.618V465.451V465.283V465.116V464.948V464.78V464.613V464.445V464.278V464.11V463.942V463.775V463.607V463.44V463.272V463.104V462.937V462.769V462.602V462.434V462.266V462.099V461.931V461.764V461.596V461.429V461.261V461.093V460.926V460.758V460.591V460.423V460.255V460.088V459.92V459.753V459.585V459.418V459.25V459.082V458.915V458.747V458.58V458.412V458.244V458.077V457.909V457.742V457.574V457.407V457.239V457.071V456.904V456.736V456.569V456.401V456.234V456.066V455.898V455.731V455.563V455.396V455.228V455.061V454.893V454.726V454.558V454.39V454.223V454.055V453.888V453.72V453.553V453.385V453.218V453.05V452.883V452.715V452.547V452.38V452.212V452.045V451.877V451.71V451.542V451.375V451.207V451.04V450.872V450.704V450.537V450.369V450.202V450.034V449.867V449.699V449.532V449.364V449.197V449.029V448.862V448.694V448.527V448.359V448.192V448.024V447.857V447.689V447.522V447.354V447.187V447.019V446.852V446.684V446.517V446.349V446.182V446.014V445.846V445.679V445.512V445.344V445.177V445.009V444.842V444.674V444.507V444.339V444.172V444.004V443.837V443.669V443.502V443.334V443.266C1276.34 453.133 1261.75 462.327 1246.74 470.816L1246.62 470.882L1246.5 470.946C1222.45 484.037 1195.54 491.927 1165.67 487.691L1165.66 487.689L1165.65 487.688C1137.59 483.673 1105.37 467.161 1093.79 427.453L1093.79 427.451C1086.95 403.981 1086.62 380.468 1089.85 357.595L1089.85 357.55L1089.86 357.505C1093.55 332.294 1100.77 307.728 1111.29 284.527C1120.82 263.131 1130.18 241.93 1138.82 220.463L1138.83 220.444L1138.84 220.425C1148.7 196.098 1152.47 169.726 1149.82 143.606L1149.82 143.592L1149.82 143.577C1146.79 113.225 1133.66 84.7711 1112.53 62.7824L1112.46 62.7097L1112.4 62.6361C1076.45 24.2928 1032.7 10.1419 981.03 19.0878C938.453 26.4802 903.847 48.2557 877.079 82.8193C848.551 119.863 842.172 161.019 854.413 206.708L854.415 206.715L854.417 206.723C860.022 227.718 868.966 247.593 878.538 268.86C878.935 269.743 879.334 270.628 879.733 271.515L879.74 271.531L879.746 271.546C886.394 286.407 893.122 301.634 899.183 317.212C906.114 334.943 908.311 354.172 905.561 373.009C901.422 402.508 888.849 430.182 869.353 452.698C854.367 470.184 835.424 483.973 810.849 489.301L810.814 489.309L810.778 489.316C799.948 491.615 788.73 491.697 778.013 488.163C767.129 484.573 757.864 477.61 750.641 467.663L750.537 467.52L750.436 467.374C743.867 457.908 738.003 447.973 732.891 437.647C729.753 431.601 726.906 425.485 724.227 419.702L723.857 418.904C721.245 413.268 718.786 407.96 716.148 402.781L716.144 402.772L716.139 402.762C700.776 372.498 681.236 346.372 655.122 326.273L655.107 326.262L655.092 326.25C623.544 301.856 588.862 289.82 549.284 291.8L549.267 291.801L549.25 291.802C527.486 292.845 506.132 298.105 486.371 307.29L486.341 307.304L486.312 307.318C457.125 320.744 433.11 339.158 416 365.218C403.572 384.251 396.001 404.514 394.529 426.587L394.528 426.591C392.867 451.427 398.467 474.882 410.037 497.654L410.038 497.658C420.796 518.846 435.806 537.125 453.45 555.462C469.769 572.422 488.412 586.784 508.235 602.055C509.206 602.802 510.18 603.552 511.156 604.305C520.698 611.657 529.806 619.555 538.434 627.961L22.5 1030.09ZM22.5 1030.09V983.4C49.7214 975.358 72.7235 960.315 93.383 944.671L93.5235 944.564L93.6617 944.455C103.211 936.898 112.194 928.65 120.538 919.779C140.642 899.161 150.174 873.683 151.871 846.476L151.872 846.46L151.872 846.445C153.011 827.632 152.866 808.833 152.492 790.574C151.78 753.889 157.056 719.681 173.14 688.273L173.143 688.268C188.095 659.045 209.295 637.267 238.633 624.169L238.775 624.106L238.915 624.04C255.208 616.394 273.312 613.46 291.183 615.565C309.054 617.672 325.981 624.735 340.054 635.959L340.196 636.072L340.34 636.182C352.459 645.419 362.636 656.959 370.287 670.141L370.315 670.189L370.344 670.238C373.921 676.305 377.362 682.501 380.903 688.901L381.506 689.99C384.803 695.949 388.2 702.09 391.74 708.174C396.67 716.988 402.095 725.515 407.99 733.715C417.207 746.741 430.829 755.991 446.338 759.748L446.526 759.794L446.715 759.835C459.595 762.638 473.01 761.645 485.336 756.978C521.504 743.714 544.876 717.346 553.306 679.613C557.574 660.729 553.051 642.16 538.436 627.962L22.5 1030.09Z" fill="#E8E8E8"/>
<path d="M22.5 1030.09C30.463 1028.75 38.26 1026.47 45.7252 1023.3L45.8656 1023.24L46.007 1023.18C84.0554 1007.8 117.908 986.464 146.643 957.672L146.645 957.671C163.879 940.406 177.464 921.565 185.753 899.735C193.151 879.824 197.134 858.806 197.534 837.567L197.535 837.504L197.537 837.44C197.825 826.599 197.694 816.107 197.559 805.255C197.481 799.001 197.401 792.628 197.399 785.999C197.056 772.649 198.094 759.299 200.498 746.162L200.527 746.007L200.558 745.853C204.515 726.342 211.47 706.556 225.636 689.36C235.032 677.442 247.601 668.419 261.898 663.332C269.741 660.437 278.168 659.481 286.461 660.546C294.736 661.609 302.63 664.652 309.476 669.415C318.565 675.521 326.131 683.632 331.593 693.123C334.489 698.033 337.248 702.974 339.899 707.726L340.01 707.925C342.667 712.687 345.217 717.257 347.855 721.747L347.86 721.755L347.864 721.762C349.893 725.222 351.791 728.551 353.629 731.771C358.663 740.597 363.235 748.61 368.736 756.292C404.108 805.651 458.581 818.745 512.455 794.322L512.458 794.32C551.487 776.636 577.746 747.44 592.395 706.762L592.412 706.715L592.429 706.668C598.709 689.557 600.861 671.203 598.71 653.102C596.16 632.317 586.94 614.242 572.173 597.99L572.152 597.966L572.13 597.942C561.045 585.644 547.922 575.552 533.222 564.51C510.933 547.911 488.651 529.625 469.936 506.755C460.951 495.774 451.822 483.209 445.86 468.075L445.836 468.015L445.813 467.955C440.411 453.922 436.821 437.721 440.699 420.043C443.6 406.478 449.703 393.803 458.497 383.076L458.513 383.057L458.529 383.038C477.918 359.533 503.1 346.185 530.923 339.418C555.844 333.232 582.152 336.108 605.15 347.533L605.17 347.543L605.19 347.553C619.614 354.768 632.637 364.497 643.648 376.282C659.474 392.618 670.637 411.537 679.773 430.477C682.627 436.358 685.085 441.629 687.484 446.775C690.323 452.862 693.079 458.774 696.313 465.307L696.371 465.426L696.428 465.545C702.355 478.017 709.897 489.653 718.861 500.152C737.716 521.537 760.618 533.56 788.581 535.727C808.967 537.292 828.725 532.929 848.321 524.133L848.342 524.124L848.363 524.114C873.473 512.926 893.947 495.342 911.016 472.821L911.054 472.771L911.093 472.721C932.544 444.863 946.171 411.777 950.564 376.883L950.565 376.875L950.566 376.866C953.864 350.894 950.562 324.51 940.967 300.153L940.945 300.097L940.924 300.041C935.604 286.241 929.618 272.876 923.432 259.061C921.006 253.644 918.55 248.159 916.09 242.551C909.308 227.291 902.254 210.977 897.503 193.45C888.77 161.687 894.303 131.689 916.191 105.895L916.202 105.883L916.212 105.871C930.401 89.2165 948.587 76.4436 969.064 68.7513C986.242 61.8897 1004.97 59.8411 1023.22 62.8279L1023.32 62.8431L1023.41 62.8593C1063.27 69.8478 1089.06 94.9486 1101.54 131.548L1101.54 131.554C1108.99 153.445 1105.82 174.791 1100.56 193.279L1100.56 193.291C1094.91 213.121 1086.28 231.618 1078.29 248.74C1077.85 249.672 1077.42 250.6 1076.99 251.523L1076.99 251.53L1076.98 251.537C1064.67 277.897 1054.42 304.035 1048.76 331.457C1041.8 365.241 1040.49 398.253 1048.16 430.765C1059.09 477.132 1086.22 508.474 1130.62 525.133C1160.58 536.271 1191.7 536.344 1223.78 528.334C1247.21 522.463 1268.67 511.078 1290.48 497.226V497.128V496.961V496.793V496.625V496.458V496.29V496.123V495.955V495.788V495.62V495.452V495.285V495.117V494.95V494.782V494.615V494.447V494.279V494.112V493.944V493.777V493.609V493.441V493.274V493.106V492.939V492.771V492.604V492.436V492.268V492.101V491.933V491.766V491.598V491.43V491.263V491.095V490.928V490.76V490.592V490.425V490.257V490.09V489.922V489.754V489.587V489.419V489.252V489.084V488.916V488.749V488.581V488.414V488.246V488.078V487.911V487.743V487.576V487.408V487.24V487.073V486.905V486.738V486.57V486.402V486.235V486.067V485.9V485.732V485.564V485.397V485.229V485.062V484.894V484.726V484.559V484.391V484.224V484.056V483.888V483.721V483.553V483.385V483.218V483.05V482.883V482.715V482.547V482.38V482.212V482.045V481.877V481.709V481.542V481.374V481.206V481.039V480.871V480.704V480.536V480.368V480.201V480.033V479.866V479.698V479.53V479.363V479.195V479.027V478.86V478.692V478.525V478.357V478.189V478.022V477.854V477.687V477.519V477.351V477.184V477.016V476.848V476.681V476.513V476.346V476.178V476.01V475.843V475.675V475.507V475.34V475.172V475.005V474.837V474.669V474.502V474.334V474.167V473.999V473.831V473.664V473.496V473.328V473.161V472.993V472.826V472.658V472.49V472.323V472.155V471.988V471.82V471.652V471.485V471.317V471.149V470.982V470.814V470.647V470.479V470.311V470.144V469.976V469.809V469.641V469.473V469.306V469.138V468.971V468.803V468.635V468.468V468.3V468.132V467.965V467.797V467.63V467.462V467.294V467.127V466.959V466.792V466.624V466.456V466.289V466.121V465.954V465.786V465.618V465.451V465.283V465.116V464.948V464.78V464.613V464.445V464.278V464.11V463.942V463.775V463.607V463.44V463.272V463.104V462.937V462.769V462.602V462.434V462.266V462.099V461.931V461.764V461.596V461.429V461.261V461.093V460.926V460.758V460.591V460.423V460.255V460.088V459.92V459.753V459.585V459.418V459.25V459.082V458.915V458.747V458.58V458.412V458.244V458.077V457.909V457.742V457.574V457.407V457.239V457.071V456.904V456.736V456.569V456.401V456.234V456.066V455.898V455.731V455.563V455.396V455.228V455.061V454.893V454.726V454.558V454.39V454.223V454.055V453.888V453.72V453.553V453.385V453.218V453.05V452.883V452.715V452.547V452.38V452.212V452.045V451.877V451.71V451.542V451.375V451.207V451.04V450.872V450.704V450.537V450.369V450.202V450.034V449.867V449.699V449.532V449.364V449.197V449.029V448.862V448.694V448.527V448.359V448.192V448.024V447.857V447.689V447.522V447.354V447.187V447.019V446.852V446.684V446.517V446.349V446.182V446.014V445.846V445.679V445.512V445.344V445.177V445.009V444.842V444.674V444.507V444.339V444.172V444.004V443.837V443.669V443.502V443.334V443.266C1276.34 453.133 1261.75 462.327 1246.74 470.816L1246.62 470.882L1246.5 470.946C1222.45 484.037 1195.54 491.927 1165.67 487.691L1165.66 487.689L1165.65 487.688C1137.59 483.673 1105.37 467.161 1093.79 427.453L1093.79 427.451C1086.95 403.981 1086.62 380.468 1089.85 357.595L1089.85 357.55L1089.86 357.505C1093.55 332.294 1100.77 307.728 1111.29 284.527C1120.82 263.131 1130.18 241.93 1138.82 220.463L1138.83 220.444L1138.84 220.425C1148.7 196.098 1152.47 169.726 1149.82 143.606L1149.82 143.592L1149.82 143.577C1146.79 113.225 1133.66 84.7711 1112.53 62.7824L1112.46 62.7097L1112.4 62.6361C1076.45 24.2928 1032.7 10.1419 981.03 19.0878C938.453 26.4802 903.847 48.2557 877.079 82.8193C848.551 119.863 842.172 161.019 854.413 206.708L854.415 206.715L854.417 206.723C860.022 227.718 868.966 247.593 878.538 268.86C878.935 269.743 879.334 270.628 879.733 271.515L879.74 271.531L879.746 271.546C886.394 286.407 893.122 301.634 899.183 317.212C906.114 334.943 908.311 354.172 905.561 373.009C901.422 402.508 888.849 430.182 869.353 452.698C854.367 470.184 835.424 483.973 810.849 489.301L810.814 489.309L810.778 489.316C799.948 491.615 788.73 491.697 778.013 488.163C767.129 484.573 757.864 477.61 750.641 467.663L750.537 467.52L750.436 467.374C743.867 457.908 738.003 447.973 732.891 437.647C729.753 431.601 726.906 425.485 724.227 419.702L723.857 418.904C721.245 413.268 718.786 407.96 716.148 402.781L716.144 402.772L716.139 402.762C700.776 372.498 681.236 346.372 655.122 326.273L655.107 326.262L655.092 326.25C623.544 301.856 588.862 289.82 549.284 291.8L549.267 291.801L549.25 291.802C527.486 292.845 506.132 298.105 486.371 307.29L486.341 307.304L486.312 307.318C457.125 320.744 433.11 339.158 416 365.218C403.572 384.251 396.001 404.514 394.529 426.587L394.528 426.591C392.867 451.427 398.467 474.882 410.037 497.654L410.038 497.658C420.796 518.846 435.806 537.125 453.45 555.462C469.769 572.422 488.412 586.784 508.235 602.055C509.206 602.802 510.18 603.552 511.156 604.305C520.698 611.657 529.806 619.555 538.434 627.961L22.5 1030.09ZM22.5 1030.09V983.4C49.7214 975.358 72.7235 960.315 93.383 944.671L93.5235 944.564L93.6617 944.455C103.211 936.898 112.194 928.65 120.538 919.779C140.642 899.161 150.174 873.683 151.871 846.476L151.872 846.46L151.872 846.445C153.011 827.632 152.866 808.833 152.492 790.574C151.78 753.889 157.056 719.681 173.14 688.273L173.143 688.268C188.095 659.045 209.295 637.267 238.633 624.169L238.775 624.106L238.915 624.04C255.208 616.394 273.312 613.46 291.183 615.565C309.054 617.672 325.981 624.735 340.054 635.959L340.196 636.072L340.34 636.182C352.459 645.419 362.636 656.959 370.287 670.141L370.315 670.189L370.344 670.238C373.921 676.305 377.362 682.501 380.903 688.901L381.506 689.99C384.803 695.949 388.2 702.09 391.74 708.174C396.67 716.988 402.095 725.515 407.99 733.715C417.207 746.741 430.829 755.991 446.338 759.748L446.526 759.794L446.715 759.835C459.595 762.638 473.01 761.645 485.336 756.978C521.504 743.714 544.876 717.346 553.306 679.613C557.574 660.729 553.051 642.16 538.436 627.962L22.5 1030.09Z" stroke="#E8E8E8" stroke-width="33"/>
<path d="M22.5 1030.09C30.463 1028.75 38.26 1026.47 45.7252 1023.3L45.8656 1023.24L46.007 1023.18C84.0554 1007.8 117.908 986.464 146.643 957.672L146.645 957.671C163.879 940.406 177.464 921.565 185.753 899.735C193.151 879.824 197.134 858.806 197.534 837.567L197.535 837.504L197.537 837.44C197.825 826.599 197.694 816.107 197.559 805.255C197.481 799.001 197.401 792.628 197.399 785.999C197.056 772.649 198.094 759.299 200.498 746.162L200.527 746.007L200.558 745.853C204.515 726.342 211.47 706.556 225.636 689.36C235.032 677.442 247.601 668.419 261.898 663.332C269.741 660.437 278.168 659.481 286.461 660.546C294.736 661.609 302.63 664.652 309.476 669.415C318.565 675.521 326.131 683.632 331.593 693.123C334.489 698.033 337.248 702.974 339.899 707.726L340.01 707.925C342.667 712.687 345.217 717.257 347.855 721.747L347.86 721.755L347.864 721.762C349.893 725.222 351.791 728.551 353.629 731.771C358.663 740.597 363.235 748.61 368.736 756.292C404.108 805.651 458.581 818.745 512.455 794.322L512.458 794.32C551.487 776.636 577.746 747.44 592.395 706.762L592.412 706.715L592.429 706.668C598.709 689.557 600.861 671.203 598.71 653.102C596.16 632.317 586.94 614.242 572.173 597.99L572.152 597.966L572.13 597.942C561.045 585.644 547.922 575.552 533.222 564.51C510.933 547.911 488.651 529.625 469.936 506.755C460.951 495.774 451.822 483.209 445.86 468.075L445.836 468.015L445.813 467.955C440.411 453.922 436.821 437.721 440.699 420.043C443.6 406.478 449.703 393.803 458.497 383.076L458.513 383.057L458.529 383.038C477.918 359.533 503.1 346.185 530.923 339.418C555.844 333.232 582.152 336.108 605.15 347.533L605.17 347.543L605.19 347.553C619.614 354.768 632.637 364.497 643.648 376.282C659.474 392.618 670.637 411.537 679.773 430.477C682.627 436.358 685.085 441.629 687.484 446.775C690.323 452.862 693.079 458.774 696.313 465.307L696.371 465.426L696.428 465.545C702.355 478.017 709.897 489.653 718.861 500.152C737.716 521.537 760.618 533.56 788.581 535.727C808.967 537.292 828.725 532.929 848.321 524.133L848.342 524.124L848.363 524.114C873.473 512.926 893.947 495.342 911.016 472.821L911.054 472.771L911.093 472.721C932.544 444.863 946.171 411.777 950.564 376.883L950.565 376.875L950.566 376.866C953.864 350.894 950.562 324.51 940.967 300.153L940.945 300.097L940.924 300.041C935.604 286.241 929.618 272.876 923.432 259.061C921.006 253.644 918.55 248.159 916.09 242.551C909.308 227.291 902.254 210.977 897.503 193.45C888.77 161.687 894.303 131.689 916.191 105.895L916.202 105.883L916.212 105.871C930.401 89.2165 948.587 76.4436 969.064 68.7513C986.242 61.8897 1004.97 59.8411 1023.22 62.8279L1023.32 62.8431L1023.41 62.8593C1063.27 69.8478 1089.06 94.9486 1101.54 131.548L1101.54 131.554C1108.99 153.445 1105.82 174.791 1100.56 193.279L1100.56 193.291C1094.91 213.121 1086.28 231.618 1078.29 248.74C1077.85 249.672 1077.42 250.6 1076.99 251.523L1076.99 251.53L1076.98 251.537C1064.67 277.897 1054.42 304.035 1048.76 331.457C1041.8 365.241 1040.49 398.253 1048.16 430.765C1059.09 477.132 1086.22 508.474 1130.62 525.133C1160.58 536.271 1191.7 536.344 1223.78 528.334C1247.21 522.463 1268.67 511.078 1290.48 497.226V497.128V496.961V496.793V496.625V496.458V496.29V496.123V495.955V495.788V495.62V495.452V495.285V495.117V494.95V494.782V494.615V494.447V494.279V494.112V493.944V493.777V493.609V493.441V493.274V493.106V492.939V492.771V492.604V492.436V492.268V492.101V491.933V491.766V491.598V491.43V491.263V491.095V490.928V490.76V490.592V490.425V490.257V490.09V489.922V489.754V489.587V489.419V489.252V489.084V488.916V488.749V488.581V488.414V488.246V488.078V487.911V487.743V487.576V487.408V487.24V487.073V486.905V486.738V486.57V486.402V486.235V486.067V485.9V485.732V485.564V485.397V485.229V485.062V484.894V484.726V484.559V484.391V484.224V484.056V483.888V483.721V483.553V483.385V483.218V483.05V482.883V482.715V482.547V482.38V482.212V482.045V481.877V481.709V481.542V481.374V481.206V481.039V480.871V480.704V480.536V480.368V480.201V480.033V479.866V479.698V479.53V479.363V479.195V479.027V478.86V478.692V478.525V478.357V478.189V478.022V477.854V477.687V477.519V477.351V477.184V477.016V476.848V476.681V476.513V476.346V476.178V476.01V475.843V475.675V475.507V475.34V475.172V475.005V474.837V474.669V474.502V474.334V474.167V473.999V473.831V473.664V473.496V473.328V473.161V472.993V472.826V472.658V472.49V472.323V472.155V471.988V471.82V471.652V471.485V471.317V471.149V470.982V470.814V470.647V470.479V470.311V470.144V469.976V469.809V469.641V469.473V469.306V469.138V468.971V468.803V468.635V468.468V468.3V468.132V467.965V467.797V467.63V467.462V467.294V467.127V466.959V466.792V466.624V466.456V466.289V466.121V465.954V465.786V465.618V465.451V465.283V465.116V464.948V464.78V464.613V464.445V464.278V464.11V463.942V463.775V463.607V463.44V463.272V463.104V462.937V462.769V462.602V462.434V462.266V462.099V461.931V461.764V461.596V461.429V461.261V461.093V460.926V460.758V460.591V460.423V460.255V460.088V459.92V459.753V459.585V459.418V459.25V459.082V458.915V458.747V458.58V458.412V458.244V458.077V457.909V457.742V457.574V457.407V457.239V457.071V456.904V456.736V456.569V456.401V456.234V456.066V455.898V455.731V455.563V455.396V455.228V455.061V454.893V454.726V454.558V454.39V454.223V454.055V453.888V453.72V453.553V453.385V453.218V453.05V452.883V452.715V452.547V452.38V452.212V452.045V451.877V451.71V451.542V451.375V451.207V451.04V450.872V450.704V450.537V450.369V450.202V450.034V449.867V449.699V449.532V449.364V449.197V449.029V448.862V448.694V448.527V448.359V448.192V448.024V447.857V447.689V447.522V447.354V447.187V447.019V446.852V446.684V446.517V446.349V446.182V446.014V445.846V445.679V445.512V445.344V445.177V445.009V444.842V444.674V444.507V444.339V444.172V444.004V443.837V443.669V443.502V443.334V443.266C1276.34 453.133 1261.75 462.327 1246.74 470.816L1246.62 470.882L1246.5 470.946C1222.45 484.037 1195.54 491.927 1165.67 487.691L1165.66 487.689L1165.65 487.688C1137.59 483.673 1105.37 467.161 1093.79 427.453L1093.79 427.451C1086.95 403.981 1086.62 380.468 1089.85 357.595L1089.85 357.55L1089.86 357.505C1093.55 332.294 1100.77 307.728 1111.29 284.527C1120.82 263.131 1130.18 241.93 1138.82 220.463L1138.83 220.444L1138.84 220.425C1148.7 196.098 1152.47 169.726 1149.82 143.606L1149.82 143.592L1149.82 143.577C1146.79 113.225 1133.66 84.7711 1112.53 62.7824L1112.46 62.7097L1112.4 62.6361C1076.45 24.2928 1032.7 10.1419 981.03 19.0878C938.453 26.4802 903.847 48.2557 877.079 82.8193C848.551 119.863 842.172 161.019 854.413 206.708L854.415 206.715L854.417 206.723C860.022 227.718 868.966 247.593 878.538 268.86C878.935 269.743 879.334 270.628 879.733 271.515L879.74 271.531L879.746 271.546C886.394 286.407 893.122 301.634 899.183 317.212C906.114 334.943 908.311 354.172 905.561 373.009C901.422 402.508 888.849 430.182 869.353 452.698C854.367 470.184 835.424 483.973 810.849 489.301L810.814 489.309L810.778 489.316C799.948 491.615 788.73 491.697 778.013 488.163C767.129 484.573 757.864 477.61 750.641 467.663L750.537 467.52L750.436 467.374C743.867 457.908 738.003 447.973 732.891 437.647C729.753 431.601 726.906 425.485 724.227 419.702L723.857 418.904C721.245 413.268 718.786 407.96 716.148 402.781L716.144 402.772L716.139 402.762C700.776 372.498 681.236 346.372 655.122 326.273L655.107 326.262L655.092 326.25C623.544 301.856 588.862 289.82 549.284 291.8L549.267 291.801L549.25 291.802C527.486 292.845 506.132 298.105 486.371 307.29L486.341 307.304L486.312 307.318C457.125 320.744 433.11 339.158 416 365.218C403.572 384.251 396.001 404.514 394.529 426.587L394.528 426.591C392.867 451.427 398.467 474.882 410.037 497.654L410.038 497.658C420.796 518.846 435.806 537.125 453.45 555.462C469.769 572.422 488.412 586.784 508.235 602.055C509.206 602.802 510.18 603.552 511.156 604.305C520.698 611.657 529.806 619.555 538.434 627.961L22.5 1030.09ZM22.5 1030.09V983.4C49.7214 975.358 72.7235 960.315 93.383 944.671L93.5235 944.564L93.6617 944.455C103.211 936.898 112.194 928.65 120.538 919.779C140.642 899.161 150.174 873.683 151.871 846.476L151.872 846.46L151.872 846.445C153.011 827.632 152.866 808.833 152.492 790.574C151.78 753.889 157.056 719.681 173.14 688.273L173.143 688.268C188.095 659.045 209.295 637.267 238.633 624.169L238.775 624.106L238.915 624.04C255.208 616.394 273.312 613.46 291.183 615.565C309.054 617.672 325.981 624.735 340.054 635.959L340.196 636.072L340.34 636.182C352.459 645.419 362.636 656.959 370.287 670.141L370.315 670.189L370.344 670.238C373.921 676.305 377.362 682.501 380.903 688.901L381.506 689.99C384.803 695.949 388.2 702.09 391.74 708.174C396.67 716.988 402.095 725.515 407.99 733.715C417.207 746.741 430.829 755.991 446.338 759.748L446.526 759.794L446.715 759.835C459.595 762.638 473.01 761.645 485.336 756.978C521.504 743.714 544.876 717.346 553.306 679.613C557.574 660.729 553.051 642.16 538.436 627.962L22.5 1030.09Z" stroke="#2B546A" stroke-width="33"/>
<line x1="41.8545" y1="1000.71" x2="1.85452" y2="1013.71" stroke="#E8E8E8" stroke-width="12"/>
<path d="M95.7222 971.475C98.9496 971.071 104.025 965.891 106.404 963.6C109.853 960.279 112.74 956.406 116.423 953.542C123.766 947.83 129.379 939.594 135.719 932.881C138.079 930.382 139.082 925.76 142.035 923.915C144.17 922.58 142.737 922.821 142.737 925.162C142.737 927.26 144.956 926.565 146.596 926.565C151.94 926.565 148.96 922.447 151.508 919.899C154.634 916.774 151.961 914.84 150.455 911.83" stroke="#2B546A" stroke-width="25" stroke-linecap="round"/>
<path d="M172.91 767.278C172.91 761.601 173.322 755.936 173.612 750.437C173.798 746.897 175.523 743.393 175.717 739.912C176.129 732.494 179.889 724.441 182.383 717.457C185.082 709.9 188.253 703.088 191.466 695.743C193.596 690.875 197.968 687.691 200.277 683.073" stroke="#2B546A" stroke-width="25" stroke-linecap="round"/>
<path d="M340.618 669.74C340.824 673.444 343.43 677.705 344.828 681.123C346.273 684.654 347.734 688.946 349.74 692.156C353.426 698.053 356.452 704.723 360.422 710.439C362.397 713.284 363.936 716.49 365.879 719.406C367.517 721.862 369.84 722.82 371.844 724.824C374.774 727.754 375.58 733.885 379.212 735.701" stroke="#2B546A" stroke-width="25" stroke-linecap="round"/>
<path d="M523.062 759.559C529.966 752.655 537.781 746.821 542.71 738.196C544.142 735.689 546.426 731.318 548.635 729.424C549.739 728.478 554.187 723.422 554.6 721.978C555.423 719.098 557.323 716.266 557.446 713.09C557.543 710.569 559.975 705.202 561.656 703.422C563.098 701.895 567.269 697.206 567.269 702.019C567.269 704.462 567.592 707.822 565.164 709.036" stroke="#2B546A" stroke-width="25" stroke-linecap="round"/>
<path d="M520.255 584.133C518.295 583.915 515.003 580.283 513.589 578.87C511.613 576.893 509.038 574.994 506.611 573.607C504.699 572.514 504.11 569.706 502.011 568.539C499.271 567.017 495.853 563.629 493.59 561.366C489.532 557.308 485.202 553.367 481.271 549.437C478.89 547.055 476.445 544.401 473.942 542.03C472.391 540.56 470.887 538.046 469.031 537.118" stroke="#2B546A" stroke-width="25" stroke-linecap="round"/>
<path d="M415.701 419.933C415.701 417.261 417.121 412.605 418.196 410.148C419.802 406.476 420.429 402.288 422.367 398.842C423.883 396.148 425.146 392.341 426.226 389.369C427.425 386.074 430.639 381.676 432.893 378.922C437.306 373.527 441.979 366.078 447.979 362.548C449.81 361.471 452.581 359.974 454.139 358.728C455.665 357.507 458.301 357.186 459.207 355.375" stroke="#2B546A" stroke-width="25" stroke-linecap="round"/>
<path d="M576.392 316.08C586.167 316.08 595.101 315.857 604.304 319.043C611.296 321.463 617.706 324.306 624.459 327.307C628.541 329.122 631.485 332.363 635.335 334.48C638.845 336.411 643.85 339.538 645.861 343.057C648.877 348.336 653.747 352.905 656.386 358.182" stroke="#2B546A" stroke-width="25" stroke-linecap="round"/>
<path d="M723.049 470.456C723.535 475.073 727.135 477.849 730.222 480.825C731.97 482.511 733.977 483.947 735.835 485.503C737.905 487.236 739.112 489.715 741.293 491.351C746.055 494.922 751.37 498.495 756.731 501.175C760.235 502.927 763.767 504.85 767.256 506.788C769.139 507.835 775.685 509.065 776.378 510.453" stroke="#2B546A" stroke-width="25" stroke-linecap="round"/>
<path d="M890.757 459.93C890.757 455.357 896.378 452.033 897.93 447.845C899.006 444.938 900.979 441.645 902.686 439.035C904.915 435.625 906.696 431.345 908.455 427.651C910.266 423.848 912.733 420.552 913.913 416.424C915.812 409.778 920.588 403.309 921.671 396.815C922.4 392.441 926.544 388.057 926.544 383.444" stroke="#2B546A" stroke-width="25" stroke-linecap="round"/>
<path d="M899.879 269.767C899.678 266.348 896.166 260.2 894.265 257.292C892.114 254.003 890.778 250.465 888.652 247.157C884.979 241.443 883.479 235.878 882.297 229.38C879.868 216.019 874.617 203.402 874.617 189.772" stroke="#2B546A" stroke-width="25" stroke-linecap="round"/>
<path d="M904.089 83.8151C908.404 79.0211 913.869 75.4388 918.435 70.8725C920.731 68.5766 922.975 66.436 925.491 64.4792C931.046 60.159 938.292 57.0483 943.385 52.2383C944.998 50.7145 948.266 50.3755 950.402 49.7823C952.548 49.1861 956.19 47.4263 958.432 48.067C960.888 48.7687 964.436 54.178 964.436 56.4485" stroke="#2B546A" stroke-width="25" stroke-linecap="round"/>
<path d="M1083.02 71.8857C1088.62 71.8857 1097.45 80.3054 1100.57 84.6724C1104.73 90.5009 1108.1 96.9531 1112.5 102.605C1116.76 108.086 1119.15 115.36 1121.07 121.863C1122.22 125.731 1122.91 131.011 1125.13 134.338" stroke="#2B546A" stroke-width="25" stroke-linecap="round"/>
<path d="M1102.67 245.208C1102.67 249.116 1100.18 252.704 1098.46 256.045C1096.25 260.358 1094.06 264.99 1091.44 269.066C1087.34 275.447 1085.59 283.014 1081.97 289.454C1079.67 293.547 1078.09 299.859 1077.37 304.502C1077.03 306.704 1075.68 308.644 1075.34 310.817C1075.2 311.751 1074.6 315.03 1074.6 314.677" stroke="#2B546A" stroke-width="25" stroke-linecap="round"/>
<path d="M1071.1 427.651C1071.1 438.269 1073.3 446.506 1078.46 455.681C1082.53 462.905 1087.42 468.059 1093.16 473.964C1099.12 480.095 1106.18 483.839 1113.2 488.349C1114.82 489.392 1116.11 491.564 1117.06 493.261C1118.31 495.514 1120.86 497.643 1121.62 499.927" stroke="#2B546A" stroke-width="25" stroke-linecap="round"/>
<path d="M1235.3 500.629C1239.24 500.191 1242.34 496.707 1245.82 495.015C1247.7 494.103 1250.4 494.017 1251.98 492.754C1255.69 489.783 1259.61 489.226 1263.71 486.946C1267.12 485.053 1270.68 483.759 1273.19 480.63C1274.29 479.251 1277 479.385 1278.41 478.486C1279.37 477.875 1285.17 475.34 1282.31 476.771" stroke="#2B546A" stroke-width="25" stroke-linecap="round"/>
<rect x="72.4116" y="967.048" width="14" height="29.3318" transform="rotate(-33.2648 72.4116 967.048)" fill="#2B546A"/>
<path d="M152.954 900.688C156.276 900.688 159.769 902.443 162.617 904.04C163.564 904.571 165.082 905.002 165.456 906.124" stroke="#2B546A" stroke-width="10" stroke-linecap="round"/>
<path d="M166.815 780.018C172.049 780.018 177.284 780.018 182.518 780.018C183.654 780.018 185.568 779.4 185.568 780.833" stroke="#2B546A" stroke-width="10" stroke-linecap="round"/>
<path d="M201.875 669.402C203.478 669.821 204.821 671.551 206.012 672.603C209.351 675.554 212.699 678.673 216.324 681.27C217.426 682.059 218.565 683.032 219.782 683.641C220.173 683.836 220.443 683.709 220.628 684.079" stroke="#2B546A" stroke-width="10" stroke-linecap="round"/>
<path d="M328.253 666.413C331.056 663.609 334.046 660.989 336.739 658.078C336.936 657.865 338.6 656.046 338.309 656.629" stroke="#2B546A" stroke-width="10" stroke-linecap="round"/>
<path d="M373.912 751.752C373.912 750.469 375.255 749.589 376.086 748.763C379.526 745.341 383.101 742.063 386.897 739.039C388.805 737.519 390.767 736.098 392.756 734.69C393.2 734.376 393.476 734.086 394.024 734.086" stroke="#2B546A" stroke-width="10" stroke-linecap="round"/>
<path d="M511.161 760.993C511.161 762.698 512.156 763.966 513.064 765.341C514.373 767.323 515.635 769.339 516.99 771.29C517.757 772.395 518.482 773.477 519.436 774.431C519.816 774.811 520.451 775.224 520.674 775.669" stroke="#2B546A" stroke-width="10" stroke-linecap="round"/>
<path d="M576.117 728.379C575.057 728.85 573.933 728.679 572.856 729.24C571.513 729.938 570.327 730.69 568.915 731.233C568.208 731.505 567.346 731.357 566.605 731.368C565.039 731.392 564.013 732.375 562.89 733.392C560.231 735.799 557.872 738.778 556.277 741.968" stroke="#2B546A" stroke-width="10" stroke-linecap="round"/>
<path d="M561.713 688.699C563.42 688.699 564.925 689.141 566.544 689.681C570.627 691.042 574.768 692.213 578.865 693.531C579.961 693.883 585.358 694.99 585.358 696.581" stroke="#2B546A" stroke-width="10" stroke-linecap="round"/>
<path d="M523.935 597.109C523.935 596.147 524.872 594.94 525.324 594.225C527.453 590.858 530.186 587.897 532.934 585.03C535.036 582.837 537.278 580.776 539.427 578.628" stroke="#2B546A" stroke-width="10" stroke-linecap="round"/>
<path d="M453.816 536.23C454.389 534.51 457.405 532.93 458.708 531.881C461.263 529.826 463.814 527.745 466.529 525.902C467.531 525.222 468.631 524.743 469.307 523.728" stroke="#2B546A" stroke-width="10" stroke-linecap="round"/>
<path d="M408.7 432.138C412.696 432.138 416.692 432.138 420.689 432.138C421.645 432.138 427.245 431.45 427.725 432.41" stroke="#2B546A" stroke-width="10" stroke-linecap="round"/>
<path d="M458.708 339.732C462.139 344.24 466.2 348.553 470.213 352.567C470.802 353.155 471.657 353.672 472.025 354.409" stroke="#2B546A" stroke-width="10" stroke-linecap="round"/>
<path d="M657.651 371.802C658.629 370.065 661.177 368.734 662.725 367.68C667.201 364.632 671.757 361.699 676.284 358.727C678.724 357.124 685.807 352.072 683.742 354.137" stroke="#2B546A" stroke-width="10" stroke-linecap="round"/>
<path d="M712.28 464.751C714.091 464.626 715.889 463.664 717.549 463.03C721.239 461.62 724.915 460.105 728.677 458.893C730.332 458.36 735.489 457.685 733.75 457.685" stroke="#2B546A" stroke-width="10" stroke-linecap="round"/>
<path d="M787.019 505.79V528.076" stroke="#2B546A" stroke-width="10" stroke-linecap="round"/>
<path d="M880.297 463.405C880.215 463.651 880.733 463.685 880.959 463.812C882.284 464.559 883.46 465.492 884.641 466.449C889.143 470.095 893.646 473.776 897.977 477.624C900.064 479.478 902.067 481.412 904.041 483.386C904.4 483.745 904.811 484.046 904.97 484.524" stroke="#2B546A" stroke-width="10" stroke-linecap="round"/>
<path d="M917.934 373.076H947.417" stroke="#2B546A" stroke-width="10" stroke-linecap="round"/>
<path d="M896.188 282.119C902.434 278.025 908.991 274.496 915.448 270.758C915.916 270.487 919.522 268.696 919.398 268.946" stroke="#2B546A" stroke-width="10" stroke-linecap="round"/>
<path d="M861.269 180.916H884.688" stroke="#2B546A" stroke-width="10" stroke-linecap="round"/>
<path d="M892.842 85.5684C893.756 85.7715 894.396 86.2004 895.166 86.7532C897.191 88.2086 899.113 89.8306 901.067 91.3766C906.147 95.3949 911.215 99.4194 916.54 103.109C918.879 104.73 921.248 106.671 923.789 107.942" stroke="#2B546A" stroke-width="10" stroke-linecap="round"/>
<path d="M1070.99 68.4223C1071.42 67.0728 1072.42 65.7932 1073.29 64.7167C1075.32 62.2198 1077.71 59.9365 1080.05 57.7352C1081.24 56.6235 1082.81 55.3533 1084.37 54.8311" stroke="#2B546A" stroke-width="10" stroke-linecap="round"/>
<path d="M1117.62 145.161C1123.7 145.161 1129.75 144.884 1135.82 144.65C1136.33 144.63 1142.82 144.535 1142.71 144.743" stroke="#2B546A" stroke-width="10" stroke-linecap="round"/>
<path d="M1099.64 232.981C1101.81 233.136 1103.98 234.032 1106 234.747C1109.05 235.819 1112.02 237.061 1115.11 238C1116.38 238.386 1117.68 238.78 1118.99 238.999C1119.34 239.057 1119.56 238.957 1119.71 239.254" stroke="#2B546A" stroke-width="10" stroke-linecap="round"/>
<path d="M1065.77 322.893C1071.98 322.893 1077.68 325.262 1083.55 327.051C1084.23 327.258 1088.35 327.843 1088.35 328.747" stroke="#2B546A" stroke-width="10" stroke-linecap="round"/>
<path d="M1060.12 422.632C1061.45 422.448 1062.74 421.941 1064.03 421.587C1067.04 420.765 1070.1 420.087 1073.16 419.53C1073.86 419.404 1077.93 418.317 1078.31 419.077" stroke="#2B546A" stroke-width="10" stroke-linecap="round"/>
<path d="M1223.21 496.024C1223.52 500.614 1225 505.312 1226.26 509.709C1226.65 511.06 1226.81 513.026 1227.61 514.216" stroke="#2B546A" stroke-width="10" stroke-linecap="round"/>
<path d="M22.5 1030.09C30.463 1028.75 38.26 1026.47 45.7252 1023.3L45.8656 1023.24L46.007 1023.18C84.0554 1007.8 117.908 986.464 146.643 957.672L146.645 957.671C163.879 940.406 177.464 921.565 185.753 899.735C193.151 879.824 197.134 858.806 197.534 837.567L197.535 837.504L197.537 837.44C197.825 826.599 197.694 816.107 197.559 805.255C197.481 799.001 197.401 792.628 197.399 785.999C197.056 772.649 198.094 759.299 200.498 746.162L200.527 746.007L200.558 745.853C204.515 726.342 211.47 706.556 225.636 689.36C235.032 677.442 247.601 668.419 261.898 663.332C269.741 660.437 278.168 659.481 286.461 660.546C294.736 661.609 302.63 664.652 309.476 669.415C318.565 675.521 326.131 683.632 331.593 693.123C334.489 698.033 337.248 702.974 339.899 707.726L340.01 707.925C342.667 712.687 345.217 717.257 347.855 721.747L347.86 721.755L347.864 721.762C349.893 725.222 351.791 728.551 353.629 731.771C358.663 740.597 363.235 748.61 368.736 756.292C404.108 805.651 458.581 818.745 512.455 794.322L512.458 794.32C551.487 776.636 577.746 747.44 592.395 706.762L592.412 706.715L592.429 706.668C598.709 689.557 600.861 671.203 598.71 653.102C596.16 632.317 586.94 614.242 572.173 597.99L572.152 597.966L572.13 597.942C561.045 585.644 547.922 575.552 533.222 564.51C510.933 547.911 488.651 529.625 469.936 506.755C460.951 495.774 451.822 483.209 445.86 468.075L445.836 468.015L445.813 467.955C440.411 453.922 436.821 437.721 440.699 420.043C443.6 406.478 449.703 393.803 458.497 383.076L458.513 383.057L458.529 383.038C477.918 359.533 503.1 346.185 530.923 339.418C555.844 333.232 582.152 336.108 605.15 347.533L605.17 347.543L605.19 347.553C619.614 354.768 632.637 364.497 643.648 376.282C659.474 392.618 670.637 411.537 679.773 430.477C682.627 436.358 685.085 441.629 687.484 446.775C690.323 452.862 693.079 458.774 696.313 465.307L696.371 465.426L696.428 465.545C702.355 478.017 709.897 489.653 718.861 500.152C737.716 521.537 760.618 533.56 788.581 535.727C808.967 537.292 828.725 532.929 848.321 524.133L848.342 524.124L848.363 524.114C873.473 512.926 893.947 495.342 911.016 472.821L911.054 472.771L911.093 472.721C932.544 444.863 946.171 411.777 950.564 376.883L950.565 376.875L950.566 376.866C953.864 350.894 950.562 324.51 940.967 300.153L940.945 300.097L940.924 300.041C935.604 286.241 929.618 272.876 923.432 259.061C921.006 253.644 918.55 248.159 916.09 242.551C909.308 227.291 902.254 210.977 897.503 193.45C888.77 161.687 894.303 131.689 916.191 105.895L916.202 105.883L916.212 105.871C930.401 89.2165 948.587 76.4436 969.064 68.7513C986.242 61.8897 1004.97 59.8411 1023.22 62.8279L1023.32 62.8431L1023.41 62.8593C1063.27 69.8478 1089.06 94.9486 1101.54 131.548L1101.54 131.554C1108.99 153.445 1105.82 174.791 1100.56 193.279L1100.56 193.291C1094.91 213.121 1086.28 231.618 1078.29 248.74C1077.85 249.672 1077.42 250.6 1076.99 251.523L1076.99 251.53L1076.98 251.537C1064.67 277.897 1054.42 304.035 1048.76 331.457C1041.8 365.241 1040.49 398.253 1048.16 430.765C1059.09 477.132 1086.22 508.474 1130.62 525.133C1160.58 536.271 1191.7 536.344 1223.78 528.334C1247.21 522.463 1268.67 511.078 1290.48 497.226V497.128V496.961V496.793V496.625V496.458V496.29V496.123V495.955V495.788V495.62V495.452V495.285V495.117V494.95V494.782V494.615V494.447V494.279V494.112V493.944V493.777V493.609V493.441V493.274V493.106V492.939V492.771V492.604V492.436V492.268V492.101V491.933V491.766V491.598V491.43V491.263V491.095V490.928V490.76V490.592V490.425V490.257V490.09V489.922V489.754V489.587V489.419V489.252V489.084V488.916V488.749V488.581V488.414V488.246V488.078V487.911V487.743V487.576V487.408V487.24V487.073V486.905V486.738V486.57V486.402V486.235V486.067V485.9V485.732V485.564V485.397V485.229V485.062V484.894V484.726V484.559V484.391V484.224V484.056V483.888V483.721V483.553V483.385V483.218V483.05V482.883V482.715V482.547V482.38V482.212V482.045V481.877V481.709V481.542V481.374V481.206V481.039V480.871V480.704V480.536V480.368V480.201V480.033V479.866V479.698V479.53V479.363V479.195V479.027V478.86V478.692V478.525V478.357V478.189V478.022V477.854V477.687V477.519V477.351V477.184V477.016V476.848V476.681V476.513V476.346V476.178V476.01V475.843V475.675V475.507V475.34V475.172V475.005V474.837V474.669V474.502V474.334V474.167V473.999V473.831V473.664V473.496V473.328V473.161V472.993V472.826V472.658V472.49V472.323V472.155V471.988V471.82V471.652V471.485V471.317V471.149V470.982V470.814V470.647V470.479V470.311V470.144V469.976V469.809V469.641V469.473V469.306V469.138V468.971V468.803V468.635V468.468V468.3V468.132V467.965V467.797V467.63V467.462V467.294V467.127V466.959V466.792V466.624V466.456V466.289V466.121V465.954V465.786V465.618V465.451V465.283V465.116V464.948V464.78V464.613V464.445V464.278V464.11V463.942V463.775V463.607V463.44V463.272V463.104V462.937V462.769V462.602V462.434V462.266V462.099V461.931V461.764V461.596V461.429V461.261V461.093V460.926V460.758V460.591V460.423V460.255V460.088V459.92V459.753V459.585V459.418V459.25V459.082V458.915V458.747V458.58V458.412V458.244V458.077V457.909V457.742V457.574V457.407V457.239V457.071V456.904V456.736V456.569V456.401V456.234V456.066V455.898V455.731V455.563V455.396V455.228V455.061V454.893V454.726V454.558V454.39V454.223V454.055V453.888V453.72V453.553V453.385V453.218V453.05V452.883V452.715V452.547V452.38V452.212V452.045V451.877V451.71V451.542V451.375V451.207V451.04V450.872V450.704V450.537V450.369V450.202V450.034V449.867V449.699V449.532V449.364V449.197V449.029V448.862V448.694V448.527V448.359V448.192V448.024V447.857V447.689V447.522V447.354V447.187V447.019V446.852V446.684V446.517V446.349V446.182V446.014V445.846V445.679V445.512V445.344V445.177V445.009V444.842V444.674V444.507V444.339V444.172V444.004V443.837V443.669V443.502V443.334V443.266C1276.34 453.133 1261.75 462.327 1246.74 470.816L1246.62 470.882L1246.5 470.946C1222.45 484.037 1195.54 491.927 1165.67 487.691L1165.66 487.689L1165.65 487.688C1137.59 483.673 1105.37 467.161 1093.79 427.453L1093.79 427.451C1086.95 403.981 1086.62 380.468 1089.85 357.595L1089.85 357.55L1089.86 357.505C1093.55 332.294 1100.77 307.728 1111.29 284.527C1120.82 263.131 1130.18 241.93 1138.82 220.463L1138.83 220.444L1138.84 220.425C1148.7 196.098 1152.47 169.726 1149.82 143.606L1149.82 143.592L1149.82 143.577C1146.79 113.225 1133.66 84.7711 1112.53 62.7824L1112.46 62.7097L1112.4 62.6361C1076.45 24.2928 1032.7 10.1419 981.03 19.0878C938.453 26.4802 903.847 48.2557 877.079 82.8193C848.551 119.863 842.172 161.019 854.413 206.708L854.415 206.715L854.417 206.723C860.022 227.718 868.966 247.593 878.538 268.86C878.935 269.743 879.334 270.628 879.733 271.515L879.74 271.531L879.746 271.546C886.394 286.407 893.122 301.634 899.183 317.212C906.114 334.943 908.311 354.172 905.561 373.009C901.422 402.508 888.849 430.182 869.353 452.698C854.367 470.184 835.424 483.973 810.849 489.301L810.814 489.309L810.778 489.316C799.948 491.615 788.73 491.697 778.013 488.163C767.129 484.573 757.864 477.61 750.641 467.663L750.537 467.52L750.436 467.374C743.867 457.908 738.003 447.973 732.891 437.647C729.753 431.601 726.906 425.485 724.227 419.702L723.857 418.904C721.245 413.268 718.786 407.96 716.148 402.781L716.144 402.772L716.139 402.762C700.776 372.498 681.236 346.372 655.122 326.273L655.107 326.262L655.092 326.25C623.544 301.856 588.862 289.82 549.284 291.8L549.267 291.801L549.25 291.802C527.486 292.845 506.132 298.105 486.371 307.29L486.341 307.304L486.312 307.318C457.125 320.744 433.11 339.158 416 365.218C403.572 384.251 396.001 404.514 394.529 426.587L394.528 426.591C392.867 451.427 398.467 474.882 410.037 497.654L410.038 497.658C420.796 518.846 435.806 537.125 453.45 555.462C469.769 572.422 488.412 586.784 508.235 602.055C509.206 602.802 510.18 603.552 511.156 604.305C520.698 611.657 529.806 619.555 538.434 627.961L22.5 1030.09ZM22.5 1030.09V983.4C49.7214 975.358 72.7235 960.315 93.383 944.671L93.5235 944.564L93.6617 944.455C103.211 936.898 112.194 928.65 120.538 919.779C140.642 899.161 150.174 873.683 151.871 846.476L151.872 846.46L151.872 846.445C153.011 827.632 152.866 808.833 152.492 790.574C151.78 753.889 157.056 719.681 173.14 688.273L173.143 688.268C188.095 659.045 209.295 637.267 238.633 624.169L238.775 624.106L238.915 624.04C255.208 616.394 273.312 613.46 291.183 615.565C309.054 617.672 325.981 624.735 340.054 635.959L340.196 636.072L340.34 636.182C352.459 645.419 362.636 656.959 370.287 670.141L370.315 670.189L370.344 670.238C373.921 676.305 377.362 682.501 380.903 688.901L381.506 689.99C384.803 695.949 388.2 702.09 391.74 708.174C396.67 716.988 402.095 725.515 407.99 733.715C417.207 746.741 430.829 755.991 446.338 759.748L446.526 759.794L446.715 759.835C459.595 762.638 473.01 761.645 485.336 756.978C521.504 743.714 544.876 717.346 553.306 679.613C557.574 660.729 553.051 642.16 538.436 627.962L22.5 1030.09Z" fill="#E8E8E8"/>
<path d="M22.5 1030.09C30.463 1028.75 38.26 1026.47 45.7252 1023.3L45.8656 1023.24L46.007 1023.18C84.0554 1007.8 117.908 986.464 146.643 957.672L146.645 957.671C163.879 940.406 177.464 921.565 185.753 899.735C193.151 879.824 197.134 858.806 197.534 837.567L197.535 837.504L197.537 837.44C197.825 826.599 197.694 816.107 197.559 805.255C197.481 799.001 197.401 792.628 197.399 785.999C197.056 772.649 198.094 759.299 200.498 746.162L200.527 746.007L200.558 745.853C204.515 726.342 211.47 706.556 225.636 689.36C235.032 677.442 247.601 668.419 261.898 663.332C269.741 660.437 278.168 659.481 286.461 660.546C294.736 661.609 302.63 664.652 309.476 669.415C318.565 675.521 326.131 683.632 331.593 693.123C334.489 698.033 337.248 702.974 339.899 707.726L340.01 707.925C342.667 712.687 345.217 717.257 347.855 721.747L347.86 721.755L347.864 721.762C349.893 725.222 351.791 728.551 353.629 731.771C358.663 740.597 363.235 748.61 368.736 756.292C404.108 805.651 458.581 818.745 512.455 794.322L512.458 794.32C551.487 776.636 577.746 747.44 592.395 706.762L592.412 706.715L592.429 706.668C598.709 689.557 600.861 671.203 598.71 653.102C596.16 632.317 586.94 614.242 572.173 597.99L572.152 597.966L572.13 597.942C561.045 585.644 547.922 575.552 533.222 564.51C510.933 547.911 488.651 529.625 469.936 506.755C460.951 495.774 451.822 483.209 445.86 468.075L445.836 468.015L445.813 467.955C440.411 453.922 436.821 437.721 440.699 420.043C443.6 406.478 449.703 393.803 458.497 383.076L458.513 383.057L458.529 383.038C477.918 359.533 503.1 346.185 530.923 339.418C555.844 333.232 582.152 336.108 605.15 347.533L605.17 347.543L605.19 347.553C619.614 354.768 632.637 364.497 643.648 376.282C659.474 392.618 670.637 411.537 679.773 430.477C682.627 436.358 685.085 441.629 687.484 446.775C690.323 452.862 693.079 458.774 696.313 465.307L696.371 465.426L696.428 465.545C702.355 478.017 709.897 489.653 718.861 500.152C737.716 521.537 760.618 533.56 788.581 535.727C808.967 537.292 828.725 532.929 848.321 524.133L848.342 524.124L848.363 524.114C873.473 512.926 893.947 495.342 911.016 472.821L911.054 472.771L911.093 472.721C932.544 444.863 946.171 411.777 950.564 376.883L950.565 376.875L950.566 376.866C953.864 350.894 950.562 324.51 940.967 300.153L940.945 300.097L940.924 300.041C935.604 286.241 929.618 272.876 923.432 259.061C921.006 253.644 918.55 248.159 916.09 242.551C909.308 227.291 902.254 210.977 897.503 193.45C888.77 161.687 894.303 131.689 916.191 105.895L916.202 105.883L916.212 105.871C930.401 89.2165 948.587 76.4436 969.064 68.7513C986.242 61.8897 1004.97 59.8411 1023.22 62.8279L1023.32 62.8431L1023.41 62.8593C1063.27 69.8478 1089.06 94.9486 1101.54 131.548L1101.54 131.554C1108.99 153.445 1105.82 174.791 1100.56 193.279L1100.56 193.291C1094.91 213.121 1086.28 231.618 1078.29 248.74C1077.85 249.672 1077.42 250.6 1076.99 251.523L1076.99 251.53L1076.98 251.537C1064.67 277.897 1054.42 304.035 1048.76 331.457C1041.8 365.241 1040.49 398.253 1048.16 430.765C1059.09 477.132 1086.22 508.474 1130.62 525.133C1160.58 536.271 1191.7 536.344 1223.78 528.334C1247.21 522.463 1268.67 511.078 1290.48 497.226V497.128V496.961V496.793V496.625V496.458V496.29V496.123V495.955V495.788V495.62V495.452V495.285V495.117V494.95V494.782V494.615V494.447V494.279V494.112V493.944V493.777V493.609V493.441V493.274V493.106V492.939V492.771V492.604V492.436V492.268V492.101V491.933V491.766V491.598V491.43V491.263V491.095V490.928V490.76V490.592V490.425V490.257V490.09V489.922V489.754V489.587V489.419V489.252V489.084V488.916V488.749V488.581V488.414V488.246V488.078V487.911V487.743V487.576V487.408V487.24V487.073V486.905V486.738V486.57V486.402V486.235V486.067V485.9V485.732V485.564V485.397V485.229V485.062V484.894V484.726V484.559V484.391V484.224V484.056V483.888V483.721V483.553V483.385V483.218V483.05V482.883V482.715V482.547V482.38V482.212V482.045V481.877V481.709V481.542V481.374V481.206V481.039V480.871V480.704V480.536V480.368V480.201V480.033V479.866V479.698V479.53V479.363V479.195V479.027V478.86V478.692V478.525V478.357V478.189V478.022V477.854V477.687V477.519V477.351V477.184V477.016V476.848V476.681V476.513V476.346V476.178V476.01V475.843V475.675V475.507V475.34V475.172V475.005V474.837V474.669V474.502V474.334V474.167V473.999V473.831V473.664V473.496V473.328V473.161V472.993V472.826V472.658V472.49V472.323V472.155V471.988V471.82V471.652V471.485V471.317V471.149V470.982V470.814V470.647V470.479V470.311V470.144V469.976V469.809V469.641V469.473V469.306V469.138V468.971V468.803V468.635V468.468V468.3V468.132V467.965V467.797V467.63V467.462V467.294V467.127V466.959V466.792V466.624V466.456V466.289V466.121V465.954V465.786V465.618V465.451V465.283V465.116V464.948V464.78V464.613V464.445V464.278V464.11V463.942V463.775V463.607V463.44V463.272V463.104V462.937V462.769V462.602V462.434V462.266V462.099V461.931V461.764V461.596V461.429V461.261V461.093V460.926V460.758V460.591V460.423V460.255V460.088V459.92V459.753V459.585V459.418V459.25V459.082V458.915V458.747V458.58V458.412V458.244V458.077V457.909V457.742V457.574V457.407V457.239V457.071V456.904V456.736V456.569V456.401V456.234V456.066V455.898V455.731V455.563V455.396V455.228V455.061V454.893V454.726V454.558V454.39V454.223V454.055V453.888V453.72V453.553V453.385V453.218V453.05V452.883V452.715V452.547V452.38V452.212V452.045V451.877V451.71V451.542V451.375V451.207V451.04V450.872V450.704V450.537V450.369V450.202V450.034V449.867V449.699V449.532V449.364V449.197V449.029V448.862V448.694V448.527V448.359V448.192V448.024V447.857V447.689V447.522V447.354V447.187V447.019V446.852V446.684V446.517V446.349V446.182V446.014V445.846V445.679V445.512V445.344V445.177V445.009V444.842V444.674V444.507V444.339V444.172V444.004V443.837V443.669V443.502V443.334V443.266C1276.34 453.133 1261.75 462.327 1246.74 470.816L1246.62 470.882L1246.5 470.946C1222.45 484.037 1195.54 491.927 1165.67 487.691L1165.66 487.689L1165.65 487.688C1137.59 483.673 1105.37 467.161 1093.79 427.453L1093.79 427.451C1086.95 403.981 1086.62 380.468 1089.85 357.595L1089.85 357.55L1089.86 357.505C1093.55 332.294 1100.77 307.728 1111.29 284.527C1120.82 263.131 1130.18 241.93 1138.82 220.463L1138.83 220.444L1138.84 220.425C1148.7 196.098 1152.47 169.726 1149.82 143.606L1149.82 143.592L1149.82 143.577C1146.79 113.225 1133.66 84.7711 1112.53 62.7824L1112.46 62.7097L1112.4 62.6361C1076.45 24.2928 1032.7 10.1419 981.03 19.0878C938.453 26.4802 903.847 48.2557 877.079 82.8193C848.551 119.863 842.172 161.019 854.413 206.708L854.415 206.715L854.417 206.723C860.022 227.718 868.966 247.593 878.538 268.86C878.935 269.743 879.334 270.628 879.733 271.515L879.74 271.531L879.746 271.546C886.394 286.407 893.122 301.634 899.183 317.212C906.114 334.943 908.311 354.172 905.561 373.009C901.422 402.508 888.849 430.182 869.353 452.698C854.367 470.184 835.424 483.973 810.849 489.301L810.814 489.309L810.778 489.316C799.948 491.615 788.73 491.697 778.013 488.163C767.129 484.573 757.864 477.61 750.641 467.663L750.537 467.52L750.436 467.374C743.867 457.908 738.003 447.973 732.891 437.647C729.753 431.601 726.906 425.485 724.227 419.702L723.857 418.904C721.245 413.268 718.786 407.96 716.148 402.781L716.144 402.772L716.139 402.762C700.776 372.498 681.236 346.372 655.122 326.273L655.107 326.262L655.092 326.25C623.544 301.856 588.862 289.82 549.284 291.8L549.267 291.801L549.25 291.802C527.486 292.845 506.132 298.105 486.371 307.29L486.341 307.304L486.312 307.318C457.125 320.744 433.11 339.158 416 365.218C403.572 384.251 396.001 404.514 394.529 426.587L394.528 426.591C392.867 451.427 398.467 474.882 410.037 497.654L410.038 497.658C420.796 518.846 435.806 537.125 453.45 555.462C469.769 572.422 488.412 586.784 508.235 602.055C509.206 602.802 510.18 603.552 511.156 604.305C520.698 611.657 529.806 619.555 538.434 627.961L22.5 1030.09ZM22.5 1030.09V983.4C49.7214 975.358 72.7235 960.315 93.383 944.671L93.5235 944.564L93.6617 944.455C103.211 936.898 112.194 928.65 120.538 919.779C140.642 899.161 150.174 873.683 151.871 846.476L151.872 846.46L151.872 846.445C153.011 827.632 152.866 808.833 152.492 790.574C151.78 753.889 157.056 719.681 173.14 688.273L173.143 688.268C188.095 659.045 209.295 637.267 238.633 624.169L238.775 624.106L238.915 624.04C255.208 616.394 273.312 613.46 291.183 615.565C309.054 617.672 325.981 624.735 340.054 635.959L340.196 636.072L340.34 636.182C352.459 645.419 362.636 656.959 370.287 670.141L370.315 670.189L370.344 670.238C373.921 676.305 377.362 682.501 380.903 688.901L381.506 689.99C384.803 695.949 388.2 702.09 391.74 708.174C396.67 716.988 402.095 725.515 407.99 733.715C417.207 746.741 430.829 755.991 446.338 759.748L446.526 759.794L446.715 759.835C459.595 762.638 473.01 761.645 485.336 756.978C521.504 743.714 544.876 717.346 553.306 679.613C557.574 660.729 553.051 642.16 538.436 627.962L22.5 1030.09Z" stroke="#E8E8E8" stroke-width="33"/>
<path d="M22.5 1030.09C30.463 1028.75 38.26 1026.47 45.7252 1023.3L45.8656 1023.24L46.007 1023.18C84.0554 1007.8 117.908 986.464 146.643 957.672L146.645 957.671C163.879 940.406 177.464 921.565 185.753 899.735C193.151 879.824 197.134 858.806 197.534 837.567L197.535 837.504L197.537 837.44C197.825 826.599 197.694 816.107 197.559 805.255C197.481 799.001 197.401 792.628 197.399 785.999C197.056 772.649 198.094 759.299 200.498 746.162L200.527 746.007L200.558 745.853C204.515 726.342 211.47 706.556 225.636 689.36C235.032 677.442 247.601 668.419 261.898 663.332C269.741 660.437 278.168 659.481 286.461 660.546C294.736 661.609 302.63 664.652 309.476 669.415C318.565 675.521 326.131 683.632 331.593 693.123C334.489 698.033 337.248 702.974 339.899 707.726L340.01 707.925C342.667 712.687 345.217 717.257 347.855 721.747L347.86 721.755L347.864 721.762C349.893 725.222 351.791 728.551 353.629 731.771C358.663 740.597 363.235 748.61 368.736 756.292C404.108 805.651 458.581 818.745 512.455 794.322L512.458 794.32C551.487 776.636 577.746 747.44 592.395 706.762L592.412 706.715L592.429 706.668C598.709 689.557 600.861 671.203 598.71 653.102C596.16 632.317 586.94 614.242 572.173 597.99L572.152 597.966L572.13 597.942C561.045 585.644 547.922 575.552 533.222 564.51C510.933 547.911 488.651 529.625 469.936 506.755C460.951 495.774 451.822 483.209 445.86 468.075L445.836 468.015L445.813 467.955C440.411 453.922 436.821 437.721 440.699 420.043C443.6 406.478 449.703 393.803 458.497 383.076L458.513 383.057L458.529 383.038C477.918 359.533 503.1 346.185 530.923 339.418C555.844 333.232 582.152 336.108 605.15 347.533L605.17 347.543L605.19 347.553C619.614 354.768 632.637 364.497 643.648 376.282C659.474 392.618 670.637 411.537 679.773 430.477C682.627 436.358 685.085 441.629 687.484 446.775C690.323 452.862 693.079 458.774 696.313 465.307L696.371 465.426L696.428 465.545C702.355 478.017 709.897 489.653 718.861 500.152C737.716 521.537 760.618 533.56 788.581 535.727C808.967 537.292 828.725 532.929 848.321 524.133L848.342 524.124L848.363 524.114C873.473 512.926 893.947 495.342 911.016 472.821L911.054 472.771L911.093 472.721C932.544 444.863 946.171 411.777 950.564 376.883L950.565 376.875L950.566 376.866C953.864 350.894 950.562 324.51 940.967 300.153L940.945 300.097L940.924 300.041C935.604 286.241 929.618 272.876 923.432 259.061C921.006 253.644 918.55 248.159 916.09 242.551C909.308 227.291 902.254 210.977 897.503 193.45C888.77 161.687 894.303 131.689 916.191 105.895L916.202 105.883L916.212 105.871C930.401 89.2165 948.587 76.4436 969.064 68.7513C986.242 61.8897 1004.97 59.8411 1023.22 62.8279L1023.32 62.8431L1023.41 62.8593C1063.27 69.8478 1089.06 94.9486 1101.54 131.548L1101.54 131.554C1108.99 153.445 1105.82 174.791 1100.56 193.279L1100.56 193.291C1094.91 213.121 1086.28 231.618 1078.29 248.74C1077.85 249.672 1077.42 250.6 1076.99 251.523L1076.99 251.53L1076.98 251.537C1064.67 277.897 1054.42 304.035 1048.76 331.457C1041.8 365.241 1040.49 398.253 1048.16 430.765C1059.09 477.132 1086.22 508.474 1130.62 525.133C1160.58 536.271 1191.7 536.344 1223.78 528.334C1247.21 522.463 1268.67 511.078 1290.48 497.226V497.128V496.961V496.793V496.625V496.458V496.29V496.123V495.955V495.788V495.62V495.452V495.285V495.117V494.95V494.782V494.615V494.447V494.279V494.112V493.944V493.777V493.609V493.441V493.274V493.106V492.939V492.771V492.604V492.436V492.268V492.101V491.933V491.766V491.598V491.43V491.263V491.095V490.928V490.76V490.592V490.425V490.257V490.09V489.922V489.754V489.587V489.419V489.252V489.084V488.916V488.749V488.581V488.414V488.246V488.078V487.911V487.743V487.576V487.408V487.24V487.073V486.905V486.738V486.57V486.402V486.235V486.067V485.9V485.732V485.564V485.397V485.229V485.062V484.894V484.726V484.559V484.391V484.224V484.056V483.888V483.721V483.553V483.385V483.218V483.05V482.883V482.715V482.547V482.38V482.212V482.045V481.877V481.709V481.542V481.374V481.206V481.039V480.871V480.704V480.536V480.368V480.201V480.033V479.866V479.698V479.53V479.363V479.195V479.027V478.86V478.692V478.525V478.357V478.189V478.022V477.854V477.687V477.519V477.351V477.184V477.016V476.848V476.681V476.513V476.346V476.178V476.01V475.843V475.675V475.507V475.34V475.172V475.005V474.837V474.669V474.502V474.334V474.167V473.999V473.831V473.664V473.496V473.328V473.161V472.993V472.826V472.658V472.49V472.323V472.155V471.988V471.82V471.652V471.485V471.317V471.149V470.982V470.814V470.647V470.479V470.311V470.144V469.976V469.809V469.641V469.473V469.306V469.138V468.971V468.803V468.635V468.468V468.3V468.132V467.965V467.797V467.63V467.462V467.294V467.127V466.959V466.792V466.624V466.456V466.289V466.121V465.954V465.786V465.618V465.451V465.283V465.116V464.948V464.78V464.613V464.445V464.278V464.11V463.942V463.775V463.607V463.44V463.272V463.104V462.937V462.769V462.602V462.434V462.266V462.099V461.931V461.764V461.596V461.429V461.261V461.093V460.926V460.758V460.591V460.423V460.255V460.088V459.92V459.753V459.585V459.418V459.25V459.082V458.915V458.747V458.58V458.412V458.244V458.077V457.909V457.742V457.574V457.407V457.239V457.071V456.904V456.736V456.569V456.401V456.234V456.066V455.898V455.731V455.563V455.396V455.228V455.061V454.893V454.726V454.558V454.39V454.223V454.055V453.888V453.72V453.553V453.385V453.218V453.05V452.883V452.715V452.547V452.38V452.212V452.045V451.877V451.71V451.542V451.375V451.207V451.04V450.872V450.704V450.537V450.369V450.202V450.034V449.867V449.699V449.532V449.364V449.197V449.029V448.862V448.694V448.527V448.359V448.192V448.024V447.857V447.689V447.522V447.354V447.187V447.019V446.852V446.684V446.517V446.349V446.182V446.014V445.846V445.679V445.512V445.344V445.177V445.009V444.842V444.674V444.507V444.339V444.172V444.004V443.837V443.669V443.502V443.334V443.266C1276.34 453.133 1261.75 462.327 1246.74 470.816L1246.62 470.882L1246.5 470.946C1222.45 484.037 1195.54 491.927 1165.67 487.691L1165.66 487.689L1165.65 487.688C1137.59 483.673 1105.37 467.161 1093.79 427.453L1093.79 427.451C1086.95 403.981 1086.62 380.468 1089.85 357.595L1089.85 357.55L1089.86 357.505C1093.55 332.294 1100.77 307.728 1111.29 284.527C1120.82 263.131 1130.18 241.93 1138.82 220.463L1138.83 220.444L1138.84 220.425C1148.7 196.098 1152.47 169.726 1149.82 143.606L1149.82 143.592L1149.82 143.577C1146.79 113.225 1133.66 84.7711 1112.53 62.7824L1112.46 62.7097L1112.4 62.6361C1076.45 24.2928 1032.7 10.1419 981.03 19.0878C938.453 26.4802 903.847 48.2557 877.079 82.8193C848.551 119.863 842.172 161.019 854.413 206.708L854.415 206.715L854.417 206.723C860.022 227.718 868.966 247.593 878.538 268.86C878.935 269.743 879.334 270.628 879.733 271.515L879.74 271.531L879.746 271.546C886.394 286.407 893.122 301.634 899.183 317.212C906.114 334.943 908.311 354.172 905.561 373.009C901.422 402.508 888.849 430.182 869.353 452.698C854.367 470.184 835.424 483.973 810.849 489.301L810.814 489.309L810.778 489.316C799.948 491.615 788.73 491.697 778.013 488.163C767.129 484.573 757.864 477.61 750.641 467.663L750.537 467.52L750.436 467.374C743.867 457.908 738.003 447.973 732.891 437.647C729.753 431.601 726.906 425.485 724.227 419.702L723.857 418.904C721.245 413.268 718.786 407.96 716.148 402.781L716.144 402.772L716.139 402.762C700.776 372.498 681.236 346.372 655.122 326.273L655.107 326.262L655.092 326.25C623.544 301.856 588.862 289.82 549.284 291.8L549.267 291.801L549.25 291.802C527.486 292.845 506.132 298.105 486.371 307.29L486.341 307.304L486.312 307.318C457.125 320.744 433.11 339.158 416 365.218C403.572 384.251 396.001 404.514 394.529 426.587L394.528 426.591C392.867 451.427 398.467 474.882 410.037 497.654L410.038 497.658C420.796 518.846 435.806 537.125 453.45 555.462C469.769 572.422 488.412 586.784 508.235 602.055C509.206 602.802 510.18 603.552 511.156 604.305C520.698 611.657 529.806 619.555 538.434 627.961L22.5 1030.09ZM22.5 1030.09V983.4C49.7214 975.358 72.7235 960.315 93.383 944.671L93.5235 944.564L93.6617 944.455C103.211 936.898 112.194 928.65 120.538 919.779C140.642 899.161 150.174 873.683 151.871 846.476L151.872 846.46L151.872 846.445C153.011 827.632 152.866 808.833 152.492 790.574C151.78 753.889 157.056 719.681 173.14 688.273L173.143 688.268C188.095 659.045 209.295 637.267 238.633 624.169L238.775 624.106L238.915 624.04C255.208 616.394 273.312 613.46 291.183 615.565C309.054 617.672 325.981 624.735 340.054 635.959L340.196 636.072L340.34 636.182C352.459 645.419 362.636 656.959 370.287 670.141L370.315 670.189L370.344 670.238C373.921 676.305 377.362 682.501 380.903 688.901L381.506 689.99C384.803 695.949 388.2 702.09 391.74 708.174C396.67 716.988 402.095 725.515 407.99 733.715C417.207 746.741 430.829 755.991 446.338 759.748L446.526 759.794L446.715 759.835C459.595 762.638 473.01 761.645 485.336 756.978C521.504 743.714 544.876 717.346 553.306 679.613C557.574 660.729 553.051 642.16 538.436 627.962L22.5 1030.09Z" stroke="#2B546A" stroke-width="33"/>
<line x1="41.8545" y1="1000.71" x2="1.85452" y2="1013.71" stroke="#E8E8E8" stroke-width="12"/>
<path d="M95.7222 971.475C98.9496 971.071 104.025 965.891 106.404 963.6C109.853 960.279 112.74 956.406 116.423 953.542C123.766 947.83 129.379 939.594 135.719 932.881C138.079 930.382 139.082 925.76 142.035 923.915C144.17 922.58 142.737 922.821 142.737 925.162C142.737 927.26 144.956 926.565 146.596 926.565C151.94 926.565 148.96 922.447 151.508 919.899C154.634 916.774 151.961 914.84 150.455 911.83" stroke="#2B546A" stroke-width="25" stroke-linecap="round"/>
<path d="M172.91 767.278C172.91 761.601 173.322 755.936 173.612 750.437C173.798 746.897 175.523 743.393 175.717 739.912C176.129 732.494 179.889 724.441 182.383 717.457C185.082 709.9 188.253 703.088 191.466 695.743C193.596 690.875 197.968 687.691 200.277 683.073" stroke="#2B546A" stroke-width="25" stroke-linecap="round"/>
<path d="M340.618 669.74C340.824 673.444 343.43 677.705 344.828 681.123C346.273 684.654 347.734 688.946 349.74 692.156C353.426 698.053 356.452 704.723 360.422 710.439C362.397 713.284 363.936 716.49 365.879 719.406C367.517 721.862 369.84 722.82 371.844 724.824C374.774 727.754 375.58 733.885 379.212 735.701" stroke="#2B546A" stroke-width="25" stroke-linecap="round"/>
<path d="M523.062 759.559C529.966 752.655 537.781 746.821 542.71 738.196C544.142 735.689 546.426 731.318 548.635 729.424C549.739 728.478 554.187 723.422 554.6 721.978C555.423 719.098 557.323 716.266 557.446 713.09C557.543 710.569 559.975 705.202 561.656 703.422C563.098 701.895 567.269 697.206 567.269 702.019C567.269 704.462 567.592 707.822 565.164 709.036" stroke="#2B546A" stroke-width="25" stroke-linecap="round"/>
<path d="M520.255 584.133C518.295 583.915 515.003 580.283 513.589 578.87C511.613 576.893 509.038 574.994 506.611 573.607C504.699 572.514 504.11 569.706 502.011 568.539C499.271 567.017 495.853 563.629 493.59 561.366C489.532 557.308 485.202 553.367 481.271 549.437C478.89 547.055 476.445 544.401 473.942 542.03C472.391 540.56 470.887 538.046 469.031 537.118" stroke="#2B546A" stroke-width="25" stroke-linecap="round"/>
<path d="M415.701 419.933C415.701 417.261 417.121 412.605 418.196 410.148C419.802 406.476 420.429 402.288 422.367 398.842C423.883 396.148 425.146 392.341 426.226 389.369C427.425 386.074 430.639 381.676 432.893 378.922C437.306 373.527 441.979 366.078 447.979 362.548C449.81 361.471 452.581 359.974 454.139 358.728C455.665 357.507 458.301 357.186 459.207 355.375" stroke="#2B546A" stroke-width="25" stroke-linecap="round"/>
<path d="M576.392 316.08C586.167 316.08 595.101 315.857 604.304 319.043C611.296 321.463 617.706 324.306 624.459 327.307C628.541 329.122 631.485 332.363 635.335 334.48C638.845 336.411 643.85 339.538 645.861 343.057C648.877 348.336 653.747 352.905 656.386 358.182" stroke="#2B546A" stroke-width="25" stroke-linecap="round"/>
<path d="M723.049 470.456C723.535 475.073 727.135 477.849 730.222 480.825C731.97 482.511 733.977 483.947 735.835 485.503C737.905 487.236 739.112 489.715 741.293 491.351C746.055 494.922 751.37 498.495 756.731 501.175C760.235 502.927 763.767 504.85 767.256 506.788C769.139 507.835 775.685 509.065 776.378 510.453" stroke="#2B546A" stroke-width="25" stroke-linecap="round"/>
<path d="M890.757 459.93C890.757 455.357 896.378 452.033 897.93 447.845C899.006 444.938 900.979 441.645 902.686 439.035C904.915 435.625 906.696 431.345 908.455 427.651C910.266 423.848 912.733 420.552 913.913 416.424C915.812 409.778 920.588 403.309 921.671 396.815C922.4 392.441 926.544 388.057 926.544 383.444" stroke="#2B546A" stroke-width="25" stroke-linecap="round"/>
<path d="M899.879 269.767C899.678 266.348 896.166 260.2 894.265 257.292C892.114 254.003 890.778 250.465 888.652 247.157C884.979 241.443 883.479 235.878 882.297 229.38C879.868 216.019 874.617 203.402 874.617 189.772" stroke="#2B546A" stroke-width="25" stroke-linecap="round"/>
<path d="M904.089 83.8151C908.404 79.0211 913.869 75.4388 918.435 70.8725C920.731 68.5766 922.975 66.436 925.491 64.4792C931.046 60.159 938.292 57.0483 943.385 52.2383C944.998 50.7145 948.266 50.3755 950.402 49.7823C952.548 49.1861 956.19 47.4263 958.432 48.067C960.888 48.7687 964.436 54.178 964.436 56.4485" stroke="#2B546A" stroke-width="25" stroke-linecap="round"/>
<path d="M1083.02 71.8857C1088.62 71.8857 1097.45 80.3054 1100.57 84.6724C1104.73 90.5009 1108.1 96.9531 1112.5 102.605C1116.76 108.086 1119.15 115.36 1121.07 121.863C1122.22 125.731 1122.91 131.011 1125.13 134.338" stroke="#2B546A" stroke-width="25" stroke-linecap="round"/>
<path d="M1102.67 245.208C1102.67 249.116 1100.18 252.704 1098.46 256.045C1096.25 260.358 1094.06 264.99 1091.44 269.066C1087.34 275.447 1085.59 283.014 1081.97 289.454C1079.67 293.547 1078.09 299.859 1077.37 304.502C1077.03 306.704 1075.68 308.644 1075.34 310.817C1075.2 311.751 1074.6 315.03 1074.6 314.677" stroke="#2B546A" stroke-width="25" stroke-linecap="round"/>
<path d="M1071.1 427.651C1071.1 438.269 1073.3 446.506 1078.46 455.681C1082.53 462.905 1087.42 468.059 1093.16 473.964C1099.12 480.095 1106.18 483.839 1113.2 488.349C1114.82 489.392 1116.11 491.564 1117.06 493.261C1118.31 495.514 1120.86 497.643 1121.62 499.927" stroke="#2B546A" stroke-width="25" stroke-linecap="round"/>
<path d="M1235.3 500.629C1239.24 500.191 1242.34 496.707 1245.82 495.015C1247.7 494.103 1250.4 494.017 1251.98 492.754C1255.69 489.783 1259.61 489.226 1263.71 486.946C1267.12 485.053 1270.68 483.759 1273.19 480.63C1274.29 479.251 1277 479.385 1278.41 478.486C1279.37 477.875 1285.17 475.34 1282.31 476.771" stroke="#2B546A" stroke-width="25" stroke-linecap="round"/>
<rect x="72.4116" y="967.048" width="14" height="29.3318" transform="rotate(-33.2648 72.4116 967.048)" fill="#2B546A"/>
<path d="M152.954 900.688C156.276 900.688 159.769 902.443 162.617 904.04C163.564 904.571 165.082 905.002 165.456 906.124" stroke="#2B546A" stroke-width="10" stroke-linecap="round"/>
<path d="M166.815 780.018C172.049 780.018 177.284 780.018 182.518 780.018C183.654 780.018 185.568 779.4 185.568 780.833" stroke="#2B546A" stroke-width="10" stroke-linecap="round"/>
<path d="M201.875 669.402C203.478 669.821 204.821 671.551 206.012 672.603C209.351 675.554 212.699 678.673 216.324 681.27C217.426 682.059 218.565 683.032 219.782 683.641C220.173 683.836 220.443 683.709 220.628 684.079" stroke="#2B546A" stroke-width="10" stroke-linecap="round"/>
<path d="M328.253 666.413C331.056 663.609 334.046 660.989 336.739 658.078C336.936 657.865 338.6 656.046 338.309 656.629" stroke="#2B546A" stroke-width="10" stroke-linecap="round"/>
<path d="M373.912 751.752C373.912 750.469 375.255 749.589 376.086 748.763C379.526 745.341 383.101 742.063 386.897 739.039C388.805 737.519 390.767 736.098 392.756 734.69C393.2 734.376 393.476 734.086 394.024 734.086" stroke="#2B546A" stroke-width="10" stroke-linecap="round"/>
<path d="M511.161 760.993C511.161 762.698 512.156 763.966 513.064 765.341C514.373 767.323 515.635 769.339 516.99 771.29C517.757 772.395 518.482 773.477 519.436 774.431C519.816 774.811 520.451 775.224 520.674 775.669" stroke="#2B546A" stroke-width="10" stroke-linecap="round"/>
<path d="M576.117 728.379C575.057 728.85 573.933 728.679 572.856 729.24C571.513 729.938 570.327 730.69 568.915 731.233C568.208 731.505 567.346 731.357 566.605 731.368C565.039 731.392 564.013 732.375 562.89 733.392C560.231 735.799 557.872 738.778 556.277 741.968" stroke="#2B546A" stroke-width="10" stroke-linecap="round"/>
<path d="M561.713 688.699C563.42 688.699 564.925 689.141 566.544 689.681C570.627 691.042 574.768 692.213 578.865 693.531C579.961 693.883 585.358 694.99 585.358 696.581" stroke="#2B546A" stroke-width="10" stroke-linecap="round"/>
<path d="M523.935 597.109C523.935 596.147 524.872 594.94 525.324 594.225C527.453 590.858 530.186 587.897 532.934 585.03C535.036 582.837 537.278 580.776 539.427 578.628" stroke="#2B546A" stroke-width="10" stroke-linecap="round"/>
<path d="M453.816 536.23C454.389 534.51 457.405 532.93 458.708 531.881C461.263 529.826 463.814 527.745 466.529 525.902C467.531 525.222 468.631 524.743 469.307 523.728" stroke="#2B546A" stroke-width="10" stroke-linecap="round"/>
<path d="M408.7 432.138C412.696 432.138 416.692 432.138 420.689 432.138C421.645 432.138 427.245 431.45 427.725 432.41" stroke="#2B546A" stroke-width="10" stroke-linecap="round"/>
<path d="M458.708 339.732C462.139 344.24 466.2 348.553 470.213 352.567C470.802 353.155 471.657 353.672 472.025 354.409" stroke="#2B546A" stroke-width="10" stroke-linecap="round"/>
<path d="M657.651 371.802C658.629 370.065 661.177 368.734 662.725 367.68C667.201 364.632 671.757 361.699 676.284 358.727C678.724 357.124 685.807 352.072 683.742 354.137" stroke="#2B546A" stroke-width="10" stroke-linecap="round"/>
<path d="M712.28 464.751C714.091 464.626 715.889 463.664 717.549 463.03C721.239 461.62 724.915 460.105 728.677 458.893C730.332 458.36 735.489 457.685 733.75 457.685" stroke="#2B546A" stroke-width="10" stroke-linecap="round"/>
<path d="M787.019 505.79V528.076" stroke="#2B546A" stroke-width="10" stroke-linecap="round"/>
<path d="M880.297 463.405C880.215 463.651 880.733 463.685 880.959 463.812C882.284 464.559 883.46 465.492 884.641 466.449C889.143 470.095 893.646 473.776 897.977 477.624C900.064 479.478 902.067 481.412 904.041 483.386C904.4 483.745 904.811 484.046 904.97 484.524" stroke="#2B546A" stroke-width="10" stroke-linecap="round"/>
<path d="M917.934 373.076H947.417" stroke="#2B546A" stroke-width="10" stroke-linecap="round"/>
<path d="M896.188 282.119C902.434 278.025 908.991 274.496 915.448 270.758C915.916 270.487 919.522 268.696 919.398 268.946" stroke="#2B546A" stroke-width="10" stroke-linecap="round"/>
<path d="M861.269 180.916H884.688" stroke="#2B546A" stroke-width="10" stroke-linecap="round"/>
<path d="M892.842 85.5684C893.756 85.7715 894.396 86.2004 895.166 86.7532C897.191 88.2086 899.113 89.8306 901.067 91.3766C906.147 95.3949 911.215 99.4194 916.54 103.109C918.879 104.73 921.248 106.671 923.789 107.942" stroke="#2B546A" stroke-width="10" stroke-linecap="round"/>
<path d="M1070.99 68.4223C1071.42 67.0728 1072.42 65.7932 1073.29 64.7167C1075.32 62.2198 1077.71 59.9365 1080.05 57.7352C1081.24 56.6235 1082.81 55.3533 1084.37 54.8311" stroke="#2B546A" stroke-width="10" stroke-linecap="round"/>
<path d="M1117.62 145.161C1123.7 145.161 1129.75 144.884 1135.82 144.65C1136.33 144.63 1142.82 144.535 1142.71 144.743" stroke="#2B546A" stroke-width="10" stroke-linecap="round"/>
<path d="M1099.64 232.981C1101.81 233.136 1103.98 234.032 1106 234.747C1109.05 235.819 1112.02 237.061 1115.11 238C1116.38 238.386 1117.68 238.78 1118.99 238.999C1119.34 239.057 1119.56 238.957 1119.71 239.254" stroke="#2B546A" stroke-width="10" stroke-linecap="round"/>
<path d="M1065.77 322.893C1071.98 322.893 1077.68 325.262 1083.55 327.051C1084.23 327.258 1088.35 327.843 1088.35 328.747" stroke="#2B546A" stroke-width="10" stroke-linecap="round"/>
<path d="M1060.12 422.632C1061.45 422.448 1062.74 421.941 1064.03 421.587C1067.04 420.765 1070.1 420.087 1073.16 419.53C1073.86 419.404 1077.93 418.317 1078.31 419.077" stroke="#2B546A" stroke-width="10" stroke-linecap="round"/>
<path d="M1223.21 496.024C1223.52 500.614 1225 505.312 1226.26 509.709C1226.65 511.06 1226.81 513.026 1227.61 514.216" stroke="#2B546A" stroke-width="10" stroke-linecap="round"/>
<line x1="1312.19" y1="457.081" x2="1269.19" y2="484.081" stroke="white" stroke-width="12"/>
<path d="M1287.2 463.196C1287.31 464.478 1288.04 465.674 1288.57 466.821C1289.53 468.916 1290.29 471.079 1291.04 473.256C1291.42 474.329 1291.59 475.425 1292.22 476.369" stroke="#2B546A" stroke-width="10" stroke-linecap="round"/>
<path d="M1287.2 463.196C1287.31 464.478 1288.04 465.674 1288.57 466.821C1289.53 468.916 1290.29 471.079 1291.04 473.256C1291.42 474.329 1291.59 475.425 1292.22 476.369" stroke="#2B546A" stroke-width="10" stroke-linecap="round"/>
<line x1="1312.19" y1="457.081" x2="1269.19" y2="484.081" stroke="white" stroke-width="12"/>
<path d="M1135.72 494.982C1135.55 496.479 1134.52 498.013 1133.89 499.316C1131.46 504.374 1129.12 509.482 1126.79 514.593C1125.89 516.579 1125.02 518.561 1124.26 520.604C1124.25 520.621 1124.02 521.319 1124.02 521.182" stroke="#2B546A" stroke-width="10" stroke-linecap="round"/>
<path d="M1081.13 52.6143C1080.03 53.214 1079.18 54.505 1078.41 55.4434C1075.83 58.6127 1073.23 61.8356 1070.83 65.1424C1070.2 66.006 1069.64 66.9154 1069.03 67.7934C1068.89 68.0006 1068.81 68.1473 1068.81 68.392" stroke="#2B546A" stroke-width="10" stroke-linecap="round"/>
<path d="M969.915 35.1689C969.915 37.0394 970.194 38.8288 970.571 40.6634C971.498 45.1772 972.501 49.6611 973.25 54.2106C973.744 57.2113 974.23 60.2335 974.533 63.261" stroke="#2B546A" stroke-width="10" stroke-linecap="round"/>
<path d="M567.483 307.054V330.098" stroke="#2B546A" stroke-width="10" stroke-linecap="round"/>
<path d="M154.135 895.77C154.464 895.77 154.811 895.986 155.086 896.125C158.005 897.598 160.872 899.119 163.855 900.467C166.66 901.734 169.471 903.194 172.455 904.008" stroke="#2B546A" stroke-width="10" stroke-linecap="round"/>
</svg>
