<svg width="39" height="38" viewBox="0 0 39 38" fill="none" xmlns="http://www.w3.org/2000/svg">
<g id="account">
<rect id="Rectangle 6" x="0.59375" width="38.2969" height="38" rx="19" fill="white"/>
<path id="Vector 6" d="M9.66406 28.7825C16.9351 22.3905 21.247 22.5084 28.8125 28.7825" stroke="black" stroke-width="2.21667"/>
<path id="Ellipse 5" d="M25.6211 15.3333C25.6211 18.8311 22.7634 21.6667 19.2383 21.6667C15.7132 21.6667 12.8555 18.8311 12.8555 15.3333C12.8555 11.8355 15.7132 9 19.2383 9C22.7634 9 25.6211 11.8355 25.6211 15.3333ZM15.0895 15.3333C15.0895 17.6069 16.9469 19.45 19.2383 19.45C21.5296 19.45 23.3871 17.6069 23.3871 15.3333C23.3871 13.0598 21.5296 11.2167 19.2383 11.2167C16.9469 11.2167 15.0895 13.0598 15.0895 15.3333Z" fill="black"/>
</g>
</svg>
