<svg width="39" height="38" viewBox="0 0 39 38" fill="none" xmlns="http://www.w3.org/2000/svg">
<g id="account">
<rect id="Rectangle 6" x="0.967712" width="38.0323" height="38" rx="19" fill="white" fill-opacity="0.3"/>
<path id="Vector 6" d="M9.9751 28.7825C17.1959 22.3905 21.478 22.5084 28.9912 28.7825" stroke="white" stroke-width="2.21667"/>
<path id="Ellipse 5" d="M25.8221 15.3333C25.8221 18.8311 22.9842 21.6667 19.4834 21.6667C15.9827 21.6667 13.1447 18.8311 13.1447 15.3333C13.1447 11.8355 15.9827 9 19.4834 9C22.9842 9 25.8221 11.8355 25.8221 15.3333ZM15.3633 15.3333C15.3633 17.6069 17.2079 19.45 19.4834 19.45C21.7589 19.45 23.6036 17.6069 23.6036 15.3333C23.6036 13.0598 21.7589 11.2167 19.4834 11.2167C17.2079 11.2167 15.3633 13.0598 15.3633 15.3333Z" fill="white"/>
</g>
</svg>
