<svg width="21" height="20" viewBox="0 0 21 20" fill="none" xmlns="http://www.w3.org/2000/svg">
<path id="Vector" d="M2.93255 4.7619V8.57143H15.927L18.7831 6.93905C18.8327 6.91092 18.8737 6.87104 18.9022 6.82329C18.9308 6.77554 18.9457 6.72158 18.9457 6.66667C18.9457 6.61176 18.9308 6.55779 18.9022 6.51004C18.8737 6.4623 18.8327 6.42241 18.7831 6.39429L15.927 4.7619H2.93255ZM10.9414 2.85714H15.927C16.2903 2.85725 16.6467 2.95141 16.9581 3.12952L19.8143 4.7619C20.1599 4.95937 20.4459 5.23858 20.6444 5.57236C20.843 5.90615 20.9473 6.28314 20.9473 6.66667C20.9473 7.05019 20.843 7.42718 20.6444 7.76097C20.4459 8.09475 20.1599 8.37396 19.8143 8.57143L16.9581 10.2038C16.6467 10.3819 16.2903 10.4761 15.927 10.4762H10.9414V19.0476C10.9414 19.3002 10.836 19.5424 10.6482 19.7211C10.4605 19.8997 10.2058 20 9.94032 20C9.67481 20 9.42017 19.8997 9.23243 19.7211C9.04468 19.5424 8.93921 19.3002 8.93921 19.0476V10.4762H2.93255C2.40153 10.4762 1.89225 10.2755 1.51677 9.9183C1.14128 9.56109 0.930328 9.0766 0.930328 8.57143V4.7619C0.930328 4.25673 1.14128 3.77225 1.51677 3.41503C1.89225 3.05782 2.40153 2.85714 2.93255 2.85714H8.93921V1.90476C8.93921 1.65217 9.04468 0.457552 9.23243 0.278946C9.42017 0.10034 9.67481 0 9.94032 0C10.2058 0 10.4605 0.10034 10.6482 0.278946C10.836 0.457552 10.9414 1.65217 10.9414 1.90476V2.85714Z" fill="white"/>
</svg>
