<svg width="21" height="20" viewBox="0 0 21 20" fill="none" xmlns="http://www.w3.org/2000/svg">
<path id="Vector" d="M2.34427 4.7619V8.57143H15.4291L18.3051 6.93905C18.355 6.91092 18.3964 6.87104 18.4251 6.82329C18.4538 6.77554 18.4689 6.72158 18.4689 6.66667C18.4689 6.61176 18.4538 6.55779 18.4251 6.51004C18.3964 6.4623 18.355 6.42241 18.3051 6.39429L15.4291 4.7619H2.34427ZM10.4089 2.85714H15.4291C15.7949 2.85725 16.1539 2.95141 16.4674 3.12952L19.3434 4.7619C19.6915 4.95937 19.9794 5.23858 20.1794 5.57236C20.3793 5.90615 20.4844 6.28314 20.4844 6.66667C20.4844 7.05019 20.3793 7.42718 20.1794 7.76097C19.9794 8.09475 19.6915 8.37396 19.3434 8.57143L16.4674 10.2038C16.1539 10.3819 15.7949 10.4761 15.4291 10.4762H10.4089V19.0476C10.4089 19.3002 10.3027 19.5424 10.1136 19.7211C9.92456 19.8997 9.66816 20 9.4008 20C9.13344 20 8.87703 19.8997 8.68798 19.7211C8.49893 19.5424 8.39272 19.3002 8.39272 19.0476V10.4762H2.34427C1.80956 10.4762 1.29674 10.2755 0.918642 9.9183C0.54054 9.56109 0.328125 9.0766 0.328125 8.57143V4.7619C0.328125 4.25673 0.54054 3.77225 0.918642 3.41503C1.29674 3.05782 1.80956 2.85714 2.34427 2.85714H8.39272V1.90476C8.39272 1.65217 8.49893 0.457552 8.68798 0.278946C8.87703 0.10034 9.13344 0 9.4008 0C9.66816 0 9.92456 0.10034 10.1136 0.278946C10.3027 0.457552 10.4089 1.65217 10.4089 1.90476V2.85714Z" fill="black"/>
</svg>
